<?xml version="1.0" encoding="UTF-8"?> <svg xmlns="http://www.w3.org/2000/svg" width="150" height="38" viewBox="0 0 150 38" fill="none"> <g opacity="0.3"> <path d="M57.8906 13.6024C57.2344 12.9503 56.9062 11.8788 56.9062 10.4347V5.07759H59.9062V10.0155C59.9062 11.0869 60.0937 11.8788 60.4687 12.2981C60.8437 12.7173 61.4062 12.9503 62.1562 12.9503C62.8594 12.9503 63.4219 12.7173 63.7969 12.2515C64.1719 11.7857 64.3594 11.0869 64.3594 10.1552V5.03101H67.3594V11.3198L67.6406 14.3944H64.7344L64.5 11.3198H64.4062C64.2656 12.3447 63.8437 13.1366 63.2344 13.6956C62.5781 14.2546 61.7812 14.5341 60.75 14.5341C59.4844 14.6273 58.5469 14.3012 57.8906 13.6024Z" fill="black"></path> <path d="M69.5625 1.30432H72.5625V9.13041H72.7031L77.25 5.07761H80.8594L76.3594 9.13041L80.9531 14.4876H77.3438L73.5469 9.82917L72.6094 10.5745V14.441H69.6094V1.30432H69.5625Z" fill="black"></path> <path d="M82.3125 5.07759H85.3125L85.0312 8.33846H85.125C85.2656 7.31361 85.5937 6.47511 86.1562 5.9161C86.6719 5.31051 87.4219 5.03101 88.3594 5.03101C88.7344 5.03101 89.1094 5.07759 89.4375 5.17076L89.2969 7.82604C89.0156 7.73287 88.7812 7.6397 88.5937 7.59312C88.4062 7.54653 88.1719 7.54653 87.9375 7.54653C86.25 7.54653 85.4062 8.66455 85.4062 10.9472V14.4409H82.4062V5.07759H82.3125Z" fill="black"></path> <path d="M91.0313 14.0216C90.375 13.6024 90.0938 12.9502 90.0938 12.1583C90.0938 10.4346 91.5469 9.4098 94.4531 9.08372L96.4219 8.8508C96.9375 8.80421 97.2656 8.71105 97.4531 8.57129C97.6406 8.43154 97.7813 8.19862 97.7813 7.91912C97.7813 7.49987 97.5938 7.12719 97.1719 6.89428C96.7969 6.61477 96.2344 6.47502 95.5781 6.47502C94.9219 6.47502 94.4063 6.66136 94.0313 6.98744C93.6094 7.31353 93.375 7.77937 93.3281 8.38496L90.4219 8.29179C90.5156 7.63962 90.75 7.03403 91.1719 6.47502C91.5938 5.91601 92.2031 5.49676 92.9531 5.17067C93.7031 4.84459 94.5938 4.70483 95.625 4.70483C97.2188 4.70483 98.4844 5.03092 99.375 5.63651C100.266 6.2421 100.734 7.22036 100.734 8.52471V11.5527L101.203 14.4409H98.25L98.0625 12.1117H97.9219C97.7344 12.857 97.2656 13.5092 96.4688 13.9284C95.6719 14.3943 94.7344 14.6272 93.6094 14.6272C92.5313 14.6738 91.6875 14.4409 91.0313 14.0216ZM96.3281 12.8104C96.75 12.6241 97.125 12.298 97.4063 11.9253C97.6875 11.5527 97.8281 11.0868 97.8281 10.5278V9.1303H97.7344C97.6406 9.4098 97.4531 9.59614 97.2656 9.73589C97.0313 9.87564 96.75 9.96881 96.3281 10.062L94.8281 10.2949C93.7031 10.5278 93.1406 11.0402 93.1406 11.8322C93.1406 12.2048 93.2813 12.5309 93.6094 12.7638C93.9375 12.9968 94.3594 13.0899 94.9219 13.0899C95.3906 13.1365 95.8594 13.0433 96.3281 12.8104Z" fill="black"></path> <path d="M102.938 3.40053C102.516 3.07444 102.328 2.70177 102.328 2.18935C102.328 1.67693 102.516 1.25767 102.938 0.978168C103.359 0.652081 103.875 0.512329 104.531 0.512329C105.187 0.512329 105.703 0.652081 106.125 0.978168C106.547 1.30425 106.734 1.72351 106.734 2.18935C106.734 2.70177 106.547 3.07444 106.125 3.40053C105.703 3.72662 105.187 3.86637 104.531 3.86637C103.875 3.86637 103.359 3.68003 102.938 3.40053ZM105.984 5.07755V14.4409H102.984V5.07755H105.984Z" fill="black"></path> <path d="M108.141 5.07757H111.141L111 8.15211H111.094C111.422 6.00925 112.641 4.89124 114.75 4.89124C115.969 4.89124 116.953 5.26391 117.656 6.05583C118.406 6.80117 118.734 7.91919 118.734 9.40987V14.4409H115.781V9.78254C115.781 8.71111 115.594 7.91919 115.219 7.40676C114.844 6.89434 114.281 6.61484 113.484 6.61484C111.891 6.61484 111.094 7.49993 111.094 9.3167V14.4409H108.094V5.07757H108.141Z" fill="black"></path> <path d="M120.75 3.40053C120.328 3.07444 120.141 2.70177 120.141 2.18935C120.141 1.67693 120.328 1.25767 120.75 0.978168C121.172 0.652081 121.688 0.512329 122.344 0.512329C123 0.512329 123.516 0.652081 123.938 0.978168C124.359 1.30425 124.547 1.72351 124.547 2.18935C124.547 2.70177 124.359 3.07444 123.938 3.40053C123.516 3.72662 123 3.86637 122.344 3.86637C121.688 3.86637 121.172 3.68003 120.75 3.40053ZM123.844 5.07755V14.4409H120.844V5.07755H123.844Z" fill="black"></path> <path d="M126.469 14.0216C125.813 13.6024 125.531 12.9502 125.531 12.1583C125.531 10.4346 126.984 9.4098 129.891 9.08372L131.859 8.8508C132.375 8.80421 132.703 8.71105 132.891 8.57129C133.078 8.43154 133.219 8.19862 133.219 7.91912C133.219 7.49987 133.031 7.12719 132.609 6.89428C132.234 6.61477 131.672 6.47502 131.016 6.47502C130.359 6.47502 129.844 6.66136 129.469 6.98744C129.047 7.31353 128.813 7.77937 128.766 8.38496L125.859 8.29179C125.953 7.63962 126.188 7.03403 126.609 6.47502C127.031 5.91601 127.641 5.49676 128.391 5.17067C129.141 4.84459 130.031 4.70483 131.063 4.70483C132.656 4.70483 133.922 5.03092 134.813 5.63651C135.75 6.28869 136.172 7.22036 136.172 8.52471V11.5527L136.641 14.4409H133.688L133.5 12.1117H133.359C133.172 12.857 132.703 13.5092 131.906 13.9284C131.109 14.3943 130.172 14.6272 129.047 14.6272C127.969 14.6738 127.078 14.4409 126.469 14.0216ZM131.719 12.8104C132.141 12.6241 132.516 12.298 132.797 11.9253C133.078 11.5527 133.219 11.0868 133.219 10.5278V9.1303H133.125C133.031 9.4098 132.844 9.59614 132.656 9.73589C132.422 9.87564 132.141 9.96881 131.719 10.062L130.219 10.2949C129.094 10.5278 128.531 11.0402 128.531 11.8322C128.531 12.2048 128.672 12.5309 129 12.7638C129.328 12.9968 129.75 13.0899 130.313 13.0899C130.828 13.1365 131.297 13.0433 131.719 12.8104Z" fill="black"></path> <path d="M138.422 5.07757H141.422L141.281 8.15211H141.375C141.703 6.00925 142.922 4.89124 145.031 4.89124C146.25 4.89124 147.234 5.26391 147.938 6.05583C148.688 6.80117 149.016 7.91919 149.016 9.40987V14.4409H146.016V9.78254C146.016 8.71111 145.828 7.91919 145.453 7.40676C145.078 6.89434 144.516 6.61484 143.719 6.61484C142.125 6.61484 141.328 7.49993 141.328 9.3167V14.4409H138.328V5.07757H138.422Z" fill="black"></path> <path d="M56.9531 19.5187H59.9531V25.6677H60.0469C60.2344 24.9224 60.5625 24.3168 61.125 23.8044C61.6875 23.3386 62.4844 23.1056 63.5156 23.1056C64.7813 23.1056 65.7656 23.4783 66.4688 24.2702C67.1719 25.0622 67.5 26.1802 67.5 27.6243V32.7019H64.5V28.0901C64.5 26.9721 64.3125 26.1336 63.9844 25.6677C63.6563 25.1553 63.0937 24.9224 62.2969 24.9224C61.5469 24.9224 60.9375 25.1553 60.5625 25.5746C60.1406 26.0404 59.9531 26.646 59.9531 27.4379V32.7019H56.9531V19.5187V19.5187Z" fill="black"></path> <path d="M70.5 31.8169C69.8437 31.1647 69.5156 30.0933 69.5156 28.6492V23.2454H72.5156V28.1833C72.5156 29.2548 72.7031 30.0467 73.0781 30.4659C73.4531 30.8852 74.0156 31.1181 74.7656 31.1181C75.4688 31.1181 76.0313 30.8852 76.4063 30.4194C76.7813 29.9535 76.9687 29.2548 76.9687 28.3231V23.1989H79.9688V29.4877L80.25 32.5622H77.3438L77.1094 29.4877H77.0156C76.875 30.5125 76.4531 31.3044 75.8438 31.8635C75.1875 32.4225 74.3906 32.702 73.3594 32.702C72.0937 32.7951 71.1562 32.469 70.5 31.8169Z" fill="black"></path> <path d="M86.4844 32.1895C85.7812 31.7236 85.2656 31.0715 85.0312 30.2795H84.9375L85.1719 32.6553H82.1719V19.5187H85.1719V25.1553H85.2187C85.4531 24.5031 85.875 23.9441 86.5781 23.5715C87.2812 23.1522 88.0781 22.9659 89.0156 22.9659C90 22.9659 90.9375 23.1988 91.6875 23.6181C92.4844 24.0373 93.0937 24.6429 93.5156 25.3882C93.9375 26.1336 94.1719 27.0187 94.1719 27.9504C94.1719 28.9286 93.9375 29.8137 93.5156 30.559C93.0937 31.3044 92.4375 31.91 91.6875 32.3292C90.8906 32.7485 90 32.9814 89.0156 32.9814C88.0781 32.9348 87.2344 32.7019 86.4844 32.1895ZM90.375 30.3727C90.9375 29.7205 91.2187 28.9286 91.2187 27.9038C91.2187 26.9255 90.9375 26.087 90.375 25.4814C89.8125 24.8758 89.1094 24.5497 88.1719 24.5497C87.2813 24.5497 86.5312 24.8758 85.9687 25.4814C85.4062 26.087 85.125 26.9255 85.125 27.9038C85.125 28.9286 85.4062 29.7205 85.9687 30.3727C86.5312 31.0249 87.2813 31.3044 88.1719 31.3044C89.0625 31.3044 89.8125 30.9783 90.375 30.3727Z" fill="black"></path> <path d="M22.5469 23.0125H21.6094C19.5 30.2329 12 35.5901 3 35.5901C2.95313 35.5901 2.90625 35.5901 2.85938 35.5901V36.8013H41.25V35.5901C41.2031 35.5901 41.1562 35.5901 41.1094 35.5901C32.1562 35.5901 24.6094 30.2329 22.5469 23.0125Z" fill="black"></path> <path d="M21.6094 14.8137H22.5469C24.6563 7.59323 32.2031 2.23608 41.1563 2.23608C41.2031 2.23608 41.25 2.23608 41.2969 2.23608V1.0249H2.85938V2.23608C2.90625 2.23608 2.95313 2.23608 3 2.23608C11.9531 2.23608 19.5 7.59323 21.6094 14.8137Z" fill="black"></path> <path d="M42.4685 17.5621C42.1404 17.4224 41.7185 17.2826 41.2498 17.1429C40.5467 16.9566 39.7029 16.7702 38.7654 16.5839C37.3592 16.351 35.6717 16.118 33.8435 15.9783C32.1092 15.8385 30.2342 15.6988 28.2185 15.6056C26.906 15.559 25.5467 15.5125 24.0935 15.5125V16.1646C25.031 16.1646 25.9217 16.2112 26.7654 16.2578C28.2654 16.3044 29.6717 16.3975 30.9373 16.5373C32.2498 16.677 33.3748 16.8168 34.3123 16.9566C35.2967 17.1429 35.9998 17.3292 36.4217 17.5621C36.8435 17.7951 36.8435 18.028 36.4217 18.2609C35.9998 18.4938 35.156 18.7267 33.8904 18.9597C32.5779 19.1926 30.8904 19.3323 28.9217 19.4721C26.906 19.6118 24.6092 19.6584 22.1248 19.6584C22.0779 19.6584 22.0779 19.6584 22.031 19.6584C21.9842 19.6584 21.9842 19.6584 21.9373 19.6584C19.4998 19.6584 17.2029 19.5652 15.1404 19.4721C13.1248 19.3323 11.4373 19.146 10.1717 18.9597C8.95291 18.7733 8.06229 18.5404 7.64041 18.2609C7.21854 18.028 7.21854 17.7951 7.64041 17.5621C8.01541 17.3292 8.76541 17.1429 9.74979 16.9566C10.6873 16.7702 11.8592 16.6305 13.1248 16.5373C14.3904 16.3975 15.7967 16.351 17.2967 16.2578C18.1404 16.2112 19.031 16.2112 19.9685 16.1646V15.5125C18.5623 15.5125 17.156 15.559 15.8435 15.6056C13.8748 15.6988 11.9529 15.792 10.2185 15.9783C8.39041 16.1646 6.74979 16.351 5.29666 16.5839C4.35916 16.7702 3.51541 16.91 2.81229 17.1429C2.34354 17.2826 1.96854 17.4224 1.59354 17.5621C0.60916 17.9814 0.23416 18.4006 0.42166 18.7733C0.60916 19.1926 1.40604 19.6118 2.76541 19.9845C2.99979 20.0311 3.14041 20.0311 3.28104 20.0777C5.01541 20.4969 7.49979 20.8696 10.6873 21.1491C13.8279 21.4286 17.531 21.5684 21.5623 21.6149H22.6404C26.6717 21.6149 30.3748 21.4286 33.5154 21.1491C36.656 20.8696 39.1873 20.4969 40.9217 20.0777C41.0623 20.0311 41.2029 20.0311 41.2967 19.9845C42.656 19.6118 43.4529 19.1926 43.6404 18.7733C43.8279 18.3541 43.4529 17.9348 42.4685 17.5621Z" fill="black"></path> </g> </svg> 