<?xml version="1.0" encoding="UTF-8"?> <svg xmlns="http://www.w3.org/2000/svg" width="70" height="70" viewBox="0 0 70 70" fill="none"> <g filter="url(#filter0_d)"> <circle cx="34.9992" cy="22.1051" r="16.7999" fill="#0F2A3B" fill-opacity="0.59"></circle> </g> <path d="M40.2492 22.1052C40.2492 23.4976 39.6961 24.8329 38.7115 25.8175C37.727 26.8021 36.3916 27.3552 34.9992 27.3552C33.6068 27.3552 32.2715 26.8021 31.2869 25.8175C30.3023 24.8329 29.7492 23.4976 29.7492 22.1052C29.7492 21.8059 29.7807 21.5137 29.835 21.2302H27.9992V28.2249C27.9992 28.7114 28.393 29.1052 28.8795 29.1052H41.1207C41.3539 29.1047 41.5773 29.0118 41.742 28.8467C41.9067 28.6817 41.9992 28.4581 41.9992 28.2249V21.2302H40.1635C40.2177 21.5137 40.2492 21.8059 40.2492 22.1052ZM34.9992 25.6052C35.459 25.6051 35.9142 25.5144 36.3389 25.3384C36.7636 25.1623 37.1495 24.9043 37.4745 24.5792C37.7995 24.254 38.0572 23.868 38.2331 23.4432C38.4089 23.0184 38.4993 22.5632 38.4992 22.1034C38.4991 21.6437 38.4084 21.1885 38.2324 20.7638C38.0564 20.3391 37.7984 19.9532 37.4732 19.6282C37.1481 19.3032 36.7621 19.0454 36.3373 18.8696C35.9125 18.6938 35.4572 18.6033 34.9975 18.6034C34.069 18.6037 33.1786 18.9727 32.5222 19.6294C31.8659 20.2861 31.4972 21.1767 31.4975 22.1052C31.4977 23.0337 31.8668 23.924 32.5235 24.5804C33.1802 25.2368 34.0707 25.6054 34.9992 25.6052ZM39.1992 18.4302H41.2975C41.4369 18.4302 41.5706 18.3749 41.6693 18.2765C41.7681 18.1781 41.8238 18.0446 41.8242 17.9052V15.8069C41.8242 15.6672 41.7687 15.5332 41.6699 15.4345C41.5712 15.3357 41.4372 15.2802 41.2975 15.2802H39.1992C39.0595 15.2802 38.9255 15.3357 38.8268 15.4345C38.728 15.5332 38.6725 15.6672 38.6725 15.8069V17.9052C38.6742 18.1939 38.9105 18.4302 39.1992 18.4302ZM34.9992 5.30518C30.5436 5.30518 26.2704 7.07517 23.1198 10.2258C19.9692 13.3764 18.1992 17.6495 18.1992 22.1052C18.1992 26.5608 19.9692 30.834 23.1198 33.9846C26.2704 37.1352 30.5436 38.9052 34.9992 38.9052C37.2054 38.9052 39.39 38.4706 41.4283 37.6264C43.4666 36.7821 45.3186 35.5446 46.8786 33.9846C48.4386 32.4245 49.6761 30.5725 50.5204 28.5343C51.3647 26.496 51.7992 24.3114 51.7992 22.1052C51.7992 19.899 51.3647 17.7144 50.5204 15.6761C49.6761 13.6378 48.4386 11.7858 46.8786 10.2258C45.3186 8.66576 43.4666 7.42828 41.4283 6.584C39.39 5.73972 37.2054 5.30518 34.9992 5.30518ZM43.7492 28.9109C43.7492 29.9802 42.8742 30.8552 41.805 30.8552H28.1935C27.1242 30.8552 26.2492 29.9802 26.2492 28.9109V15.2994C26.2492 14.2302 27.1242 13.3552 28.1935 13.3552H41.805C42.8742 13.3552 43.7492 14.2302 43.7492 15.2994V28.9109Z" fill="white"></path> <defs> <filter id="filter0_d" x="0.199219" y="0.305176" width="69.5999" height="69.5999" filterUnits="userSpaceOnUse" color-interpolation-filters="sRGB"> <feFlood flood-opacity="0" result="BackgroundImageFix"></feFlood> <feColorMatrix in="SourceAlpha" type="matrix" values="0 0 0 0 0 0 0 0 0 0 0 0 0 0 0 0 0 0 127 0"></feColorMatrix> <feOffset dy="13"></feOffset> <feGaussianBlur stdDeviation="9"></feGaussianBlur> <feColorMatrix type="matrix" values="0 0 0 0 0.0658854 0 0 0 0 0.0730469 0 0 0 0 0.1375 0 0 0 0.08 0"></feColorMatrix> <feBlend mode="normal" in2="BackgroundImageFix" result="effect1_dropShadow"></feBlend> <feBlend mode="normal" in="SourceGraphic" in2="effect1_dropShadow" result="shape"></feBlend> </filter> </defs> </svg> 