<?xml version="1.0" encoding="UTF-8"?> <svg xmlns="http://www.w3.org/2000/svg" width="65" height="70" viewBox="0 0 65 70" fill="none"> <g opacity="0.3"> <path d="M31.3297 0.0919305C31.1117 0.142842 30.7993 0.251938 30.6394 0.331942C30.4795 0.411945 30.2688 0.506495 30.1744 0.535588C29.9564 0.601045 29.6512 0.811963 29.0699 1.29926C28.5467 1.73564 27.9872 2.52113 27.4568 3.55391C27.2824 3.89574 27.0862 4.26667 27.0208 4.39031C26.9554 4.50668 26.8827 4.65942 26.8609 4.7176C26.8391 4.77578 26.5775 5.2849 26.2796 5.84492C25.9744 6.40495 25.6329 7.0668 25.5167 7.31408C25.4004 7.56137 25.226 7.88866 25.1243 8.04139C25.0153 8.19413 24.9353 8.35413 24.9353 8.39777C24.9353 8.44141 24.7755 8.75415 24.5793 9.09599C24.3831 9.43782 24.2015 9.78693 24.1724 9.88148C24.1433 9.96875 24.0271 10.2015 23.9108 10.3833C23.7945 10.5651 23.6492 10.8342 23.5911 10.9724C23.533 11.1106 23.424 11.3215 23.3586 11.4452C23.206 11.7216 22.4067 13.2707 22.2686 13.5544C22.1524 13.7944 22.1306 13.8453 21.7382 14.5362C21.5856 14.7981 21.4403 15.089 21.4112 15.1908C21.3821 15.2926 21.3385 15.3872 21.3095 15.409C21.215 15.4817 20.997 15.9327 21.0333 15.969C21.0551 15.9909 21.2949 15.9399 21.571 15.8599C22.1378 15.6999 23.1914 15.4526 24.3831 15.2126C24.6956 15.1472 24.543 15.3945 25.8582 12.8634C26.1997 12.2016 26.6502 11.3506 26.8464 10.9724C27.0498 10.5942 27.3768 9.96875 27.573 9.59055C27.7692 9.21235 28.227 8.32504 28.5903 7.62683C28.9536 6.92861 29.4332 5.99766 29.6585 5.56855C30.3052 4.32485 30.6394 3.91029 31.228 3.61937C31.693 3.38663 31.7802 3.37208 32.4196 3.37208C33.001 3.37936 33.1608 3.40117 33.4369 3.54664C34.3089 3.99757 34.3016 3.99029 36.0383 7.3359C36.3362 7.91775 36.7576 8.73233 36.9829 9.15417C37.9493 10.9943 38.1964 11.4743 38.458 11.9907C39.824 14.6672 40.1074 15.1472 40.3109 15.1981C40.4271 15.2199 40.7686 15.2926 41.0666 15.3581C42.2146 15.5981 43.0067 15.7872 43.3409 15.8963C43.5298 15.9618 43.7042 15.9909 43.726 15.969C43.7478 15.9472 43.5589 15.5472 43.3118 15.0672C43.0648 14.5944 42.7087 13.9108 42.5198 13.5544C42.3309 13.1907 42.0039 12.5725 41.7932 12.1725C41.5825 11.7725 41.3499 11.3143 41.27 11.1543C41.1974 10.9943 41.0811 10.7615 41.0157 10.6451C40.8994 10.427 40.4853 9.64147 39.8022 8.31777C39.5915 7.91775 39.25 7.26317 39.032 6.86315C38.4507 5.77219 37.8258 4.56487 37.2663 3.44481C37.1064 3.1248 36.903 2.76114 36.8158 2.64478C36.7286 2.52113 36.5832 2.29567 36.496 2.12839C36.0964 1.41563 34.4905 0.339215 33.4515 0.0992036C32.9065 -0.0317116 31.8892 -0.0317116 31.3297 0.0919305Z" fill="black"></path> <path d="M31.6421 4.60849C31.257 4.84123 31.2279 4.89214 29.7528 7.77228C29.3677 8.51413 29.0117 9.19052 28.9608 9.2778C28.9099 9.36508 28.4958 10.1506 28.0453 11.0233C27.602 11.8961 26.9626 13.118 26.6356 13.7362C26.3013 14.3544 26.0398 14.8635 26.047 14.8781C26.0616 14.8853 26.8681 14.8053 27.8418 14.7035C29.4331 14.529 29.9127 14.5071 32.3106 14.5071C34.6067 14.4999 35.2316 14.5217 36.5977 14.6671C37.4769 14.7544 38.3198 14.849 38.4724 14.8708L38.7558 14.9144L38.1963 13.838C37.8838 13.2416 37.4624 12.427 37.2517 12.027C37.0409 11.627 36.4378 10.4633 35.9074 9.44508C35.377 8.42685 34.7811 7.27771 34.5777 6.89951C34.3815 6.52131 34.0618 5.91037 33.8728 5.55399C33.5967 5.02306 33.4659 4.85578 33.1898 4.6594C32.8846 4.46303 32.7756 4.42667 32.3905 4.42667C32.049 4.42667 31.8819 4.4703 31.6421 4.60849ZM32.6376 7.89592C32.812 8.28866 33.0081 8.73959 33.0881 8.8996L33.2189 9.1978L34.3233 9.39417C34.9264 9.50327 35.4424 9.60509 35.4569 9.62691C35.5005 9.67055 35.1226 10.1288 34.4614 10.827C34.1199 11.1906 33.9528 11.4306 33.9455 11.547C33.9455 11.6488 34.0327 12.1143 34.1344 12.587C34.2434 13.0598 34.3088 13.4671 34.287 13.4889C34.2652 13.5107 33.7929 13.2998 33.2407 13.0162L32.2306 12.5143L31.2933 13.0162C30.7774 13.2925 30.3487 13.5035 30.3269 13.4889C30.3123 13.4671 30.3777 12.9289 30.4649 12.2816L30.6321 11.1106L29.8546 10.3397C29.4259 9.91783 29.0916 9.55418 29.1134 9.53236C29.1352 9.51054 29.2587 9.48145 29.3823 9.47417C29.9054 9.41599 30.9445 9.29235 31.1334 9.25598C31.3514 9.21234 31.4677 9.00142 32.0199 7.67773C32.1289 7.40862 32.2452 7.19043 32.2742 7.19043C32.3033 7.19043 32.4704 7.51045 32.6376 7.89592Z" fill="black"></path> <path d="M31.8738 15.46C29.1344 15.5837 27.1361 15.751 26.2787 15.9182C26.0825 15.9619 25.3632 16.0928 24.6801 16.2164C23.1106 16.4928 21.8681 16.8056 19.9934 17.3947C18.4456 17.882 18.1477 17.9911 16.6872 18.5947C13.7225 19.8239 9.75513 22.1294 7.91676 23.6932C7.8223 23.7659 7.43718 24.0859 7.05933 24.3914C6.68149 24.6968 6.10745 25.1841 5.78773 25.4678C5.13376 26.0496 3.35352 27.8533 3.35352 27.9334C3.35352 27.9624 3.80403 28.4206 4.349 28.9516C4.90124 29.4825 6.21644 30.7989 7.27006 31.8681L9.18836 33.8173L10.1039 32.9227C11.3029 31.7444 11.6952 31.4026 12.8724 30.508C15.8952 28.217 18.5183 26.8278 22.2459 25.5551C25.4286 24.4786 28.6693 23.9695 32.3824 23.9695C36.8294 23.9695 40.3027 24.6387 44.6698 26.3405C46.3047 26.9806 48.8551 28.3334 50.1849 29.2643C51.006 29.8389 51.4202 30.1298 51.4565 30.1735C51.4783 30.1953 51.7689 30.4207 52.1105 30.6753C52.9606 31.3226 53.5928 31.8754 54.6391 32.9009C55.1332 33.3809 55.5547 33.7809 55.5838 33.7882C55.6128 33.7954 55.9471 33.4682 56.3249 33.0536C56.7028 32.639 57.9889 31.3299 59.1806 30.1371C60.365 28.9516 61.3387 27.9406 61.3387 27.8897C61.3387 27.7152 58.919 25.3369 58.0906 24.6968C57.9816 24.6096 57.8508 24.5077 57.8072 24.4641C57.7636 24.4277 57.6183 24.3114 57.4875 24.2095C57.3567 24.1077 56.9716 23.8022 56.6374 23.5331C55.6782 22.7549 53.8544 21.5476 52.4738 20.7767C52.3357 20.6967 52.0305 20.5148 51.8053 20.3839C51.4638 20.173 50.2575 19.5766 49.0586 19.0238C48.5136 18.7693 46.7479 18.042 46.3337 17.8965C44.3646 17.2056 41.4435 16.4128 40.121 16.2092C39.9031 16.1728 39.2491 16.0637 38.6678 15.9619C37.4325 15.751 35.6305 15.5764 33.9447 15.5182C33.2834 15.4964 32.6513 15.4673 32.5278 15.4528C32.4115 15.4455 32.1136 15.4455 31.8738 15.46ZM32.7457 18.4784C32.7385 18.7111 32.7312 19.5184 32.7239 20.2821L32.7094 21.664H32.1572H31.5977L30.8274 20.9512C30.406 20.5657 29.9773 20.1803 29.8828 20.1003L29.7084 19.9548L29.7593 20.8348L29.8174 21.7149L29.534 21.7585C29.3814 21.7876 29.1199 21.8094 28.9527 21.8094C28.6911 21.8094 28.6403 21.7876 28.6112 21.6421C28.5385 21.3221 28.2697 18.3038 28.2988 18.2674C28.3206 18.2456 28.6039 18.2165 28.9237 18.1947L29.505 18.1511L29.8901 18.4711C30.1008 18.6456 30.2897 18.8057 30.3115 18.8275C30.4859 19.0093 31.3942 19.773 31.4378 19.773C31.4669 19.773 31.4814 19.402 31.4741 18.9511C31.4669 18.5075 31.4596 18.1074 31.4669 18.0783C31.4741 18.0493 31.7575 18.0347 32.1136 18.042L32.7457 18.0638V18.4784ZM37.5778 18.3984C38.1591 18.4711 38.8785 18.5802 39.1764 18.6311L39.7214 18.7257L39.6996 19.082C39.6923 19.2784 39.656 19.4675 39.6197 19.5039C39.5906 19.533 39.2709 19.5111 38.9148 19.453C38.4934 19.3802 38.2609 19.3657 38.2318 19.4093C38.2027 19.453 38.1083 19.9984 38.0211 20.6312C37.9266 21.2567 37.8249 21.8385 37.7958 21.9258C37.7377 22.0713 37.7232 22.0713 37.0619 21.9767C36.6913 21.9185 36.3789 21.8676 36.3644 21.8603C36.3571 21.8458 36.4152 21.2349 36.4952 20.5076C36.5751 19.773 36.6259 19.162 36.6114 19.1475C36.5969 19.1329 36.3426 19.1038 36.0446 19.082C35.1654 19.0093 35.209 19.0384 35.2454 18.5656L35.2671 18.1511L35.8993 18.202C36.2408 18.2311 36.9965 18.3184 37.5778 18.3984ZM27.1434 18.6238C27.2379 19.1693 27.5576 21.8967 27.5285 21.9258C27.4922 21.9622 26.1552 22.1876 26.1334 22.1585C26.0971 22.1149 25.523 18.6529 25.5521 18.6238C25.5884 18.5875 26.6638 18.4056 26.9036 18.3984C27.0708 18.3911 27.1071 18.4275 27.1434 18.6238ZM24.8327 19.0966C24.8545 19.2929 24.8836 19.4748 24.8836 19.5184C24.8909 19.5548 24.6075 19.6421 24.2514 19.7148C23.8954 19.7875 23.5902 19.8602 23.5684 19.8821C23.5321 19.9112 23.7646 21.0312 24.0189 22.1149C24.077 22.3476 24.0988 22.5513 24.0698 22.5658C23.9026 22.6749 22.7328 22.9077 22.6892 22.8422C22.6674 22.7986 22.5002 22.2094 22.3186 21.5258C22.1369 20.8421 21.9553 20.2821 21.9117 20.2821C21.8681 20.2821 21.5629 20.3621 21.2286 20.4639C20.8944 20.5657 20.611 20.6457 20.6037 20.6457C20.5383 20.6457 20.3494 19.8966 20.4003 19.8457C20.5165 19.7366 22.8127 19.1329 24.2078 18.842C24.7746 18.7184 24.7819 18.7184 24.8327 19.0966ZM42.2864 19.3002C43.1511 19.5257 43.885 19.7293 43.9213 19.7657C43.9795 19.8239 43.8559 20.4057 43.7615 20.5148C43.7324 20.5439 43.3255 20.4566 42.8459 20.3257C42.3663 20.1948 41.9522 20.1003 41.9231 20.1294C41.9013 20.1512 41.865 20.253 41.8504 20.3475C41.8286 20.5076 41.8722 20.5366 42.5189 20.7185C42.8968 20.8276 43.2092 20.9439 43.202 20.9803C43.202 21.0167 43.1584 21.2058 43.1075 21.3949C43.0348 21.6567 42.984 21.7367 42.8968 21.7003C42.7587 21.6494 41.7124 21.373 41.647 21.373C41.6179 21.373 41.5598 21.4967 41.5162 21.6421C41.429 21.9185 41.4798 22.0203 41.7051 22.0276C41.8068 22.0276 43.122 22.3913 43.1584 22.4276C43.1947 22.4567 43.013 23.0677 42.9476 23.1404C42.9113 23.1913 39.9321 22.5004 39.8377 22.4204C39.8086 22.3985 39.9103 21.8967 40.3172 19.9548C40.5352 18.8929 40.5352 18.9002 40.6297 18.9002C40.6733 18.9002 41.4144 19.082 42.2864 19.3002ZM45.6289 20.3112L46.2465 20.5366L46.4355 21.0967C46.5372 21.4021 46.6462 21.6712 46.668 21.7003C46.6898 21.7222 46.9368 21.6058 47.213 21.4458C47.4891 21.2858 47.7434 21.1549 47.787 21.1549C47.9323 21.1549 49.4219 21.8385 49.3711 21.8822C49.3347 21.9113 49.0659 22.0349 48.768 22.1731C47.4164 22.7695 47.3002 22.8349 47.3438 22.944C47.5472 23.4822 48.005 25.155 47.9469 25.155C47.9323 25.155 47.6417 25.0314 47.3074 24.8714C46.9732 24.7187 46.6462 24.5732 46.5808 24.5514C46.5081 24.5296 46.4064 24.2823 46.2974 23.9041C46.2029 23.5768 46.1085 23.2713 46.0794 23.2422C46.0504 23.2131 45.8178 23.315 45.5635 23.4822C45.3092 23.6422 45.0549 23.795 44.9967 23.8241C44.895 23.8677 43.3909 23.4168 43.3909 23.3368C43.3909 23.3004 44.3282 22.7258 45.1203 22.2749C45.2438 22.2022 45.3528 22.1004 45.3528 22.0494C45.3528 21.9767 45.0258 21.1476 44.5753 20.0712C44.5172 19.9403 44.8151 20.0057 45.6289 20.3112ZM19.9934 20.6385V21.0603L19.4121 21.1039C18.7944 21.1403 18.2858 21.3294 18.2858 21.5185C18.2858 21.5985 18.3512 21.6203 18.5038 21.6131C18.6273 21.5985 19.0633 21.584 19.4847 21.5767C20.1169 21.5549 20.2913 21.5767 20.4511 21.6858C20.7345 21.8676 20.8653 22.1076 20.9162 22.5295C20.9525 22.8422 20.9307 22.9368 20.7927 23.1477C20.3421 23.795 18.8744 24.3695 18.0169 24.2386L17.7408 24.1877V23.7732V23.3513L18.4166 23.3222C19.165 23.2931 19.5937 23.1186 19.5937 22.8568C19.5937 22.704 19.6083 22.704 18.4965 22.7913C17.9007 22.8422 17.7989 22.8349 17.5083 22.6895C17.1377 22.5149 16.9415 22.1804 16.9415 21.7294C16.9415 21.4749 16.9924 21.3876 17.3266 21.053C17.8571 20.5221 18.6273 20.2384 19.5792 20.2166L19.9934 20.2094V20.6385ZM16.164 22.6095C16.5564 23.4822 16.6073 23.6422 16.6073 24.0641C16.6073 24.6096 16.5128 24.835 16.0841 25.2787C15.4229 25.9624 14.1658 26.4715 13.4246 26.3624C12.8433 26.2751 12.5381 25.9914 11.8842 24.9296C11.5499 24.3986 11.2956 23.9404 11.3174 23.9113C11.3537 23.8459 12.6108 23.1186 12.6762 23.1186C12.698 23.1186 12.9014 23.4531 13.134 23.8604C13.9333 25.315 14.035 25.4023 14.5945 25.1914C14.9651 25.0459 15.1976 24.7768 15.1976 24.4932C15.1976 24.3768 14.9869 23.8532 14.7253 23.3368C14.4637 22.8204 14.253 22.3695 14.253 22.3331C14.253 22.2676 15.5682 21.5912 15.6626 21.6203C15.6917 21.6276 15.9242 22.0713 16.164 22.6095ZM52.125 23.2422L52.7136 23.5841L52.6627 25.0387C52.6191 26.4715 52.5246 27.5261 52.452 27.5988C52.4302 27.6206 52.1468 27.4824 51.8271 27.286C51.2458 26.9369 51.2458 26.9369 51.2385 26.6315C51.2385 26.326 51.2385 26.3187 50.679 25.9914C49.9451 25.5623 49.8216 25.5332 49.6036 25.7369L49.4292 25.8969L48.8116 25.5842C48.47 25.4096 48.1866 25.2423 48.1866 25.2132C48.1866 25.1041 51.3184 22.9004 51.471 22.9004C51.5074 22.9004 51.798 23.0531 52.125 23.2422ZM10.0603 25.7078C11.0994 26.2242 12.7271 27.1406 12.7271 27.206C12.7271 27.2715 11.6589 27.9915 11.5572 27.9915C11.5136 27.9915 11.3901 27.9406 11.2738 27.8752C11.0776 27.7588 11.0631 27.7588 10.7216 27.9915C10.5254 28.1225 10.2274 28.3479 10.0531 28.4861C9.75513 28.7261 9.7406 28.7479 9.7842 29.0461C9.82053 29.2716 9.806 29.3661 9.73334 29.388C9.68247 29.4098 9.42815 29.5989 9.1811 29.8098C8.92678 30.0207 8.70879 30.1735 8.68699 30.1516C8.60706 30.0716 8.00395 26.5878 8.00395 26.2024C8.00395 26.1151 9.06484 25.3078 9.18836 25.3005C9.21743 25.3005 9.60981 25.4823 10.0603 25.7078ZM56.0343 25.7223C56.6882 26.0496 57.7927 27.206 57.6619 27.417C57.6183 27.4897 57.0879 27.7733 57.0007 27.7733C56.9716 27.7733 56.8626 27.657 56.7682 27.5188C56.5356 27.177 56.1215 26.7697 55.8671 26.6387C55.6927 26.5442 55.6637 26.5442 55.6274 26.6387C55.5983 26.7115 55.7509 26.9515 56.0197 27.2788C56.8263 28.2679 56.928 28.7843 56.4194 29.3152C55.8381 29.9189 54.7191 29.5916 53.6945 28.5152C53.3457 28.1515 52.9969 27.6424 53.0696 27.5988C53.0841 27.5915 53.2295 27.4751 53.3893 27.3515C53.5565 27.2206 53.7236 27.1188 53.7599 27.1188C53.789 27.1188 53.8834 27.2424 53.9634 27.3879C54.2903 27.9915 54.8281 28.5006 55.1405 28.5006C55.4239 28.5006 55.3367 28.2679 54.8353 27.6933C54.2758 27.0533 54.0942 26.6242 54.2104 26.1951C54.4066 25.4605 55.1405 25.2714 56.0343 25.7223Z" fill="black"></path> <path d="M51.0213 24.6458C50.8033 24.813 50.6144 24.9658 50.5999 25.0021C50.5853 25.0531 51.232 25.4458 51.3337 25.4458C51.3846 25.4458 51.4791 24.5367 51.4427 24.4276C51.4282 24.3839 51.2466 24.4785 51.0213 24.6458Z" fill="black"></path> <path d="M9.3125 26.8423C9.31977 26.9805 9.51596 27.7805 9.55229 27.8242C9.57409 27.8387 9.75574 27.7369 9.96647 27.5842L10.337 27.3151L9.85747 27.0387C9.31977 26.7187 9.3125 26.7187 9.3125 26.8423Z" fill="black"></path> <path d="M31.33 24.9076C28.2272 25.0313 25.0301 25.6131 22.3924 26.5223C21.4332 26.8568 20.4014 27.2423 20.0308 27.4023C19.9509 27.4387 19.7765 27.5114 19.6457 27.555C19.3841 27.6569 19.3405 27.7296 18.3596 29.6279C18.0471 30.2243 17.6402 31.0097 17.4513 31.3734C17.2624 31.7298 16.6593 32.8935 16.107 33.9553C14.7628 36.5518 14.2759 37.4755 13.9998 37.9919C13.869 38.2319 13.5057 38.9374 13.186 39.5556C12.3576 41.1557 9.87254 45.9341 9.44383 46.7487C8.6518 48.2542 7.78711 49.9343 7.78711 49.9852C7.78711 50.007 18.8537 50.0288 32.3836 50.0288C47.6574 50.0288 56.98 49.9997 56.98 49.9634C56.98 49.9197 56.8856 49.7161 56.7766 49.5051C56.6603 49.2942 56.3115 48.6251 55.9991 48.0287C55.6866 47.4251 55.2797 46.6396 55.0908 46.2832C54.9019 45.9195 54.4804 45.1049 54.1462 44.4649C53.8119 43.8249 52.9908 42.2394 52.3078 40.9375C50.9999 38.4283 50.4549 37.3882 49.6992 35.9191C48.5002 33.6135 48.2605 33.1626 47.4248 31.5552C46.9307 30.617 46.284 29.3733 45.9861 28.7915C45.3612 27.5914 45.4702 27.6787 44.0097 27.1187C42.6 26.5732 41.0886 26.0859 40.0495 25.8459C39.4319 25.7077 38.7925 25.5549 38.6326 25.5186C37.0267 25.1258 33.3936 24.8276 31.33 24.9076ZM32.8195 27.3078C33.1829 28.0714 33.2119 28.6387 33.0375 30.9007C32.8704 33.068 32.8195 34.9227 32.9213 35.6281C33.132 37.09 33.5898 38.5665 34.2946 40.0138C34.6289 40.7047 34.6434 40.7193 34.8468 40.6829C35.3628 40.5884 35.6316 40.4793 35.8714 40.2756C36.6416 39.5992 36.1403 38.3192 35.1012 38.3192C34.8977 38.3192 34.8832 38.3046 34.9268 38.0792C34.9486 37.9555 34.9994 37.5482 35.0358 37.1919C35.4863 32.7844 35.7333 31.7225 36.6126 30.4352C37.1721 29.6133 38.1821 28.6533 38.8724 28.2896L39.0322 28.2023L39.0177 36.37C38.9959 43.5703 38.9814 44.5376 38.8869 44.5449C38.8288 44.5522 37.9932 44.5595 37.034 44.5667L35.2828 44.574L35.1811 45.0249C35.0503 45.6213 34.4835 46.7487 34.0403 47.2941C33.8514 47.5341 33.4445 47.9414 33.1465 48.2033C32.8486 48.4578 32.5362 48.7633 32.4635 48.8651L32.3254 49.0542L31.9476 48.6906C31.7441 48.4869 31.359 48.1087 31.0829 47.8469C30.3417 47.1341 29.8549 46.3486 29.5279 45.3595L29.2663 44.5376H27.4061H25.5532L25.5314 36.37C25.5242 31.8825 25.5387 28.2096 25.5605 28.2096C25.5896 28.2096 25.8221 28.3551 26.0909 28.5369C27.0283 29.1551 27.9003 30.1443 28.4234 31.1916C28.8449 32.028 29.0483 32.828 29.2227 34.2826C29.3027 35.0027 29.4407 36.0791 29.5206 36.6755C29.5933 37.2646 29.6587 37.8755 29.6587 38.0283C29.6587 38.2901 29.6514 38.3046 29.3608 38.341C28.9902 38.3919 28.6124 38.6465 28.467 38.9519C28.2272 39.4538 28.3798 40.1083 28.8013 40.3847C29.0338 40.5375 29.8767 40.7484 29.9494 40.6684C30.1019 40.5084 30.6905 39.2138 30.9521 38.4646C31.2936 37.4828 31.4172 37.0464 31.5915 36.21C31.7587 35.4245 31.7587 33.388 31.5915 31.337C31.4244 29.2424 31.439 28.2169 31.6497 27.6205C31.7441 27.3587 31.9258 26.9877 32.0493 26.7986L32.2891 26.4568L32.4635 26.6968C32.5652 26.8277 32.7251 27.1041 32.8195 27.3078Z" fill="black"></path> <path d="M37.6806 30.8571C37.3609 31.2862 36.9685 32.079 36.7868 32.6754C36.6633 33.0827 36.4308 34.69 36.1619 37.0901C36.1256 37.4174 36.1329 37.432 36.4162 37.6211C36.7505 37.8393 37.0993 38.2902 37.2155 38.6538C37.2955 38.8866 37.3173 38.9011 37.6224 38.9011H37.9422V34.7191C37.9422 32.4208 37.9349 30.5371 37.9276 30.5371C37.9131 30.5444 37.8041 30.6826 37.6806 30.8571Z" fill="black"></path> <path d="M26.6209 34.7335L26.6427 38.8646L26.9769 38.8865C27.3039 38.9083 27.3112 38.9083 27.3911 38.6246C27.4856 38.3046 27.9434 37.7519 28.234 37.5991C28.4956 37.4537 28.4956 37.4391 28.1323 34.5372C27.9724 33.3007 27.8925 32.8862 27.689 32.3189C27.4711 31.7225 26.8171 30.6097 26.679 30.6097C26.6282 30.6097 26.6136 31.9116 26.6209 34.7335Z" fill="black"></path> <path d="M32.2075 38.4137C32.1639 38.5301 32.1276 38.6465 32.1276 38.6755C32.1276 38.7846 31.5463 40.0865 31.2992 40.5447L31.0449 41.0029L31.2992 41.0829C31.4373 41.1266 31.7207 41.3084 31.9387 41.483L32.3238 41.803L32.5345 41.5848C32.6508 41.4684 32.9124 41.2866 33.1303 41.1775C33.3411 41.0757 33.5009 40.9738 33.4937 40.9448C33.4791 40.9229 33.3047 40.5593 33.094 40.1374C32.8906 39.7156 32.6217 39.1119 32.5054 38.7919C32.2947 38.2246 32.2875 38.2173 32.2075 38.4137Z" fill="black"></path> <path d="M26.6563 40.0357C26.6273 40.0648 26.6055 40.8357 26.6055 41.7521V43.4104H27.9134H29.2213V42.9886C29.2213 42.7631 29.2722 42.3994 29.3231 42.1958C29.3812 41.9849 29.403 41.7958 29.3812 41.7812C29.3521 41.7667 29.1341 41.7012 28.8944 41.6285C28.2186 41.4394 27.739 41.0321 27.4338 40.3848C27.274 40.0502 27.2376 40.0211 26.9833 40.0066C26.8307 39.9921 26.6854 40.0139 26.6563 40.0357Z" fill="black"></path> <path d="M37.2162 40.3193C36.9328 40.9812 36.2715 41.5121 35.5522 41.6721C35.2107 41.7449 35.1743 41.7667 35.2179 41.9121C35.2397 41.9922 35.2979 42.3704 35.3487 42.734L35.4287 43.4104H36.6857H37.9428L37.9283 41.7158L37.9065 40.0284L37.6304 40.0139C37.3688 39.9993 37.347 40.0139 37.2162 40.3193Z" fill="black"></path> <path d="M30.5014 42.094C30.4578 42.1594 30.3198 43.0686 30.3125 43.2795C30.3125 43.3959 30.3924 43.4104 31.0464 43.4104H31.7803L31.7294 43.2068C31.635 42.8067 31.417 42.494 31.0827 42.2613C30.7267 42.0212 30.5668 41.9776 30.5014 42.094Z" fill="black"></path> <path d="M33.691 42.1449C33.364 42.3122 33.1388 42.5449 32.9934 42.8649C32.7464 43.3959 32.7609 43.4104 33.582 43.4104C33.9817 43.4104 34.3086 43.3886 34.3086 43.3522C34.3014 43.2213 34.1561 42.2685 34.1197 42.1522C34.0689 41.9994 33.9744 41.9994 33.691 42.1449Z" fill="black"></path> <path d="M30.6183 44.5596C30.4875 44.5814 30.4657 44.6177 30.5021 44.7778C30.6256 45.3305 31.5121 46.8869 31.7155 46.9015C31.7446 46.9015 31.7664 46.3778 31.7664 45.7378V44.5741L31.4612 44.5668C31.2868 44.5668 31.0688 44.5596 30.9671 44.545C30.8654 44.5377 30.7128 44.5377 30.6183 44.5596Z" fill="black"></path> <path d="M33.1679 44.5596L32.8555 44.5814V45.7596L32.8627 46.9379L33.1171 46.6469C33.5458 46.1669 34.0253 45.2141 34.1053 44.7196C34.1271 44.5741 34.0907 44.5596 33.8001 44.5523C33.6184 44.545 33.335 44.545 33.1679 44.5596Z" fill="black"></path> <path d="M16.7241 29.0678C16.259 29.3369 15.7722 29.6351 15.6341 29.7369C15.4961 29.8388 15.2345 30.0133 15.0456 30.137C14.6241 30.4133 14.2317 30.6897 13.8466 30.9952C13.6795 31.1188 13.3816 31.3516 13.1781 31.5043C12.7421 31.8316 12.546 32.1589 11.2743 34.6463C10.7802 35.6063 10.3079 36.5082 10.2207 36.6464C10.1335 36.7845 10.0318 36.9809 10.0027 37.0755C9.97368 37.1773 9.82835 37.4537 9.67576 37.6937C9.53043 37.941 9.37058 38.2464 9.32698 38.3846C9.27611 38.5228 9.14532 38.7846 9.02906 38.9665C8.9128 39.1483 8.68754 39.5629 8.52768 39.8829C8.36782 40.2029 8.06991 40.792 7.85918 41.192C7.64846 41.592 7.43047 42.0139 7.37234 42.1375C7.31421 42.2539 7.23428 42.4212 7.18342 42.5012C7.13982 42.5812 6.95089 42.9376 6.76197 43.3012C6.57305 43.6576 6.24606 44.2976 6.02081 44.7195C5.80282 45.1413 5.5485 45.6286 5.45403 45.8104C5.27238 46.1741 5.29418 46.1304 4.74194 47.1923C4.52395 47.6141 4.1897 48.2469 4.00804 48.6105C3.81911 48.9669 3.5212 49.5415 3.33954 49.8833C2.82363 50.8579 2.30046 51.8543 2.12606 52.2107C1.82815 52.7926 0.847193 54.6617 0.687334 54.9381C0.563807 55.1418 0.251356 56.1018 0.120562 56.6837C-0.00296534 57.1928 -0.0392969 58.3055 0.0478988 58.7928C0.135095 59.2729 0.374883 60.1238 0.491144 60.342C0.542008 60.4511 0.592872 60.582 0.592872 60.6257C0.592872 60.6766 0.745465 60.9675 0.934389 61.2802C1.44303 62.1094 2.46031 63.0912 3.18695 63.4476C4.37862 64.0294 3.51393 63.9931 15.0092 63.9931H25.2402L25.1966 63.7894C25.1094 63.404 25.0004 62.4148 24.9495 61.5566L24.8987 60.6838L14.7985 60.6475C8.73841 60.6257 4.64021 60.582 4.55301 60.5456C4.1679 60.3638 3.63746 59.9711 3.44853 59.7238C3.12881 59.3238 3.01255 59.0619 2.88176 58.4801C2.7001 57.6801 2.83816 57.0546 3.49213 55.8254C3.76825 55.2945 4.21876 54.4217 4.50215 53.8835C4.77827 53.3453 5.19245 52.5525 5.4177 52.1162C6.35506 50.327 6.63118 49.7961 7.11075 48.8651C8.1789 46.8068 8.54222 46.1086 8.98546 45.2649C9.23252 44.7849 9.67576 43.934 9.96641 43.3739C10.2571 42.8139 10.6422 42.0793 10.8238 41.7375C11.0055 41.3957 11.3761 40.6756 11.6595 40.1374C12.6041 38.3192 13.0255 37.5046 14.2899 35.0826C14.5442 34.6026 14.9802 33.7517 15.2708 33.1917C15.5615 32.6316 15.9539 31.8752 16.1428 31.5188C16.3317 31.1552 16.7241 30.4061 17.0147 29.846C17.3054 29.286 17.567 28.7987 17.6033 28.7551C17.6832 28.6751 17.6905 28.5733 17.6178 28.5805C17.5815 28.5805 17.1819 28.806 16.7241 29.0678Z" fill="black"></path> <path d="M47.1682 28.6388C47.1682 28.7043 47.6623 29.6861 48.4253 31.1189C48.5633 31.3807 48.9557 32.1444 49.3118 32.8281C49.6606 33.5045 50.1038 34.3554 50.2927 34.7191C50.7578 35.5991 51.4481 36.9228 52.0221 38.0283C52.2764 38.5302 52.6833 39.3157 52.9231 39.7739C53.1702 40.2321 53.5698 41.003 53.8169 41.483C54.0712 41.9631 54.4636 42.7122 54.6888 43.1558C54.9214 43.5922 55.1757 44.0868 55.2556 44.2468C55.3355 44.4068 55.8297 45.3523 56.3528 46.356C56.8833 47.3524 57.4282 48.3997 57.5736 48.6834C57.7189 48.9597 57.9877 49.4834 58.1767 49.8471C58.3656 50.2034 58.7434 50.9235 59.0123 51.4471C59.2811 51.9635 59.6881 52.749 59.9206 53.1927C61.4029 56.0146 61.8389 56.9165 61.9261 57.3965C62.1513 58.6038 61.5482 59.8257 60.451 60.4075L60.0659 60.6112L49.7695 60.633C39.931 60.6476 39.4659 60.6548 39.4659 60.7785C39.4659 61.484 39.2334 63.6077 39.1317 63.8841C39.0953 63.9786 40.2434 63.9932 49.537 63.9932C56.3165 63.9932 60.1095 63.9641 60.3202 63.9132C60.8434 63.7968 61.5846 63.4986 61.9624 63.244C62.5655 62.844 63.5392 61.8258 63.8662 61.2439C64.0333 60.9458 64.1714 60.6694 64.1714 60.6257C64.1714 60.5748 64.2222 60.4439 64.2804 60.3348C64.6364 59.6439 64.8544 58.262 64.7454 57.3238C64.651 56.4365 64.3022 55.3019 63.9389 54.6764C63.8371 54.5018 63.6046 54.0582 63.4302 53.7018C63.2486 53.3381 62.9579 52.7854 62.7908 52.4654C62.4856 51.8981 62.0859 51.1344 61.3593 49.738C60.996 49.047 60.7998 48.6615 60.6545 48.3924C60.5455 48.1888 59.8479 46.8142 59.5573 46.2469C59.4265 45.9851 59.223 45.6069 59.1068 45.4105C58.9905 45.2068 58.8524 44.9305 58.7943 44.7923C58.7434 44.6541 58.6417 44.4577 58.5763 44.3559C58.5037 44.2541 58.1403 43.5704 57.7552 42.8285C57.0286 41.403 56.6071 40.5957 55.7425 38.9375C54.1075 35.81 53.5771 34.7845 53.41 34.4282C53.33 34.2681 53.2283 34.0718 53.1774 33.9918C53.1339 33.9118 52.9813 33.6354 52.8505 33.3736C52.7124 33.1117 52.5017 32.7117 52.3709 32.479C52.2474 32.2462 52.1166 31.9917 52.0802 31.9189C52.0366 31.8462 51.9131 31.7371 51.8041 31.6644C51.6879 31.5989 51.4553 31.4244 51.2882 31.2789C50.5688 30.6607 49.0865 29.657 48.1128 29.1188C47.6914 28.8934 47.3063 28.6679 47.2627 28.6315C47.1973 28.5806 47.1682 28.5806 47.1682 28.6388Z" fill="black"></path> <path d="M4.81483 31.3734C4.68403 31.5552 4.48058 31.8025 4.36432 31.9334C4.07366 32.2607 2.71486 34.1808 2.35881 34.7554C1.37786 36.3482 0.0844591 38.7847 0.0844591 39.0392C0.0844591 39.1411 0.0408612 39.1483 0.789291 38.9665C1.74118 38.7483 2.7294 38.5519 3.49963 38.4428C4.11 38.3483 4.34978 38.3337 5.20721 38.2901C5.46153 38.2828 5.57052 38.4647 5.83938 39.3738L6.01377 39.9484L6.33349 39.3738C6.51514 39.0538 6.68227 38.7192 6.70407 38.6319C6.73313 38.5447 6.82033 38.3774 6.90752 38.261C6.98745 38.1446 7.3653 37.4464 7.73588 36.7119C8.11373 35.9773 8.50611 35.2209 8.60784 35.039L8.80403 34.7118L6.98745 32.8935C5.9847 31.8971 5.14181 31.0752 5.11275 31.068C5.08368 31.0607 4.95289 31.1989 4.81483 31.3734Z" fill="black"></path> <path d="M58.6161 32.1226C58.0566 32.7044 57.2428 33.5408 56.8141 33.9772L56.0293 34.7772L56.1674 35.0391C56.2473 35.1845 56.4217 35.5118 56.5597 35.7736C56.6978 36.0355 57.0393 36.6901 57.3227 37.2283C58.2673 39.0611 58.5943 39.6647 58.6888 39.7593C58.7614 39.8393 58.805 39.7447 58.9358 39.2502C59.1901 38.2465 59.1611 38.2829 59.9676 38.2974C60.7524 38.3192 61.5735 38.4429 63.3683 38.7992C64.0586 38.9374 64.6399 39.0393 64.6617 39.0174C64.7053 38.9738 63.797 37.1264 63.3537 36.3555C62.4527 34.8136 62.1475 34.319 61.5299 33.4535C60.9122 32.5808 59.8078 31.1625 59.6842 31.0971C59.6552 31.0752 59.1756 31.5407 58.6161 32.1226Z" fill="black"></path> <path d="M6.79152 51.8253C6.58806 52.218 6.16661 53.0253 5.86143 53.629C5.54898 54.2254 5.004 55.2727 4.64796 55.9564C3.89953 57.3746 3.7978 57.7092 3.92132 58.2619C4.04485 58.771 4.24104 59.0692 4.64069 59.3311L4.97494 59.5565H16.3322H27.6894L28.7067 59.3456C29.7531 59.1274 30.3925 58.9529 31.3153 58.6256C31.606 58.5237 31.9838 58.4437 32.1509 58.4365C32.3181 58.4365 32.8848 58.5674 33.4007 58.7347C34.7668 59.1638 35.0575 59.2438 35.9294 59.4111C36.6996 59.5565 36.954 59.5565 48.2531 59.5565H59.7847L60.119 59.3456C60.3224 59.2147 60.5331 58.9965 60.6639 58.7783C60.8383 58.4801 60.8674 58.3492 60.8674 57.9128C60.8674 57.3528 60.911 57.4546 59.5595 54.8654C59.3487 54.4654 58.8328 53.4617 58.4041 52.6253L57.6194 51.1198H32.3907H7.1621L6.79152 51.8253ZM55.6793 52.5307C56.2242 52.6471 56.7619 52.8944 56.7619 53.0326C56.7619 53.0762 56.6965 53.3526 56.6093 53.6362L56.4567 54.1599L56.0426 53.9781C55.3523 53.6726 54.5094 53.6581 54.5094 53.9563C54.5094 54.1308 54.6402 54.2035 55.2723 54.3563C56.5948 54.6836 57.1616 55.3672 57.0235 56.4436C56.9363 57.0837 56.6457 57.4546 55.999 57.7528C55.4685 57.9928 54.2914 57.9855 53.6737 57.7383C53.0924 57.5128 52.7582 57.2946 52.8018 57.1564C52.8163 57.0982 52.8963 56.8073 52.9834 56.5164L53.136 55.9854L53.3686 56.1382C53.8263 56.4436 54.2623 56.5964 54.7346 56.6327C55.1125 56.6546 55.236 56.64 55.3305 56.5382C55.6139 56.2618 55.3959 56.0654 54.6184 55.8836C53.5139 55.6363 52.9689 55.1127 52.9253 54.2545C52.8454 52.8944 53.9935 52.1744 55.6793 52.5307ZM9.38559 54.2472C9.38559 55.6582 9.40739 55.9564 9.50912 56.1673C9.76344 56.6982 10.5482 56.8073 10.9188 56.3564C11.1731 56.0509 11.2022 55.8473 11.2022 54.0799V52.5744H12.0741H12.9461V54.1308C12.9461 54.9818 12.9097 55.8545 12.8734 56.0654C12.7136 56.9019 12.2122 57.5128 11.4274 57.8255C11.1077 57.9492 10.8679 57.9855 10.2939 57.9855C9.32746 57.9928 8.78249 57.8037 8.25931 57.2655C7.66347 56.6546 7.61988 56.4727 7.58354 54.3708L7.55448 52.5744H8.47003H9.38559V54.2472ZM15.4893 53.6653C15.4893 54.2617 15.5111 54.7563 15.5474 54.7563C15.5765 54.7563 15.8453 54.3854 16.1433 53.9417C16.4412 53.4981 16.7754 53.0108 16.8917 52.8508L17.0879 52.5744H18.0034H18.919L18.7955 52.7708C18.7228 52.8871 18.3232 53.4471 17.9017 54.0217C17.1823 55.0109 17.146 55.0763 17.2405 55.2363C17.2986 55.3236 17.6837 55.8327 18.1124 56.3709C18.5339 56.9019 18.9699 57.4619 19.0788 57.6073L19.2823 57.8837H18.2432H17.1969L16.4121 56.7928C15.9761 56.1891 15.591 55.7018 15.5547 55.7018C15.5184 55.7018 15.4893 56.1745 15.4893 56.7928V57.8837H14.6173H13.7454V55.229V52.5744H14.6173H15.4893V53.6653ZM23.1044 52.7489C24.1725 53.2071 24.3905 54.6981 23.504 55.4836L23.177 55.7673L23.7801 56.6837C24.1144 57.1855 24.4051 57.5928 24.4341 57.5928C24.4632 57.5928 24.5722 57.3746 24.6812 57.0982C24.7829 56.8291 24.9864 56.3491 25.1172 56.0291C25.3061 55.5782 26.2798 53.229 26.5123 52.6617C26.5413 52.6035 26.7739 52.5744 27.3406 52.5744C27.7766 52.5744 28.1327 52.5817 28.1327 52.5962C28.1327 52.618 28.3361 53.1199 29.1645 55.12C29.4043 55.7018 29.7603 56.56 29.9565 57.0255L30.3053 57.8837H29.4115H28.5251L28.3943 57.4837L28.2707 57.0837H27.3043H26.3452L26.2144 57.4837L26.0908 57.8837H24.2961L22.5013 57.8764L21.9854 56.9164C21.6003 56.2036 21.4331 55.9564 21.3314 55.9564C21.2006 55.9564 21.1933 56.0291 21.1715 56.9164L21.1497 57.8837H20.2851H19.4131V55.2218V52.5598L21.1061 52.5889C22.5376 52.6107 22.8355 52.6326 23.1044 52.7489ZM32.3471 55.229V57.8837H31.4752H30.6032V55.229V52.5744H31.4752H32.3471V55.229ZM35.6533 53.8835L36.6706 55.1854L36.6924 53.8835L36.7069 52.5744H37.4699H38.2328V55.229V57.8837H37.5207H36.8086L36.409 57.3601C36.1983 57.0764 35.9803 56.8073 35.944 56.7637C35.9004 56.72 35.7042 56.4727 35.508 56.2109C35.3118 55.9491 35.0647 55.6291 34.9485 55.4981L34.745 55.2581V56.5746V57.8837H33.982H33.2191V55.229V52.5744H33.9312H34.636L35.6533 53.8835ZM40.776 55.229V57.8837H39.9041H39.0321V55.229V52.5744H39.9041H40.776V55.229ZM45.0632 53.1199C45.2158 53.5199 46.0514 55.5418 46.9233 57.6437L47.0178 57.8837H46.1241H45.2376L45.1068 57.4837L44.9832 57.0837H44.0168H43.0577L42.9269 57.4837L42.8033 57.8837H41.9387H41.0667L41.1321 57.7164C41.1684 57.6292 41.3356 57.2291 41.5027 56.8291C41.6698 56.4291 41.9823 55.6727 42.193 55.1563C42.4037 54.6327 42.7016 53.9126 42.8469 53.5562C42.9923 53.1926 43.1449 52.8289 43.1812 52.7344C43.2393 52.5744 43.2684 52.5671 44.0532 52.5889L44.867 52.6107L45.0632 53.1199ZM49.423 53.4544C49.8008 53.9417 50.2586 54.5381 50.4402 54.7781L50.7672 55.2072L50.789 53.8908L50.8036 52.5744H51.5665H52.3295V55.229V57.8837H51.6246L50.9126 57.8764L50.6437 57.5346C50.4984 57.3455 50.0333 56.7564 49.6119 56.2255L48.8417 55.2509V56.5673V57.8837H48.0787H47.3157V55.229V52.5744H48.0278H48.7327L49.423 53.4544Z" fill="black"></path> <path d="M21.1562 54.2835V54.9017H21.5486C22.0936 54.9017 22.2825 54.7417 22.2825 54.2835C22.2825 53.8253 22.0936 53.6653 21.5486 53.6653H21.1562V54.2835Z" fill="black"></path> <path d="M27.0194 55.2291L26.7578 55.9928H27.2955C27.5934 55.9928 27.8405 55.971 27.8405 55.9419C27.8405 55.8546 27.3827 54.5818 27.3318 54.5164C27.3028 54.4873 27.1647 54.8073 27.0194 55.2291Z" fill="black"></path> <path d="M43.7396 55.2291L43.4707 55.9928H44.0157C44.3063 55.9928 44.5534 55.9783 44.5534 55.9564C44.5534 55.8837 44.0956 54.5673 44.052 54.5236C44.0229 54.4873 43.8849 54.8073 43.7396 55.2291Z" fill="black"></path> <path d="M31.4012 59.0547C29.9116 59.5784 27.7971 60.0147 25.9297 60.182C25.5663 60.2111 25.3411 60.2693 25.3193 60.3275C25.2611 60.4802 25.5082 63.2658 25.6172 63.6658C25.7698 64.2404 26.1476 65.1495 26.4528 65.7023C26.7653 66.2623 27.6009 67.2587 28.2113 67.8042C29.3811 68.837 31.75 70.1025 32.3022 69.9934C32.7236 69.9061 33.7627 69.4188 34.5039 68.9679C35.4703 68.3788 35.8191 68.1097 36.5094 67.426C37.7083 66.255 38.3478 65.1714 38.7402 63.6658C38.8782 63.1422 39.0308 61.5785 39.0308 60.713V60.2111H38.8201C38.3986 60.2111 36.2187 59.9057 35.3976 59.7311C34.9326 59.6365 34.0461 59.3965 33.4212 59.1929C32.7963 58.9965 32.2295 58.8292 32.1569 58.8365C32.0769 58.8365 31.7427 58.9383 31.4012 59.0547ZM33.1814 59.5856C34.9108 60.1311 36.1243 60.3711 37.9699 60.5384L38.5367 60.5966L38.4931 61.7312C38.4132 63.484 38.1225 64.5822 37.4177 65.7605C37.0616 66.3641 35.6374 67.8406 35.0707 68.197C34.8745 68.3206 34.671 68.4515 34.6347 68.4806C34.4748 68.6042 33.9444 68.8952 33.2904 69.2152C32.3385 69.6807 32.0551 69.6807 31.1105 69.2152C30.4275 68.8733 29.4393 68.306 29.3666 68.2115C29.3448 68.1897 29.185 68.066 29.0033 67.9424C28.5746 67.6515 27.5137 66.5314 27.1649 66.0078C26.3002 64.7059 26.0096 63.6513 25.9006 61.4257L25.857 60.5748H26.0677C26.184 60.5748 26.8161 60.5093 27.4774 60.4293C28.7562 60.2693 30.304 59.9129 31.4593 59.5202C31.8444 59.3893 32.215 59.2874 32.2731 59.3093C32.3313 59.3238 32.7454 59.4474 33.1814 59.5856Z" fill="black"></path> <path d="M31.4375 59.8185C30.0787 60.2839 28.3711 60.6403 26.8525 60.7712L26.293 60.8149L26.3438 61.7022C26.4383 63.4623 26.5982 64.1896 27.1431 65.3096C27.848 66.7497 29.6863 68.3425 31.5247 69.1134C32.1206 69.3607 32.215 69.3607 32.8109 69.1207C34.3804 68.4879 36.1243 67.1133 36.9091 65.8915C37.345 65.2078 37.7011 64.3423 37.8609 63.5641C37.9554 63.1131 38.1153 61.0403 38.0644 60.9094C38.0426 60.8585 37.7011 60.7858 37.207 60.7276C35.5357 60.5385 34.533 60.3276 33.0434 59.8403C32.5565 59.6875 32.1642 59.5566 32.1642 59.5639C32.1642 59.5639 31.8372 59.6803 31.4375 59.8185ZM28.0224 61.5494C28.2621 61.6076 28.7054 61.7967 29.0033 61.964C30.4275 62.7713 30.7981 62.895 31.1977 62.6768C31.4012 62.5677 32.8399 62.5749 33.1742 62.684C33.5593 62.8077 34.0025 62.7204 34.4966 62.4149C35.2959 61.9276 35.9862 61.6004 36.3786 61.5203C36.8945 61.4113 37.316 61.4476 37.345 61.6004C37.3596 61.6949 37.2724 61.724 36.9018 61.7604C36.3641 61.8113 35.9935 61.9931 35.216 62.5895C34.9399 62.8004 34.5693 63.0404 34.3949 63.1204C34.0534 63.2804 34.0461 63.375 34.3804 63.4477C34.8963 63.5641 34.4312 63.9859 33.8863 63.8986C33.7409 63.8695 33.5593 63.8405 33.4794 63.8332C33.3776 63.8186 33.3268 63.8841 33.2541 64.1386C33.2032 64.3205 33.0797 64.655 32.9707 64.8878C32.7673 65.3387 32.7382 65.5933 32.8617 65.826C32.9852 66.0587 32.8109 66.5242 32.542 66.6624C32.2659 66.8006 31.7936 66.7497 31.5974 66.546C31.4521 66.4006 31.4521 66.386 31.4884 65.4478C31.4957 65.3023 31.4157 65.0114 31.2922 64.7569C31.1832 64.5168 31.0669 64.2041 31.0451 64.0659C31.0088 63.8695 30.9652 63.8186 30.8562 63.8332C30.1659 63.935 30.086 63.935 29.9116 63.8186C29.6645 63.6586 29.6791 63.5059 29.9479 63.4477C30.2676 63.375 30.2822 63.2804 29.9915 63.1568C29.8535 63.0986 29.432 62.8295 29.0614 62.5604C28.2985 62.0076 27.7244 61.7458 27.2885 61.7385C26.9469 61.7385 26.8597 61.6876 26.976 61.5422C27.085 61.4185 27.4701 61.4258 28.0224 61.5494Z" fill="black"></path> </g> </svg> 