<?xml version="1.0" encoding="UTF-8"?> <svg xmlns="http://www.w3.org/2000/svg" width="100" height="36" viewBox="0 0 100 36" fill="none"> <g clip-path="url(#clip0)"> <path fill-rule="evenodd" clip-rule="evenodd" d="M29.0869 10.121C30.3841 9.91023 29.7754 12.2446 29.4321 13.1575C28.964 12.0318 28.6168 11.3953 27.812 10.3406C28.2794 10.192 28.6247 10.192 29.0869 10.121ZM19.1546 13.9392H15.6253C15.3539 13.0919 15.6102 12.8797 16.3726 12.8034C17.7979 12.6689 19.0265 12.6689 19.1546 13.9392ZM18.8879 28.0686V25.3922H20.9291L17.8607 34.0979L14.8125 25.3922H16.8531V27.3117C16.8473 27.3043 16.8544 27.489 16.9198 27.5077C17.1899 27.651 17.2513 27.651 17.2474 27.6443L18.8879 28.0686ZM24.9416 33.521C24.9416 33.5244 23.4901 33.6656 22.5709 33.673C21.7229 33.6656 20.3884 33.5244 20.3819 33.521L22.5709 26.5306L24.9416 33.521ZM13.1708 33.673C12.245 33.6656 10.7935 33.5244 10.7993 33.521L13.1708 26.5306L15.3598 33.521C15.3539 33.5244 14.0214 33.6656 13.1708 33.673ZM37.9391 12.3109C37.4644 8.21365 37.1885 7.15087 36.6458 6.23197C36.2084 5.48039 31.7428 3.40301 25.2901 2.05713C22.6356 4.95837 22.6277 6.11084 22.5709 6.59003C22.497 7.08126 23.449 8.29798 24.4101 9.55953C26.1728 11.8892 26.6494 12.3149 26.9162 13.0223C27.4295 14.3521 26.5814 17.3276 25.9708 20.0944C25.9649 20.087 24.382 14.2597 23.649 10.4757C23.5804 10.1224 23.7183 9.91023 23.7144 9.91692C19.7254 9.52005 17.0552 9.34403 16.5707 11.4609C14.7413 11.4656 13.8985 11.997 13.7187 12.3109C13.2407 13.0992 13.8148 14.7483 14.1182 15.5615C14.3738 14.9243 16.0117 15.0301 16.5386 15.0615C16.7721 15.0729 16.7721 15.2074 16.8368 15.3419L16.8531 23.27H12.1593L8.08008 34.3697C9.97291 35.2939 11.9481 35.9993 13.1708 36C14.4026 36 17.4246 34.373 17.8607 34.3697C18.2746 34.373 21.3364 35.9993 22.5709 36C23.7883 36 25.7642 35.3635 27.6609 34.3697L23.5804 23.27H18.8879V15.7663C18.8074 15.2697 18.5923 15.109 18.4086 15.0776H20.7957C20.4505 13.6574 19.9739 12.6689 19.303 12.5993C19.4959 12.3149 19.6417 12.2011 19.917 11.9535H18.0771C18.2746 10.9703 20.6584 11.3237 21.6751 11.3933C22.7317 16.7133 24.7272 23.8589 24.8089 23.9848C24.8939 24.0999 26.5814 24.743 26.7848 24.7645C27.7544 22.6342 29.219 16.3672 29.3033 14.8567C30.5214 15.277 30.0376 16.9408 29.7806 18.5999C28.4037 27.2119 27.3111 29.7953 26.9829 31.3968C28.2023 31.1318 28.964 30.9056 29.0869 30.7684C29.2818 30.573 29.8375 29.116 30.3272 27.5077C31.034 25.176 32.2194 19.239 32.1508 16.904C32.1455 16.3378 31.6826 15.7729 30.8608 15.3419C30.8608 15.348 31.2733 14.6272 31.4708 14.1607C31.7225 13.551 32.0187 12.527 32.0187 12.5317C32.4973 12.6689 32.919 12.8864 32.9805 13.379C33.244 15.6304 33.106 15.8432 32.8327 20.0094C32.7523 21.3392 32.2894 23.9794 31.8199 26.7348C30.9438 31.7897 30.1121 33.9561 30.1121 34.725C31.4047 34.3027 32.3999 33.9761 32.4999 33.8082C32.628 33.5666 33.582 31.1177 34.258 27.4475C34.5496 25.8748 34.7582 24.3187 35.0047 22.7098C35.3506 20.5816 35.4173 18.3824 35.4199 16.5466C35.4199 13.8696 35.7292 13.8562 33.7945 12.8034C34.5372 10.6163 34.3777 9.18809 34.1927 8.77851C33.8592 8.00083 33.4519 8.00083 31.7375 8.13535C32.3593 8.7069 32.1651 9.91023 32.0187 10.6123C31.6826 10.3332 31.8134 9.83861 29.98 9.91692C29.7048 6.86844 29.1582 6.52779 29.0869 6.43677C28.8254 6.09009 27.3111 6.25272 26.8495 6.43677C27.1875 6.65628 27.8715 9.06093 27.5282 9.98451C27.3255 9.69673 24.7422 6.72656 24.9416 6.16438C25.0665 5.82105 25.2176 5.45295 26.1042 4.40088C29.1634 4.95837 34.4045 6.93871 34.6739 7.50691C34.9995 8.19157 35.3009 8.98196 35.484 10.1886C35.7717 11.9394 36.2908 16.1189 36.0319 22.4883C35.7651 29.0658 34.923 32.8016 34.938 32.6022C35.9037 32.2997 37.4795 30.8065 37.6083 30.4799C38.0182 29.3984 38.2111 25.5354 38.3536 21.9964C38.4883 18.46 38.1287 13.9974 37.9391 12.3109Z" fill="#234E76"></path> <path fill-rule="evenodd" clip-rule="evenodd" d="M16.1858 0.737365C18.378 -0.145757 20.5937 0.0133826 21.2121 0.00791857C20.7853 1.37051 18.9803 3.98231 17.0859 4.92895C16.0574 5.43368 14.0266 5.84553 12.758 6.2287C11.2838 6.65557 9.01838 7.41849 7.30149 8.73941C6.09885 9.67034 5.54492 10.9851 5.68475 12.793C6.73613 11.6333 8.97469 10.1908 10.7965 9.60546C10.305 11.274 10.3824 12.6223 9.80961 14.1543C9.45198 15.1282 6.73613 17.473 5.97381 18.6935C5.42258 19.5739 5.13284 21.0321 5.34258 22.3148C5.33855 22.3113 6.04171 21.3948 6.51765 20.8586C7.66785 19.6319 9.88557 18.1225 9.8775 18.1225C9.88557 18.9455 9.53533 22.5285 9.11115 24.0489C8.77638 25.2933 6.5237 27.6476 5.90592 28.304C5.89987 28.2965 6.55261 30.0375 6.94385 31.1808C7.29812 32.1957 7.43257 32.919 7.43795 32.9143C6.66555 32.6295 3.03277 31.1132 1.90274 29.9514C0.62481 28.6305 0.554225 27.149 0.298102 25.557C0.226844 25.0556 -0.0931412 21.9207 0.0265173 21.2923C0.0197949 21.2991 1.92492 22.6214 2.88958 23.7545C3.94096 24.9826 4.70597 26.1382 4.71135 26.1457C4.63404 25.6321 4.53522 25.1916 4.50632 24.8446C4.39674 23.8863 5.01117 23.1781 4.91638 22.9568C4.91638 22.9609 4.84781 22.745 4.57421 22.159C4.03508 21.0546 1.41335 19.1914 0.725646 17.9838C0.41776 17.4948 -0.257167 16.389 0.161637 10.7666C0.161637 10.7666 2.24289 12.9624 3.31578 14.3633C3.98466 15.2648 4.70597 16.6786 4.71135 16.6827C4.49892 14.73 5.26796 13.7287 5.20679 13.7117C5.19536 13.6557 5.06091 12.9344 4.77925 12.4283C3.79979 10.6962 1.46981 9.7284 1.15252 7.66573C0.880261 6.06205 1.56326 4.77664 5.18931 3.3355C5.89987 5.85988 5.48039 8.02568 5.41115 10.0385C7.15561 8.53041 6.94318 4.70356 7.79693 3.3355C8.09473 2.82735 8.49202 2.28846 9.80961 1.74138C11.0425 1.24142 11.7746 0.880112 12.9638 0.737365C12.9396 0.880112 12.2935 3.21051 11.7705 4.33952C11.142 5.71576 10.2835 6.24987 10.2358 6.36666C11.632 6.00467 12.6841 5.35446 13.595 3.97548C13.8988 3.52811 14.2551 3.02952 14.6531 2.40116C15.0127 1.7967 15.404 1.05359 16.1858 0.737365Z" fill="#234E76"></path> <path fill-rule="evenodd" clip-rule="evenodd" d="M99.2017 21.3044C98.6686 20.2324 97.9074 19.3033 96.9214 18.5137C95.934 17.7247 94.09 16.5915 91.3928 15.1129C88.0818 13.3023 85.9849 11.8549 85.1056 10.7693C84.4945 10.03 84.1883 9.21108 84.1883 8.31258C84.1883 7.14066 84.672 6.09389 85.638 5.17431C86.604 4.25473 87.8249 3.79494 89.3033 3.79494C90.6102 3.79494 91.8731 4.13503 93.096 4.81519C94.3169 5.49671 95.2595 6.41697 95.9193 7.57393C96.5791 8.73361 97.0388 10.2905 97.293 12.246H98.0809V2.05713H97.293C97.1516 2.73661 96.9641 3.19028 96.7286 3.41405C96.4951 3.63919 96.1929 3.75005 95.8239 3.75005C95.4957 3.75005 94.9346 3.56981 94.1401 3.20796C92.4209 2.44006 90.7937 2.05713 89.2613 2.05713C86.8022 2.05713 84.7787 2.82095 83.1883 4.34792C81.5958 5.87692 80.8006 7.6984 80.8006 9.81302C80.8006 11.0292 81.0701 12.1453 81.6105 13.1574C82.1489 14.1729 82.9428 15.0992 83.9855 15.9386C85.0309 16.7792 86.7888 17.9049 89.2613 19.3169C91.7317 20.729 93.2454 21.6519 93.8005 22.0872C94.6218 22.7239 95.2295 23.4122 95.6205 24.1509C96.0134 24.8895 96.2062 25.6214 96.2062 26.3451C96.2062 27.6482 95.6925 28.778 94.6631 29.735C93.6317 30.6899 92.2307 31.1681 90.4548 31.1681C88.9204 31.1681 87.5093 30.8212 86.2244 30.1261C84.9382 29.4303 83.9808 28.5569 83.3591 27.5088C82.7326 26.4573 82.2349 24.8752 81.8667 22.7613H81.0781V32.1904H82.0074C82.0928 31.8816 82.1982 31.649 82.3243 31.5163C82.5291 31.2973 82.8113 31.1905 83.1669 31.1905C83.5352 31.1905 84.4131 31.4184 85.7981 31.8748C87.1818 32.3312 88.0964 32.5944 88.5361 32.6685C89.2733 32.7978 90.0632 32.8631 90.9031 32.8631C93.5723 32.8631 95.7559 32.055 97.4538 30.4403C99.151 28.8263 100 26.9035 100 24.6719C100 23.4999 99.7347 22.3777 99.2017 21.3044ZM62.1554 17.5018C62.4172 17.5018 62.6453 17.506 62.8385 17.5136C63.0323 17.5205 63.1911 17.5247 63.3148 17.5247C65.9916 17.5247 68.0098 16.9058 69.3695 15.666C70.7293 14.4283 71.4092 12.8521 71.4092 10.9354C71.4092 9.06288 70.8609 7.54067 69.7642 6.36873C68.665 5.19748 67.2133 4.61186 65.4057 4.61186C64.6052 4.61186 63.5222 4.75238 62.1554 5.03135V17.5018ZM64.3907 2.93044C67.3727 2.93044 69.5698 3.16372 70.9827 3.62751C72.4001 4.09199 73.6004 4.94759 74.5875 6.1929C75.5733 7.43822 76.0678 8.92305 76.0678 10.6488C76.0678 12.4901 75.5046 14.0905 74.3801 15.4459C73.2556 16.8041 71.5122 17.7614 69.1524 18.3207L74.9511 26.9217C76.2733 28.8959 77.4126 30.209 78.3647 30.8563C79.3168 31.5056 80.1185 31.8683 81.676 32.1874L81.6837 32.9143H74.5972L65.0952 18.8953C64.3907 18.9257 63.8171 18.9396 63.3771 18.9396C63.1969 18.9396 63.0044 18.9361 62.7964 18.9285C62.5896 18.9216 62.3757 18.9091 62.1554 18.8953V27.6063C62.1554 29.494 62.3479 30.6659 62.7361 31.1214C63.2591 31.7707 64.0459 32.0947 65.0952 32.0947H66.1925V32.9143H54.1641V32.0947H55.2199C56.4066 32.0947 57.2556 31.6821 57.7663 30.8563C58.056 30.4001 58.2012 29.3161 58.2012 27.6063V8.23774C58.2012 6.35142 58.0087 5.17879 57.6212 4.72192C57.0826 4.074 56.2828 3.74934 55.2199 3.74934H54.1641V2.93044H64.3907ZM52.9132 2.93044V3.75003H51.859C50.6666 3.75003 49.7978 4.11138 49.2532 4.83337C48.8946 5.30547 48.7146 6.43934 48.7146 8.23844V27.607C48.7146 29.1257 48.8076 30.1267 48.9957 30.614C49.1386 30.9823 49.4405 31.2986 49.8982 31.5637C50.5156 31.9189 51.1695 32.0954 51.859 32.0954H52.9132V32.9143H40.4043V32.0954H41.4383C42.6428 32.0954 43.5191 31.7347 44.0644 31.0127C44.4088 30.5392 44.5813 29.4061 44.5813 27.607V8.23844C44.5813 6.72038 44.4877 5.71804 44.3009 5.2314C44.1581 4.86313 43.8628 4.5454 43.4186 4.28028C42.787 3.92655 42.1272 3.75003 41.4383 3.75003H40.4043V2.93044H52.9132Z" fill="#234E76"></path> </g> <defs> <clipPath id="clip0"> <rect width="100" height="36" fill="white"></rect> </clipPath> </defs> </svg> 