<?xml version="1.0" encoding="UTF-8"?> <svg xmlns="http://www.w3.org/2000/svg" width="70" height="70" viewBox="0 0 70 70" fill="none"> <g filter="url(#filter0_d)"> <circle cx="34.7999" cy="22.1051" r="16.7999" fill="#0F2A3B" fill-opacity="0.59"></circle> </g> <path d="M34.8 5.30518C25.5215 5.30518 18 12.8267 18 22.1052C18 31.3837 25.5215 38.9052 34.8 38.9052C44.0785 38.9052 51.6 31.3837 51.6 22.1052C51.6 12.8267 44.0785 5.30518 34.8 5.30518ZM38.7795 16.9147H36.2543C35.955 16.9147 35.6225 17.3084 35.6225 17.8317V19.6552H38.7813L38.3035 22.2557H35.6225V30.0624H32.6423V22.2557H29.9385V19.6552H32.6423V18.1257C32.6423 15.9312 34.1648 14.1479 36.2543 14.1479H38.7795V16.9147Z" fill="white"></path> <defs> <filter id="filter0_d" x="0" y="0.305176" width="69.5999" height="69.5999" filterUnits="userSpaceOnUse" color-interpolation-filters="sRGB"> <feFlood flood-opacity="0" result="BackgroundImageFix"></feFlood> <feColorMatrix in="SourceAlpha" type="matrix" values="0 0 0 0 0 0 0 0 0 0 0 0 0 0 0 0 0 0 127 0"></feColorMatrix> <feOffset dy="13"></feOffset> <feGaussianBlur stdDeviation="9"></feGaussianBlur> <feColorMatrix type="matrix" values="0 0 0 0 0.0658854 0 0 0 0 0.0730469 0 0 0 0 0.1375 0 0 0 0.08 0"></feColorMatrix> <feBlend mode="normal" in2="BackgroundImageFix" result="effect1_dropShadow"></feBlend> <feBlend mode="normal" in="SourceGraphic" in2="effect1_dropShadow" result="shape"></feBlend> </filter> </defs> </svg> 