<?xml version="1.0" encoding="UTF-8"?> <svg xmlns="http://www.w3.org/2000/svg" width="72" height="71" viewBox="0 0 72 71" fill="none"> <g opacity="0.4"> <path d="M30.7782 0.172592C29.43 0.31508 29.2656 0.358923 29.2656 0.534292C29.2656 0.67678 29.3423 0.742544 29.5287 0.742544C29.6821 0.742544 29.8356 0.797347 29.8685 0.85215C29.9671 1.0056 30.3398 4.60068 30.285 4.76508C30.263 4.83085 30.1425 4.90757 30.0219 4.94045C29.9123 4.97334 29.8137 5.08294 29.8137 5.18159C29.8137 5.346 29.9013 5.36792 30.6686 5.30215C32.3017 5.15967 32.5867 5.01718 31.7866 4.75412C31.4029 4.63356 31.4029 4.6226 31.3043 3.77863C31.1837 2.77025 31.2166 2.71545 32.0825 2.71545C32.7511 2.71545 32.9593 2.87986 33.047 3.46077C33.1786 4.3705 33.2772 4.6226 33.5622 4.83085C33.891 5.07198 34.5048 5.02814 34.8007 4.7322C35.0199 4.50203 35.0199 3.81151 34.8007 3.81151C34.6911 3.81151 34.6363 3.92112 34.6363 4.15129C34.6363 4.40338 34.5925 4.48011 34.45 4.44723C34.3185 4.42531 34.2308 4.20609 34.1212 3.6471C34.0116 3.01139 33.9239 2.82506 33.6389 2.58392C33.3101 2.30991 33.3101 2.29895 33.5293 2.22222C33.8143 2.13454 34.0883 1.63035 34.0883 1.21385C34.0883 0.753504 33.8581 0.380844 33.4307 0.172592C32.9922 -0.0575802 32.8059 -0.0575802 30.7782 0.172592ZM32.7949 0.819268C33.058 1.0604 33.058 1.73996 32.784 1.99205C32.6744 2.0907 32.2798 2.21126 31.8742 2.25511L31.1508 2.34279L31.0851 1.86052C30.9645 0.961756 30.9974 0.764465 31.2714 0.709662C31.8852 0.589095 32.5976 0.643898 32.7949 0.819268Z" fill="black"></path> <path d="M40.6098 0.435568C39.6124 0.786307 38.9767 1.8166 38.9767 3.08803C38.9657 4.42523 39.6672 5.26919 41.0154 5.56513C41.9689 5.76242 42.7143 5.52129 43.2842 4.83077C43.6788 4.35946 43.6897 4.2937 43.4486 4.20602C43.328 4.16217 43.1088 4.2937 42.791 4.57868C42.3526 4.97326 42.2649 5.0171 41.7278 5.0171C41.0154 5.0171 40.4893 4.7102 40.1933 4.14025C39.7659 3.32917 40.1933 1.61931 40.9277 1.16993C41.3661 0.906874 42.221 0.895913 42.6485 1.14801C42.9554 1.32338 43.4048 2.0687 43.4048 2.37559C43.4048 2.45232 43.5034 2.49616 43.6459 2.47424C43.887 2.44136 43.909 2.38656 44.1063 1.26857C44.1611 0.939756 44.1391 0.863032 43.9857 0.83015C43.8761 0.797268 43.7007 0.852071 43.5911 0.939756C43.4267 1.0932 43.3719 1.08224 43.1417 0.863032C42.6375 0.391726 41.3661 0.172514 40.6098 0.435568Z" fill="black"></path> <path d="M25.1539 1.33436C23.6304 1.81662 22.9618 2.80308 23.2358 4.16219C23.5537 5.81724 24.299 6.59545 25.5375 6.57352C26.6445 6.56256 27.6748 6.04742 28.1242 5.29113C28.8147 4.09643 28.1133 1.83854 26.8857 1.33436C26.4472 1.14803 25.7348 1.14803 25.1539 1.33436ZM26.6226 2.22217C27.0282 2.69347 27.2364 3.16478 27.4008 4.00874C27.5652 4.79791 27.3789 5.34594 26.8418 5.66379C25.6362 6.39815 24.7374 5.81724 24.2551 3.99778C24.0798 3.34015 24.0798 3.21958 24.2222 2.80308C24.4305 2.2112 25.0224 1.83854 25.7677 1.83854C26.2171 1.83854 26.3267 1.88239 26.6226 2.22217Z" fill="black"></path> <path d="M46.4178 2.15649C45.4971 2.58395 44.7957 3.78962 44.7847 4.97337C44.7737 5.56524 44.8176 5.71869 45.1026 6.13519C45.815 7.14357 47.5358 7.61487 48.6099 7.09972C49.4649 6.68322 50.0896 5.51044 50.0896 4.32669C50.0896 3.25255 49.5526 2.60588 48.2921 2.16745C47.5358 1.89344 46.9878 1.89344 46.4178 2.15649ZM48.4236 2.82509C49.3114 3.23063 49.4101 4.1842 48.6976 5.631C48.4017 6.2448 48.051 6.57361 47.5906 6.69418C47.196 6.79283 46.2973 6.47497 46.0452 6.14615C45.541 5.5214 45.9027 3.81154 46.6918 3.01142C47.1741 2.52915 47.6564 2.47435 48.4236 2.82509Z" fill="black"></path> <path d="M19.9267 3.39493C19.5102 3.63606 19.1814 3.88816 19.1814 3.95392C19.1814 4.03065 19.3458 4.95134 19.554 6.00355C19.7623 7.05577 19.9157 7.93262 19.9048 7.94358C19.9048 7.95454 19.4554 7.55996 18.9074 7.07769C18.3703 6.59543 17.6579 5.98163 17.351 5.70762L16.781 5.21439L16.0357 5.61993C15.0931 6.14604 15.0164 6.20085 15.0821 6.38718C15.126 6.48582 15.2575 6.5187 15.4877 6.47486C15.8384 6.42006 15.8384 6.42006 16.8139 8.12991L17.7894 9.85073L17.5483 10.0919C17.3729 10.2892 17.351 10.3768 17.4496 10.4755C17.5483 10.5741 17.7236 10.5193 18.184 10.2563C18.9951 9.80688 19.0718 9.74112 19.006 9.56575C18.9622 9.4671 18.8306 9.43422 18.6005 9.47807C18.2497 9.53287 18.2497 9.52191 17.3948 8.02031C16.9345 7.19826 16.5618 6.50774 16.5728 6.48582C16.5947 6.47486 17.329 7.09961 18.2169 7.87782L19.839 9.3027L20.1569 9.12733C20.3322 9.03964 20.5076 8.91907 20.5515 8.86427C20.5843 8.79851 20.4419 7.83398 20.2226 6.70503C20.0144 5.57609 19.8609 4.63348 19.8829 4.61156C19.9377 4.55675 21.5927 7.53804 21.5927 7.70245C21.5927 7.79013 21.516 7.89974 21.4064 7.95454C21.2968 8.02031 21.2529 8.12991 21.2968 8.23952C21.3406 8.34912 21.4064 8.40393 21.4502 8.38201C23.0505 7.47228 23.3245 7.28594 23.2807 7.15442C23.2368 7.05577 23.1053 7.02289 22.8751 7.06673C22.5244 7.12154 22.5244 7.12154 21.5598 5.42264C20.6282 3.77855 20.5295 3.47166 20.8912 3.32917C21.0666 3.2634 20.9789 2.93459 20.7816 2.94555C20.7159 2.94555 20.3322 3.1538 19.9267 3.39493Z" fill="black"></path> <path d="M52.3595 4.1842C52.3266 4.27189 52.3704 4.40341 52.4581 4.46918C52.5458 4.5459 52.6116 4.67743 52.6116 4.75415C52.6116 4.84184 52.1293 5.631 51.5484 6.50785C50.4962 8.08618 50.4852 8.09714 50.1345 8.03137C49.5207 7.92177 49.6412 8.2177 50.3975 8.72189C51.1538 9.23704 51.4717 9.22608 51.1319 8.71093C50.9565 8.43692 50.9675 8.415 51.9101 7.00108C52.4362 6.21191 52.8856 5.58716 52.9075 5.60908C52.9294 5.631 52.7212 6.50785 52.4472 7.56007C52.1731 8.61229 51.9539 9.54394 51.9539 9.63162C51.9539 9.83987 52.5677 10.2016 52.7541 10.1029C52.8198 10.0591 53.5542 9.52202 54.3653 8.90822C56.0642 7.63679 56.1957 7.54911 56.0642 7.76832C55.7244 8.33827 54.2447 10.4975 54.157 10.5523C54.0913 10.5852 53.9488 10.5633 53.8282 10.5085C53.6748 10.4208 53.5871 10.4317 53.4884 10.5523C53.3898 10.6729 53.5323 10.8154 54.2666 11.3086C54.9681 11.7799 55.2092 11.8895 55.3188 11.7909C55.4394 11.6922 55.4285 11.6265 55.2421 11.4292L55.0119 11.188L56.119 9.51106C56.952 8.25059 57.2698 7.856 57.4123 7.89985C57.511 7.92177 57.6644 7.96561 57.7521 7.98753C57.8398 8.00945 57.9275 7.95465 57.9494 7.856C57.9823 7.7464 57.7192 7.50527 57.215 7.16549L56.4368 6.65034L54.8475 7.87793C53.9707 8.54652 53.2363 9.07263 53.2034 9.03975C53.1706 9.01783 53.3679 8.15194 53.6419 7.1326C53.9268 6.11327 54.1461 5.24738 54.1461 5.20354C54.1461 5.13777 52.5568 4.03075 52.4691 4.03075C52.4362 4.03075 52.3924 4.09652 52.3595 4.1842Z" fill="black"></path> <path d="M12.6814 8.34924C12.221 8.51365 12.0676 8.62326 11.4757 9.17129C10.3358 10.2345 10.3467 11.5826 11.5086 12.8431C12.6046 14.0378 13.8761 14.0816 15.1037 12.9637C15.9915 12.1745 16.2655 11.0017 15.7942 10.0701C15.0927 8.71094 13.7336 7.95466 12.6814 8.34924ZM13.35 9.12745C13.8541 9.34666 14.742 10.2016 15.0269 10.7387C15.3557 11.3744 15.3009 11.8457 14.8516 12.3499C14.0624 13.2158 13.4267 13.1829 12.4073 12.2074C11.7607 11.6045 11.399 11.0017 11.399 10.5523C11.399 10.0043 11.9141 9.31378 12.495 9.0836C12.8677 8.94112 12.8786 8.94112 13.35 9.12745Z" fill="black"></path> <path d="M59.3514 9.17125C59.3185 9.22605 59.3514 9.40142 59.4281 9.56583C59.5267 9.796 59.5267 9.87273 59.3952 9.99329C58.2224 11.1003 56.6441 12.4704 56.5564 12.4704C56.4906 12.4704 56.3481 12.4046 56.2276 12.3389C56.0741 12.2402 55.9755 12.2402 55.8988 12.3169C55.822 12.3937 55.9645 12.6348 56.381 13.0842C56.8304 13.5774 57.0058 13.698 57.1044 13.6103C57.2031 13.5116 57.2031 13.424 57.0935 13.2267C56.9729 12.9855 57.0167 12.9198 57.773 12.2293C58.2224 11.8128 58.8252 11.2647 59.1321 11.0126L59.6692 10.5523L58.9677 11.8676C58.5841 12.591 58.1128 13.4678 57.9265 13.8076L57.5977 14.4323L57.9046 14.7502L58.2114 15.079L59.9871 14.3118C62.4422 13.2486 62.4094 13.2596 61.7956 13.8076C59.461 15.9339 59.4938 15.912 59.2089 15.627C59.1102 15.5284 59.0445 15.5284 58.9458 15.627C58.8143 15.7586 58.8581 15.8353 59.8884 16.9314C60.2172 17.2821 60.3597 17.3698 60.4693 17.2821C60.5789 17.1834 60.5789 17.1177 60.4474 16.9314C60.3597 16.7998 60.283 16.6683 60.283 16.6245C60.283 16.5916 60.9516 15.9559 61.7736 15.2215C63.1985 13.9391 63.2752 13.8843 63.5054 14.0487C63.6479 14.1364 63.8123 14.1693 63.9 14.1145C64.0535 14.0158 63.6918 13.4788 63.0341 12.865L62.7053 12.5471L60.8858 13.3472C59.8884 13.7857 59.0445 14.1254 59.0225 14.0926C59.0006 14.0706 59.3952 13.2924 59.9103 12.3608C60.4255 11.4291 60.853 10.629 60.8639 10.5961C60.8968 10.4975 59.6363 9.0726 59.5158 9.0726C59.461 9.0726 59.3952 9.11645 59.3514 9.17125Z" fill="black"></path> <path d="M28.0814 9.51103C28.0047 9.6316 27.8732 9.73024 27.7855 9.73024C27.6978 9.73024 27.6211 9.82889 27.6211 9.94945C27.6211 10.0919 27.6978 10.1687 27.8403 10.1687C28.0376 10.1687 28.0595 10.2454 28.0595 10.7715C28.0595 11.2538 28.0157 11.3853 27.8403 11.4839C27.7197 11.5497 27.6211 11.6703 27.6211 11.758C27.6211 11.8895 27.7855 11.9224 28.3335 11.9224C28.9583 11.9224 29.046 11.9004 29.046 11.7141C29.046 11.6045 28.9693 11.4839 28.8816 11.4401C28.75 11.3963 28.7172 11.1661 28.7172 10.3331C28.7172 9.3247 28.7062 9.29182 28.4651 9.29182C28.3335 9.29182 28.1582 9.39046 28.0814 9.51103Z" fill="black"></path> <path d="M29.6601 9.52195C29.3312 9.78501 29.2764 10.3111 29.5504 10.6947C29.7368 10.9578 30.1314 11.0126 30.3396 10.8043C30.4383 10.7057 30.4711 10.7167 30.4711 10.8811C30.4711 11.2099 30.2081 11.6483 30.0327 11.6483C29.9341 11.6483 29.8683 11.5387 29.8683 11.3743C29.8683 11.177 29.8135 11.1003 29.6491 11.1003C29.3641 11.1003 29.3093 11.4401 29.5504 11.7141C29.8354 12.0319 30.4711 11.9881 30.8109 11.6373C31.0411 11.3962 31.074 11.2537 31.074 10.5851C31.074 9.88365 31.052 9.79597 30.7671 9.55483C30.3944 9.23698 30.0437 9.21506 29.6601 9.52195ZM30.3615 10.059C30.3615 10.3769 30.3177 10.4974 30.1971 10.4974C30.0875 10.4974 30.0327 10.3878 30.0327 10.1357C30.0327 9.92749 30.0656 9.7302 30.1094 9.69732C30.2738 9.52195 30.3615 9.64252 30.3615 10.059Z" fill="black"></path> <path d="M31.7203 9.56583C31.4134 9.87273 31.4024 10.3112 31.6874 10.366C31.9176 10.4098 32.0491 10.081 31.8737 9.87273C31.7641 9.73024 31.786 9.71928 32.0053 9.75216C32.3341 9.79601 32.4108 10.07 32.1697 10.3112C31.9614 10.5304 31.9614 10.6729 32.1806 10.7605C32.4437 10.8592 32.345 11.5387 32.0601 11.5387C31.8956 11.5387 31.8518 11.462 31.8408 11.2099C31.8408 10.7715 31.523 10.7605 31.4791 11.188C31.4243 11.6374 31.7203 11.9224 32.2354 11.9224C32.9259 11.9224 33.3424 11.1661 32.915 10.6948C32.7725 10.5413 32.7615 10.4646 32.8602 10.366C33.0794 10.1467 33.0136 9.65352 32.7506 9.46719C32.3998 9.21509 32.0381 9.24798 31.7203 9.56583Z" fill="black"></path> <path d="M33.8907 9.40135C33.4413 9.58768 33.2988 10.5632 33.7372 10.4755C33.8688 10.4426 33.9236 10.333 33.9126 10.0809C33.8907 9.80689 33.9345 9.73017 34.0989 9.73017C34.4387 9.73017 34.373 10.3111 33.9784 10.7605C33.6276 11.155 33.3536 11.7798 33.4742 11.9004C33.518 11.9332 33.6496 11.9113 33.7701 11.8346C33.9236 11.736 34.0441 11.736 34.1976 11.8127C34.5374 11.999 34.9429 11.9442 35.0744 11.6921C35.2279 11.4181 35.1292 11.1002 34.9429 11.2208C34.7566 11.3414 33.8797 11.3414 33.9455 11.2318C33.9784 11.1879 34.1866 11.0674 34.4278 10.9687C34.91 10.7824 35.0744 10.5522 35.0744 10.0919C35.0744 9.71921 34.9868 9.58768 34.6689 9.41231C34.3949 9.26982 34.2305 9.26982 33.8907 9.40135Z" fill="black"></path> <path d="M36.8049 9.56583C36.4761 9.85081 36.3994 10.1687 36.6625 10.1687C36.794 10.1687 36.8269 10.3112 36.8269 10.8263C36.8269 11.3415 36.794 11.4839 36.6625 11.4839C36.5748 11.4839 36.498 11.5826 36.498 11.7032C36.498 11.9004 36.5748 11.9224 37.1447 11.9224C37.8243 11.9224 38.0873 11.7689 37.7804 11.5387C37.6379 11.4401 37.5941 11.177 37.5722 10.3769C37.5393 9.44527 37.5174 9.34662 37.3201 9.3247C37.1995 9.30278 36.9694 9.41238 36.8049 9.56583Z" fill="black"></path> <path d="M38.5928 9.42335C38.264 9.59872 38.1434 9.9933 38.2749 10.4646C38.3845 10.8701 38.801 11.0565 39.0751 10.8263C39.2175 10.7057 39.2395 10.7386 39.2395 11.0236C39.2395 11.3963 38.9874 11.7251 38.7572 11.6374C38.6695 11.6045 38.6366 11.473 38.6695 11.3086C38.7024 11.1003 38.6695 11.0455 38.4832 11.0455C38.2969 11.0455 38.253 11.1113 38.253 11.3743C38.253 11.758 38.5051 11.9224 39.0641 11.9224C39.3929 11.9224 39.5025 11.8566 39.6888 11.5607C39.8642 11.2757 39.8971 11.0674 39.8752 10.4756C39.8533 10.0043 39.7765 9.67544 39.6779 9.56583C39.4368 9.33566 38.8997 9.25894 38.5928 9.42335ZM39.1847 10.0591C39.1847 10.2564 39.1299 10.4427 39.0531 10.4646C38.8887 10.5194 38.7682 10.1248 38.8558 9.82889C38.9654 9.48911 39.1847 9.64256 39.1847 10.0591Z" fill="black"></path> <path d="M40.6659 9.4343C40.4576 9.53295 40.3809 9.67544 40.359 9.9933C40.3261 10.344 40.348 10.3988 40.5234 10.366C40.6659 10.3331 40.7097 10.2344 40.6988 10.0262C40.6878 9.796 40.7316 9.73024 40.8961 9.73024C41.1372 9.73024 41.181 10.0481 40.9728 10.3769C40.8741 10.5413 40.8851 10.6181 41.0385 10.7715C41.3016 11.0455 41.2249 11.5278 40.918 11.5716C40.6988 11.6045 40.6768 11.5716 40.7316 11.2866C40.8084 10.914 40.633 10.7386 40.3919 10.9359C39.9754 11.2757 40.4138 11.9224 41.0495 11.9224C41.5537 11.9224 41.8716 11.6045 41.8716 11.1003C41.8716 10.8592 41.8058 10.6838 41.7071 10.6509C41.5756 10.5961 41.5756 10.5523 41.7181 10.3221C41.9483 9.98234 41.8387 9.58775 41.4879 9.42334C41.1262 9.25893 41.0057 9.25893 40.6659 9.4343Z" fill="black"></path> <path d="M42.6366 9.4343C42.4283 9.53295 42.3516 9.67544 42.3297 9.9933C42.2968 10.344 42.3187 10.3988 42.4941 10.366C42.6256 10.344 42.6914 10.2344 42.6914 10.0262C42.6804 9.81793 42.7352 9.73024 42.8777 9.73024C43.1079 9.73024 43.1408 10.07 42.9435 10.3879C42.8339 10.5632 42.8339 10.629 43.0092 10.7496C43.2942 10.9578 43.2065 11.5278 42.8887 11.5716C42.6695 11.6045 42.6475 11.5716 42.7023 11.2866C42.7791 10.914 42.6037 10.7386 42.3626 10.9359C41.9461 11.2757 42.3845 11.9224 43.0202 11.9224C43.5244 11.9224 43.8422 11.6045 43.8422 11.1003C43.8422 10.8592 43.7765 10.6838 43.6778 10.6509C43.5463 10.5961 43.5463 10.5523 43.6888 10.3221C43.919 9.97137 43.8094 9.53295 43.4477 9.40142C43.086 9.25893 42.9654 9.2699 42.6366 9.4343Z" fill="black"></path> <path d="M35.4023 10.8263C35.4023 11.0017 35.4791 11.0455 35.786 11.0455C36.0929 11.0455 36.1696 11.0017 36.1696 10.8263C36.1696 10.651 36.0929 10.6071 35.786 10.6071C35.4791 10.6071 35.4023 10.651 35.4023 10.8263Z" fill="black"></path> <path d="M23.5204 12.58C22.8628 12.9526 21.9969 13.4568 21.6023 13.7199C19.8925 14.8269 17.6455 16.7888 16.3083 18.3123L15.6836 19.0138L16.1659 18.97C16.5824 18.9152 17.0098 19.0577 19.3664 19.9564C22.9505 21.3375 23.4985 21.4909 24.4082 21.4361C25.033 21.3923 25.1645 21.3484 25.4056 21.0744C25.6577 20.7675 25.6687 20.7018 25.6139 19.7591C25.5701 19.0248 25.4166 18.2904 24.9891 16.8546C24.1671 14.0048 24.0904 13.0074 24.6494 12.2402C24.7809 12.0648 24.8467 11.9223 24.8028 11.9223C24.748 11.9223 24.1781 12.2183 23.5204 12.58Z" fill="black"></path> <path d="M46.7237 12.2402C47.2936 12.9307 47.2169 13.9281 46.351 16.8875C45.9345 18.2905 45.7811 19.0248 45.7372 19.7592C45.6824 20.7018 45.6934 20.7675 45.9455 21.0744C46.1866 21.3485 46.3072 21.3923 46.9539 21.4361C47.8526 21.4909 48.598 21.2717 52.1273 19.9126C53.6289 19.3317 54.8126 18.9371 55.0428 18.9371C55.5579 18.9371 56.0731 19.3646 56.3581 20.0222C57.1143 21.7869 57.6295 29.3826 57.3336 34.2272C57.1034 37.9428 56.6978 40.5734 56.1717 41.7023C55.9087 42.2832 55.3935 42.7216 54.988 42.7216C54.8674 42.7216 53.5631 42.2503 52.0834 41.6694C48.302 40.2007 47.5457 39.9596 46.5812 39.8938C45.8578 39.85 45.7263 39.8828 45.4632 40.0801C44.8275 40.5843 44.8056 40.3761 46.362 49.857C47.1402 54.6358 47.7978 58.5597 47.8197 58.5816C47.8855 58.6474 50.0996 57.2444 51.2175 56.4224C52.5876 55.425 54.7578 53.3315 55.8868 51.9285C59.0324 48.0156 60.9725 43.2806 61.4986 38.2497C61.6849 36.4303 61.5753 32.8133 61.2794 31.1582C59.8106 22.9158 55.0976 16.4052 47.7649 12.5361C47.1402 12.1964 46.5812 11.9223 46.5374 11.9223C46.4935 11.9223 46.5702 12.0648 46.7237 12.2402Z" fill="black"></path> <path d="M8.39599 13.0185C8.22062 13.0733 7.90276 13.2815 7.69451 13.4788C7.27801 13.8844 5.48047 16.2518 5.48047 16.4053C5.48047 16.5916 5.75448 16.6135 5.94081 16.4491C6.03946 16.3615 6.21483 16.3176 6.32444 16.3505C6.6971 16.482 9.37148 18.5645 9.36052 18.7289C9.34956 18.8166 9.30572 18.9591 9.27284 19.0578C9.21803 19.1674 9.26188 19.266 9.36052 19.2989C9.49205 19.3537 9.77703 19.0468 10.3799 18.2248C10.8512 17.589 11.3444 16.8656 11.4759 16.6026C11.9801 15.649 11.7061 14.6735 10.7196 13.8844C9.73318 13.1062 9.00978 12.8321 8.39599 13.0185ZM9.17419 14.1255C9.43725 14.257 9.95239 14.6406 10.3031 14.9804C10.895 15.5394 10.9608 15.649 10.9608 16.0436C10.9608 16.4711 10.5333 17.2931 10.1497 17.611C10.051 17.6986 9.63454 17.4466 8.46175 16.5807C7.60683 15.9449 6.90535 15.3969 6.90535 15.364C6.90535 15.2325 7.69451 14.2241 7.92468 14.0597C8.24254 13.8296 8.6152 13.8515 9.17419 14.1255Z" fill="black"></path> <path d="M35.4123 14.1034C34.8862 14.2459 34.5135 14.5528 34.2066 15.1118C33.8997 15.6489 33.8559 16.46 34.0203 18.4438C34.108 19.4412 34.097 19.5947 33.8888 20.066C33.7682 20.351 33.4284 20.7784 33.1434 21.0415C31.2692 22.7185 30.48 23.7816 28.9127 26.7739C28.4085 27.7384 27.8495 28.7468 27.6741 29.0208C27.0822 29.9744 25.9862 31.2897 25.1422 32.0788C24.1119 33.0434 22.4349 34.1723 22.0294 34.1723C21.8759 34.1723 21.58 34.2929 21.3718 34.4463C21.1635 34.5998 20.9114 34.7203 20.8018 34.7203C20.5826 34.7203 20.5497 34.8409 20.7251 35.0163C20.8128 35.1039 20.7032 35.2464 20.2867 35.5424C19.6619 35.9918 19.6729 36.1781 20.3195 36.2987C20.9333 36.4192 21.9856 36.0137 22.8295 35.3341C23.246 34.9943 23.6735 34.6984 23.7831 34.6655C23.9037 34.6326 24.2763 34.6546 24.6271 34.7094C25.9752 34.9615 27.8604 34.7751 29.0661 34.2709C29.943 33.8983 31.0938 33.131 31.8611 32.3857L32.5516 31.7171L32.5297 45.7467C32.4968 58.9871 32.4858 59.7872 32.2995 60.2037C32.1899 60.4449 31.9816 60.7737 31.8282 60.9271L31.5542 61.2121L31.9707 61.2779C33.1654 61.4642 35.5 61.5848 36.8591 61.508L38.3607 61.4313V46.5797V31.7281L39.0512 32.3748C41.1118 34.3586 43.6218 35.1587 46.34 34.7203C47.1182 34.5888 47.1292 34.5888 48.1595 35.367C49.2884 36.2329 50.5818 36.5727 51.0202 36.1342C51.1846 35.9698 51.1517 35.926 50.6366 35.5533C50.2091 35.2464 50.0995 35.1039 50.1872 35.0163C50.3626 34.8409 50.3297 34.7203 50.1105 34.7203C50.0009 34.7203 49.7488 34.5998 49.5405 34.4463C49.3323 34.2929 49.0582 34.1723 48.9267 34.1723C48.291 34.1723 45.9893 32.4296 44.7836 31.0376C43.7204 29.81 43.0518 28.7906 41.9558 26.6862C40.3226 23.5405 39.38 22.291 37.7907 21.1073C37.3742 20.8004 36.9906 20.4715 36.9358 20.3619C36.7166 19.9564 36.8372 19.507 37.5058 18.1808C38.1415 16.9203 38.1963 16.7669 38.1963 16.0983C38.1963 15.2105 37.9004 14.6515 37.2427 14.3226C36.7385 14.0705 35.9494 13.9719 35.4123 14.1034ZM36.1138 23.6501C36.6728 23.9241 36.9358 24.3516 36.9358 25.0311C36.9358 25.5025 36.892 25.5901 36.4316 26.0286C36.0809 26.3683 35.9494 26.5766 35.9713 26.752C36.0042 26.9931 36.0151 26.9931 38.5251 27.026C39.9829 27.0369 41.0899 27.1027 41.1447 27.1575C41.2214 27.2342 41.1995 27.2671 41.0899 27.2671C41.0132 27.2781 41.068 27.3548 41.2433 27.4425C41.4406 27.5521 41.5393 27.6946 41.5393 27.8809C41.5393 28.2645 41.2872 28.3193 40.7611 28.0453C40.5199 27.9138 40.2678 27.8371 40.213 27.8809C40.1473 27.9138 40.1144 28.2864 40.1363 28.7358L40.1692 29.514L38.6786 29.5688C36.2782 29.6565 36.3659 29.4592 36.3987 34.808L36.4097 38.8305L36.1795 38.8634C35.8836 38.9073 35.6205 38.71 35.6205 38.436C35.6205 38.14 35.3246 38.1729 35.226 38.4688C35.1383 38.7648 34.9848 38.8854 34.6889 38.8854C34.4697 38.8854 34.4697 38.8086 34.4697 34.7532C34.4697 29.3496 34.5683 29.5688 32.146 29.5688H30.6883V28.692C30.6883 27.7823 30.6115 27.6617 30.2608 27.9686C30.0197 28.1768 29.4168 28.2974 29.3182 28.144C29.1976 27.9467 29.373 27.6069 29.6799 27.4315C29.8443 27.3438 29.9101 27.2781 29.8333 27.2671C29.7566 27.2671 29.7237 27.2123 29.7566 27.1575C29.8005 27.0917 30.776 27.0479 32.3324 27.0479C34.371 27.0479 34.8423 27.015 34.8862 26.8945C34.9958 26.6204 34.8533 26.3355 34.5135 26.1491C33.56 25.5901 33.812 23.8693 34.8862 23.5515C35.4233 23.398 35.6205 23.409 36.1138 23.6501Z" fill="black"></path> <path d="M64.7447 15.6051C64.7118 15.638 64.7118 15.8243 64.7337 16.0106C64.7885 16.3614 64.7666 16.3723 63.1554 17.3697C62.2566 17.9287 61.4894 18.3891 61.4346 18.3891C61.3798 18.3891 61.2483 18.3014 61.1387 18.2027C60.9962 18.0822 60.8975 18.0603 60.8208 18.137C60.6674 18.2904 61.8073 20.1428 62.0045 20.066C62.1032 20.0222 62.1361 19.8907 62.0922 19.6605C62.0265 19.3207 62.0374 19.3098 63.6267 18.3014C64.5145 17.7534 65.3037 17.293 65.4023 17.293C65.501 17.293 65.6435 17.3807 65.7202 17.4793C65.8298 17.6437 65.8846 17.6547 65.9942 17.5341C66.1477 17.3917 66.1038 17.293 65.3585 16.1093C65.0078 15.5612 64.8872 15.4626 64.7447 15.6051Z" fill="black"></path> <path d="M4.74645 18.729C3.89153 18.9811 3.0366 20.3402 3.02564 21.4472C3.01468 22.2583 3.36542 22.8721 4.09978 23.3653C5.75483 24.4833 7.20163 24.2203 7.97983 22.6639C8.58267 21.4801 8.54978 20.5923 7.89215 19.7922C7.23451 19.003 5.6233 18.455 4.74645 18.729ZM6.40151 19.9676C7.61813 20.5594 7.99079 21.239 7.58525 22.1268C7.26739 22.8502 6.98242 23.0475 6.31382 23.0365C5.70003 23.0365 4.63685 22.6091 4.1765 22.1926C3.8148 21.8637 3.59559 21.3048 3.68328 20.9321C3.79288 20.4608 4.1765 19.847 4.4286 19.7155C4.81222 19.5182 5.73291 19.6387 6.40151 19.9676Z" fill="black"></path> <path d="M66.1263 19.2441C65.4248 19.54 65.2165 19.6715 65.2165 19.8469C65.2165 20.0113 65.2713 20.0442 65.4686 19.9894C66.5208 19.7044 66.9593 19.8359 67.1894 20.5264C67.2662 20.7457 67.2991 20.9429 67.2771 20.9539C67.1675 21.0635 63.8684 22.4446 63.7369 22.4446C63.6492 22.4446 63.5176 22.3459 63.4409 22.2363C63.3423 22.0938 63.2327 22.05 63.134 22.1157C62.9148 22.2473 63.7478 24.2202 63.9999 24.1763C64.1205 24.1544 64.1643 24.0448 64.1424 23.8585C64.1205 23.705 64.1753 23.5297 64.252 23.4639C64.3616 23.3762 66.9374 22.2363 67.6936 21.9294C67.88 21.8636 68.1978 22.8611 68.0663 23.1022C67.9676 23.2995 67.5073 23.705 67.1456 23.9242C67.025 24.001 67.0031 24.0777 67.0689 24.1873C67.1566 24.3298 67.2991 24.2969 67.9567 24.0338C69.2062 23.5297 69.1952 23.7927 68.0553 21.1841C67.5073 19.9127 67.0579 18.8714 67.047 18.8714C67.036 18.8604 66.6195 19.0248 66.1263 19.2441Z" fill="black"></path> <path d="M14.5438 20.4935C13.5683 21.8636 13.0093 22.8062 12.275 24.3407C9.60059 29.8648 8.97584 36.0137 10.4665 41.9653C11.3872 45.6042 13.2943 49.3199 15.7605 52.2683C17.4593 54.285 20.0022 56.4772 22.2382 57.8363C22.7424 58.1432 23.1917 58.3953 23.2246 58.3953C23.2575 58.3953 23.8494 55.3482 24.5399 51.6216C26.1292 43.0614 26.3046 42.053 26.3265 41.1981C26.3484 40.5404 26.3374 40.4856 25.9977 40.1897C25.6908 39.9157 25.5483 39.8718 25.0112 39.8718C24.1124 39.8718 23.1808 40.1568 19.8049 41.4831C18.106 42.1407 16.6592 42.6449 16.4291 42.6558C16.2208 42.6558 15.9139 42.5791 15.7605 42.4805C14.8178 41.8667 14.2589 38.9512 14.0068 33.3722C13.7875 28.4399 14.1931 22.4993 14.8946 20.3839C15.0042 20.077 15.0809 19.8139 15.059 19.8139C15.0371 19.8139 14.8069 20.1208 14.5438 20.4935Z" fill="black"></path> <path d="M4.66896 25.2505C4.62511 25.3491 4.61415 25.4368 4.62511 25.4478C5.0745 25.6231 5.53484 25.9519 5.66637 26.204C5.80886 26.489 5.80886 26.5986 5.64445 27.3111C5.53484 27.7385 5.42524 28.1221 5.38139 28.166C5.32659 28.2318 2.64124 27.607 1.73151 27.3111C1.58903 27.2672 1.53422 27.1467 1.53422 26.8836C1.53422 26.6644 1.46846 26.5 1.36981 26.4561C1.17252 26.3904 1.19444 26.3246 0.832744 27.6837C0.602572 28.5715 0.591611 28.714 0.734099 28.7688C0.887547 28.8236 1.03004 28.6921 1.12868 28.4181C1.17252 28.2866 1.95073 28.44 3.78115 28.9332C5.04162 29.284 5.09642 29.3059 5.15122 29.6128C5.22795 30.0622 5.4362 30.0841 5.56773 29.6566C5.80886 28.9223 6.59802 25.7218 6.56514 25.6889C6.49938 25.6231 4.93201 25.0751 4.8224 25.0751C4.77856 25.0751 4.70184 25.1518 4.66896 25.2505Z" fill="black"></path> <path d="M69.4358 25.2504C69.381 25.2614 68.9426 25.36 68.4822 25.4587C67.7807 25.6121 67.6273 25.6779 67.6273 25.8532C67.6273 26.0286 67.715 26.0615 68.2411 26.0615C68.9864 26.0615 69.2166 26.1711 69.37 26.6205C69.6112 27.322 69.655 27.3 67.5506 27.7604C66.323 28.0344 65.5996 28.144 65.5776 28.0673C65.479 27.7933 65.2598 27.6069 65.1283 27.6837C64.92 27.8262 65.4132 29.9196 65.6434 29.8758C65.7421 29.8539 65.8407 29.6895 65.8736 29.5141C65.9284 29.1962 65.9393 29.1853 67.7369 28.7797C68.7343 28.5605 69.6002 28.3742 69.6769 28.3632C69.7427 28.3632 69.8413 28.5824 69.8852 28.8564C69.9729 29.4922 69.7756 29.81 69.107 30.0621C68.6576 30.2375 68.4822 30.4567 68.7014 30.5992C68.7781 30.643 70.5866 30.2594 70.6743 30.1717C70.7291 30.1169 69.6988 25.371 69.6112 25.2833C69.5783 25.2394 69.5015 25.2285 69.4358 25.2504Z" fill="black"></path> <path d="M1.97184 30.665C0.590805 30.8404 -0.110674 31.8926 0.0318143 33.5915C0.0975779 34.5012 0.481199 35.0822 1.2594 35.4767C1.71975 35.7179 1.94992 35.7617 2.73908 35.7617C3.90091 35.7617 4.50374 35.4767 4.92024 34.7314C5.2381 34.1505 5.35867 32.89 5.15042 32.2653C4.98601 31.7611 4.47086 31.1583 4.01051 30.9171C3.60497 30.7089 2.62948 30.5883 1.97184 30.665ZM3.93379 31.9145C4.49278 32.2105 4.73391 32.6928 4.66815 33.3942C4.58046 34.3478 4.05436 34.7205 2.78293 34.7205C1.85127 34.7205 1.29228 34.5561 0.908663 34.1505C0.634648 33.8655 0.601766 33.745 0.601766 33.1312C0.601766 31.9803 1.11691 31.6296 2.69524 31.6953C3.23231 31.7173 3.71458 31.8049 3.93379 31.9145Z" fill="black"></path> <path d="M70.5205 32.2434C70.4657 32.4955 70.389 32.5174 69.567 32.5831C69.0737 32.616 68.1531 32.6379 67.5173 32.616C66.4213 32.5831 66.3665 32.5722 66.3336 32.331C66.3117 32.1776 66.224 32.0899 66.0815 32.0899C65.8623 32.0899 65.8623 32.1338 65.939 34.304C65.9719 35.5315 66.0377 36.5509 66.0596 36.5838C66.0925 36.6166 66.5309 36.6605 67.0351 36.6824C67.879 36.7153 67.9558 36.7043 67.9558 36.507C67.9558 36.3536 67.8242 36.2549 67.4406 36.1344C66.7501 35.9152 66.5638 35.6192 66.487 34.578L66.4103 33.734L67.1337 33.7121C67.5283 33.7011 67.9558 33.6902 68.0983 33.6902C68.2955 33.6792 68.3394 33.745 68.3723 34.0847C68.3942 34.3916 68.3503 34.5232 68.1531 34.6547C68.0215 34.7533 67.8242 34.8301 67.7146 34.8301C67.5941 34.8301 67.5173 34.9177 67.5173 35.0493C67.5173 35.2575 67.5941 35.2685 68.6244 35.2685C69.5779 35.2685 69.7204 35.2466 69.6875 35.0931C69.6656 34.9945 69.4793 34.852 69.271 34.7862C68.9093 34.6766 68.8874 34.6328 68.8545 34.1395L68.8217 33.6244H69.6437H70.4767V34.5889C70.4767 35.6521 70.389 35.8384 69.7971 35.9809C69.5999 36.0357 69.4902 36.1344 69.4902 36.2659C69.4902 36.4522 69.5779 36.4741 70.2904 36.4741H71.0795L71.0467 34.8081C71.0138 32.6379 70.948 31.9803 70.7398 31.9803C70.663 31.9803 70.5644 32.1009 70.5205 32.2434Z" fill="black"></path> <path d="M4.74594 36.7809C4.68018 36.8248 4.60345 36.9782 4.59249 37.1317C4.54865 37.3947 4.49385 37.4057 2.90456 37.6468C0.690518 37.9647 0.569951 37.9647 0.438424 37.6249C0.317857 37.318 0 37.2522 0 37.5262C0 37.6249 0.054803 38.151 0.131527 38.6771C0.241133 39.4991 0.284976 39.6526 0.460345 39.6526C0.602833 39.6526 0.657636 39.5759 0.657636 39.3786C0.657636 39.0388 0.920691 38.9182 1.76466 38.8634L2.34557 38.8306L2.42229 39.3238C2.45518 39.5978 2.52094 40.102 2.56478 40.4418L2.64151 41.0665L2.1154 41.1323C1.10702 41.2638 1.06318 41.2638 0.90973 40.9459C0.811085 40.7596 0.701479 40.6719 0.602833 40.7158C0.416503 40.7815 0.416503 40.8363 0.580912 42.0091C0.679557 42.6558 0.756282 42.8969 0.887809 42.9189C1.00838 42.9408 1.0851 42.8531 1.12894 42.6339L1.19471 42.316L2.93744 42.0858C5.1734 41.779 5.23917 41.779 5.32685 42.1078C5.3707 42.2831 5.44742 42.3489 5.57895 42.316C5.75432 42.2722 5.76528 42.1955 5.62279 41.3186C5.54607 40.7925 5.4803 40.2993 5.4803 40.2225C5.4803 40.1568 5.38166 40.091 5.27205 40.091C5.1186 40.091 5.04188 40.1787 5.01996 40.387C4.98707 40.7267 4.71306 40.8254 3.73757 40.8802L3.13473 40.9131L3.00321 39.9814C2.80591 38.6004 2.77303 38.699 3.43067 38.6223C3.73757 38.5785 4.16503 38.5237 4.35136 38.4908C4.65826 38.436 4.72402 38.4689 4.83363 38.71C4.98707 39.0498 5.26109 39.0936 5.26109 38.7757C5.26109 38.4031 5.01996 36.8576 4.94323 36.7809C4.91035 36.7371 4.82267 36.7371 4.74594 36.7809Z" fill="black"></path> <path d="M65.9386 37.8661C65.84 38.2388 65.281 42.064 65.3358 42.1079C65.4344 42.2065 67.1881 42.5792 67.1881 42.4915C67.1881 42.4477 67.221 42.3381 67.2539 42.2504C67.2868 42.1408 67.221 42.064 67.0347 42.0202C66.6401 41.9216 66.125 41.4502 66.0702 41.1324C66.0154 40.8913 66.1469 39.7842 66.2455 39.4773C66.2784 39.3787 67.1772 39.4664 68.0431 39.6417C68.054 39.6527 68.065 39.7842 68.065 39.9377C68.065 40.42 67.8787 40.6392 67.4622 40.6392C67.1553 40.6392 67.0785 40.683 67.0785 40.8474C67.0785 41.0776 67.1443 41.1105 68.1198 41.2968C68.4815 41.3626 68.8651 41.4502 68.9747 41.4722C69.3035 41.5708 69.1939 41.1543 68.8213 40.9461C68.5253 40.7707 68.4925 40.7049 68.5253 40.2884L68.5582 39.8171L69.0953 39.839C69.3912 39.85 69.7529 39.8829 69.8954 39.9267C70.1694 39.9925 70.1694 40.0144 70.1037 40.6392C69.9612 41.8339 69.742 42.1736 69.1172 42.1736C68.887 42.1736 68.8322 42.2285 68.8322 42.4367C68.8322 42.6778 68.887 42.7107 69.4899 42.7765C69.8516 42.8203 70.1804 42.8642 70.2242 42.8642C70.2681 42.8751 70.4544 41.8887 70.6407 40.672C70.9367 38.7211 70.9586 38.447 70.8161 38.3922C70.7175 38.3594 70.6298 38.3703 70.6079 38.4251C70.5969 38.4799 70.5092 38.6115 70.4325 38.7211C70.29 38.9074 70.2352 38.9183 69.0405 38.732C66.3442 38.3265 66.4209 38.3484 66.3442 37.9977C66.2784 37.6469 66.0263 37.5702 65.9386 37.8661Z" fill="black"></path> <path d="M3.78063 46.6126C3.16684 47.2154 3.60526 48.2019 4.47115 48.2019C5.03014 48.2019 5.36992 47.8512 5.36992 47.2812C5.36992 46.7332 4.97534 46.3386 4.43827 46.3386C4.16425 46.3386 3.956 46.4263 3.78063 46.6126Z" fill="black"></path> <path d="M65.7084 46.832C65.0946 47.4348 65.533 48.4213 66.3989 48.4213C66.9469 48.4213 67.3415 48.0267 67.3415 47.4896C67.3415 46.6456 66.3002 46.2291 65.7084 46.832Z" fill="black"></path> <path d="M7.3884 51.8627C5.36069 52.8053 4.97707 54.4933 6.43483 56.1045C7.50897 57.2992 8.98865 57.2444 10.3039 55.973C11.126 55.1728 11.2794 54.307 10.7862 53.3095C10.0189 51.786 8.73655 51.227 7.3884 51.8627ZM9.6682 52.7177C9.82165 52.8273 10.0628 53.1342 10.1943 53.4082C10.5012 54.0549 10.3806 54.4714 9.65724 55.14C8.28717 56.4223 7.0815 56.4333 6.46771 55.1619C6.16081 54.5371 6.28138 54.1316 6.93902 53.5068C8.08988 52.4108 8.89 52.1696 9.6682 52.7177Z" fill="black"></path> <path d="M60.963 52.104L60.7109 52.4876L61.6207 53.748C63.6155 56.4992 63.6265 56.5211 63.4949 56.7513C63.3853 56.9047 63.3963 56.9814 63.5278 57.091C63.7141 57.2445 63.6593 57.3103 64.306 56.269C64.6239 55.7648 64.6677 55.6114 64.5472 55.5346C64.4375 55.4689 64.317 55.5346 64.1526 55.7429C63.9224 56.0388 63.9114 56.0388 63.747 55.8196C63.3415 55.3154 63.3415 55.2935 63.9224 54.4057C64.4814 53.5617 64.4923 53.5617 64.876 53.6275C65.435 53.7371 65.4569 53.77 65.2486 54.1317C65.1061 54.3728 65.0842 54.4714 65.1938 54.5811C65.2596 54.6468 65.3363 54.6907 65.3692 54.6578C65.5446 54.4714 66.6406 52.6958 66.6406 52.5972C66.6406 52.4437 66.3447 52.4437 66.257 52.5862C66.1474 52.7725 65.7638 52.7177 63.5717 52.2026C62.4098 51.9286 61.4015 51.7094 61.3357 51.7094C61.2699 51.7094 61.1055 51.8847 60.963 52.104ZM63.8786 53.4083C63.9334 53.4631 63.1223 54.7783 63.0346 54.7783C62.9579 54.7783 61.5987 52.9808 61.5987 52.8931C61.5987 52.8383 63.8128 53.3315 63.8786 53.4083Z" fill="black"></path> <path d="M58.2561 55.6222C57.4669 56.5101 57.3902 56.6416 57.5327 56.7841C57.6204 56.8718 57.6861 56.8718 57.7848 56.7731C58.0478 56.5101 58.3109 56.6635 59.6481 57.8692C60.9743 59.0748 61.1826 59.3598 60.9524 59.6448C60.8647 59.7544 60.8647 59.8202 60.9853 59.9188C61.1058 60.0174 61.2812 59.8859 61.8731 59.2173C62.3773 58.6583 62.5855 58.3514 62.5088 58.2747C62.4321 58.198 62.3005 58.2089 62.1142 58.2966C61.8402 58.4172 61.7635 58.3624 60.3934 57.1348C59.0452 55.9291 58.7822 55.5674 59.0781 55.3811C59.1987 55.3044 59.0233 54.9865 58.8699 55.0085C58.837 55.0085 58.563 55.2825 58.2561 55.6222Z" fill="black"></path> <path d="M12.2005 55.5565C12.1128 55.6442 12.1128 55.7648 12.2005 55.9949C12.321 56.3128 12.2991 56.3457 11.0715 57.5842C9.62471 59.031 9.5151 59.1077 9.20821 58.9214C9.0438 58.8118 8.96707 58.8118 8.85747 58.9214C8.74786 59.031 8.89035 59.2283 9.56991 59.8969C10.2385 60.5655 10.4358 60.7189 10.5454 60.6093C10.655 60.4997 10.6331 60.4011 10.4796 60.138L10.2823 59.7983L10.8633 59.2064L11.4442 58.6145L11.7511 58.9104C12.1018 59.2393 12.1347 59.4914 11.8936 59.864C11.7511 60.0723 11.7511 60.138 11.8716 60.2367C12.0689 60.4011 13.7021 58.9214 13.5267 58.7241C13.439 58.6364 13.3075 58.6474 13.0006 58.7899L12.595 58.9872L12.2224 58.6036L11.8388 58.2309L12.4745 57.5952L13.1102 56.9595L13.7897 57.6719C14.5131 58.4172 14.5679 58.5816 14.3049 59.0968C14.1624 59.3708 14.1624 59.4475 14.283 59.5681C14.3926 59.6887 14.5131 59.6119 14.9625 59.1625L15.5106 58.6145L13.9213 57.0252C12.7594 55.8634 12.2881 55.4688 12.2005 55.5565Z" fill="black"></path> <path d="M56.2601 57.7706C55.734 58.198 55.6025 58.3515 55.6901 58.4611C55.7778 58.5707 55.8655 58.5816 56.008 58.5049C56.1176 58.4391 56.2601 58.3953 56.3149 58.3953C56.3697 58.3953 56.9177 59.0091 57.5315 59.7654C58.1453 60.5217 58.6166 61.1355 58.5728 61.1355C58.5289 61.1355 57.4986 60.7957 56.2601 60.3682L54.0241 59.601L53.3226 60.16C52.8733 60.5217 52.6431 60.7738 52.6869 60.8834C52.7198 60.971 52.8185 61.0149 52.8952 60.982C53.4323 60.7628 53.2569 60.6203 54.8571 62.5603C55.3832 63.196 55.8326 63.777 55.8655 63.8537C55.8984 63.9304 55.8436 64.0839 55.7559 64.1825C55.6463 64.3031 55.6134 64.4236 55.6792 64.5223C55.7888 64.7086 55.997 64.588 56.7204 63.9523C57.0493 63.6564 57.126 63.5358 57.0383 63.4372C56.9396 63.3385 56.852 63.3385 56.6876 63.4262C56.5341 63.5029 56.4355 63.5029 56.3149 63.4043C56.1395 63.2728 54.1118 60.8066 54.1776 60.8066C54.1885 60.8066 55.2188 61.1464 56.4574 61.5629L58.7153 62.3192L59.1647 61.9685C59.4167 61.7821 59.614 61.5739 59.5921 61.4972C59.5812 61.4204 58.9564 60.6203 58.2111 59.6996L56.841 58.0336L57.0164 57.7267C57.1479 57.4965 57.1698 57.3979 57.0712 57.3212C56.9835 57.2554 56.7204 57.3979 56.2601 57.7706Z" fill="black"></path> <path d="M18.1054 61.6616C17.097 62.1987 16.4941 63.2071 16.4941 64.336C16.4941 64.9717 16.538 65.1252 16.823 65.5417C17.2066 66.0787 18.1273 66.6706 18.7411 66.7802C19.2562 66.8679 19.9029 66.6925 20.3304 66.3527C20.5934 66.1445 20.6263 66.0678 20.5167 65.9362C20.3961 65.7938 20.3194 65.8047 19.87 66.0239C19.2562 66.3418 19.048 66.3418 18.4671 66.0787C17.8313 65.7828 17.5244 65.3992 17.4587 64.8183C17.3491 63.8647 18.3355 62.3631 19.1795 62.1987C19.6398 62.1 20.2865 62.3302 20.6811 62.7248C20.999 63.0426 21.0428 63.1522 21.0428 63.6893C21.0428 64.1387 21.0866 64.3031 21.2182 64.3579C21.4593 64.4566 21.536 64.3908 21.9306 63.6893C22.2704 63.1084 22.2704 63.0646 22.0841 62.933C21.9196 62.8125 21.8539 62.8125 21.7224 62.9221C21.5908 63.0317 21.536 63.0098 21.4374 62.8454C20.7469 61.6835 19.1356 61.1026 18.1054 61.6616Z" fill="black"></path> <path d="M50.0902 62.1876C48.4133 62.9877 47.4707 63.5577 47.5364 63.7111C47.5693 63.8098 47.7228 63.8646 47.931 63.8427C48.3037 63.8207 48.3256 63.8536 49.6737 66.4294L50.1231 67.2843L49.882 67.5364C49.7176 67.7118 49.6847 67.8104 49.7724 67.8981C49.8601 67.9858 50.1779 67.8652 50.8904 67.4816C51.9864 66.9007 52.1728 66.6486 51.4603 66.7034C51.0219 66.7363 51.0219 66.7253 50.6164 65.969C50.3862 65.5525 50.1999 65.1799 50.1999 65.147C50.1999 65.0483 51.274 64.5332 51.4932 64.5332C51.7234 64.5332 52.0303 64.8401 52.392 65.4429C52.8523 66.2211 53.3346 66.3417 53.9593 65.8375C54.2662 65.6073 54.3539 65.0812 54.1566 64.7634C54.0032 64.5222 53.7949 64.7414 53.8717 65.0812C53.9922 65.6512 53.6415 65.6073 53.3455 65.0155C53.0167 64.3688 52.6112 63.9852 52.2714 63.9852C51.9645 63.9852 51.9536 63.9742 52.107 63.7331C52.4029 63.2727 52.4139 63.0097 52.1837 62.5164C51.7782 61.6944 51.285 61.6067 50.0902 62.1876ZM51.2959 63.1193C51.5151 63.6344 51.3617 63.9304 50.6931 64.303C50.3643 64.4893 50.0464 64.6428 50.0026 64.6428C49.9039 64.6428 49.1586 63.3385 49.2353 63.2837C49.4655 63.1083 50.3095 62.6808 50.4739 62.648C50.8136 62.5822 51.1534 62.7795 51.2959 63.1193Z" fill="black"></path> <path d="M23.1257 65.8596C21.657 67.5914 21.5145 67.7229 21.2405 67.6681C20.9884 67.6242 20.9336 67.6462 20.9336 67.8106C20.9336 67.975 21.109 68.0846 21.6789 68.2709C22.0845 68.4024 22.479 68.534 22.5558 68.5668C22.6325 68.5888 22.6873 68.523 22.6873 68.3915C22.6873 68.249 22.5886 68.1503 22.4133 68.1065C22.0735 68.0188 22.0735 67.8544 22.3914 67.4708L22.6325 67.1858L23.6189 67.5366L24.6054 67.8873L24.6383 68.3476C24.6712 68.8518 24.5944 68.8957 24.0793 68.7093C23.8601 68.6217 23.7943 68.6436 23.7505 68.797C23.7066 68.9614 23.9039 69.0601 24.8575 69.3999C25.7782 69.7287 26.0193 69.7835 26.096 69.6629C26.1618 69.5752 26.118 69.4656 25.9755 69.356C25.7891 69.2026 25.7672 68.9724 25.6905 66.7474L25.6138 64.3032L25.2302 64.1497C25.0219 64.062 24.8246 63.9853 24.7808 63.9853C24.7369 63.9853 23.9916 64.8293 23.1257 65.8596ZM24.6054 67.2516C24.5396 67.3173 23.0161 66.8351 23.0161 66.7583C23.0161 66.7364 23.3778 66.287 23.8162 65.7719L24.6054 64.8293L24.6383 66.013C24.6492 66.6597 24.6383 67.2187 24.6054 67.2516Z" fill="black"></path> <path d="M44.2473 64.5003C43.5787 64.7305 42.8005 65.4101 42.6251 65.9252C42.4497 66.4623 42.5593 67.5364 42.8553 68.2269C43.1512 68.9284 43.7979 69.5313 44.3349 69.6409C45.42 69.8382 46.823 69.312 47.4039 68.49C47.6999 68.0625 47.7327 67.9529 47.7218 67.1857C47.6999 65.9252 47.1189 64.8072 46.2859 64.4675C45.8146 64.2702 44.9049 64.2811 44.2473 64.5003ZM45.9571 65.2785C46.3517 65.6731 46.8011 66.9007 46.8011 67.5912C46.8011 67.9639 46.7353 68.205 46.5599 68.4242C46.0996 69.0161 44.9926 69.2244 44.4774 68.8188C44.0719 68.49 43.5896 67.3391 43.5348 66.55C43.491 65.9252 43.5129 65.8595 43.8308 65.4978C44.4336 64.8072 45.3762 64.7086 45.9571 65.2785Z" fill="black"></path> <path d="M28.3445 65.3554C28.3007 65.476 28.3774 65.5637 28.5527 65.6294C28.7391 65.6952 28.8268 65.8158 28.8268 65.9802C28.8268 66.3528 28.3007 69.5533 28.2239 69.6849C28.191 69.7506 28.0376 69.7945 27.8841 69.7945C27.7088 69.7945 27.6211 69.8602 27.6211 69.9918C27.6211 70.1671 27.8951 70.2329 29.7913 70.5288C30.975 70.7152 31.9725 70.8467 31.9944 70.8248C32.0273 70.7919 32.4328 69.1588 32.4438 68.9943C32.4438 68.9505 32.3451 68.9176 32.2355 68.9176C32.093 68.9176 31.9834 69.0382 31.8957 69.3012C31.83 69.5095 31.6436 69.7835 31.4792 69.915C31.2162 70.1123 31.0956 70.1342 30.4709 70.0794C30.0763 70.0356 29.6598 69.9808 29.5282 69.9479L29.309 69.8931L29.605 67.964C29.7803 66.9118 29.9447 66.0131 29.9667 65.9802C29.9995 65.9473 30.1749 65.9254 30.3503 65.9363C30.5805 65.9363 30.6791 65.8815 30.7229 65.7281C30.7558 65.6185 30.7449 65.5198 30.712 65.5198C30.6681 65.5198 30.1968 65.4431 29.6488 65.3554C28.4212 65.1581 28.4212 65.1581 28.3445 65.3554Z" fill="black"></path> <path d="M38.9653 65.695C37.8802 65.8375 36.9486 65.9471 36.9047 65.9471C36.6855 65.969 36.9047 66.3198 37.1458 66.3636C37.2993 66.3855 37.4308 66.4184 37.4527 66.4403C37.5404 66.5171 37.935 70.2546 37.8802 70.4081C37.8473 70.4958 37.7158 70.5615 37.5952 70.5615C37.4418 70.5615 37.376 70.6383 37.376 70.7917C37.376 70.989 37.4199 71.0109 37.7925 70.9561C38.0117 70.9232 38.494 70.8684 38.8557 70.8246C39.2174 70.7917 39.601 70.7369 39.6997 70.715C39.9956 70.6273 39.7983 70.3423 39.4476 70.3423C39.064 70.3423 38.9653 70.156 38.8667 69.2901L38.7899 68.6215L39.1407 68.5448C39.7216 68.4352 39.7874 68.4681 39.9737 68.8846C40.1819 69.3887 40.16 69.3778 40.3573 69.3011C40.5327 69.2353 40.5327 69.1367 40.3792 67.6241C40.3244 67.1528 40.2806 67.0541 40.1052 67.0541C39.9408 67.0541 39.897 67.1309 39.897 67.4378C39.897 67.8762 39.6777 68.0406 39.0968 68.0406H38.7132L38.6365 67.2185C38.5926 66.7582 38.5817 66.3636 38.6036 66.3417C38.6255 66.3088 39.0311 66.2431 39.4914 66.1773C40.4779 66.0348 40.719 66.1225 40.9492 66.6705C41.1245 67.098 41.4314 67.098 41.4314 66.6705C41.4314 65.98 41.289 65.4101 41.1136 65.421C41.0149 65.432 40.0504 65.5525 38.9653 65.695Z" fill="black"></path> <path d="M33.76 66.0568C33.76 66.1993 33.8477 66.2869 34.0121 66.3089C34.2532 66.3417 34.2532 66.3637 34.2861 68.3037C34.319 70.3314 34.2751 70.5616 33.8586 70.5616C33.7271 70.5616 33.6504 70.6383 33.6504 70.7808C33.6504 70.989 33.7271 71 34.8013 71C35.7329 71 35.9521 70.9671 35.9521 70.8466C35.9521 70.7589 35.8206 70.6164 35.6562 70.5397C35.3164 70.3752 35.3274 70.5616 35.3822 67.8105L35.4041 66.4842L35.7329 66.3637C36.4673 66.0896 35.8535 65.8485 34.4067 65.8485C33.8367 65.8485 33.76 65.8704 33.76 66.0568Z" fill="black"></path> </g> </svg> 