<?xml version="1.0" encoding="UTF-8"?> <svg xmlns="http://www.w3.org/2000/svg" width="95" height="91" viewBox="0 0 95 91" fill="none"> <path d="M23.5556 0.571517C21.7913 2.35747 19.5184 5.20706 18.0244 7.50102C17.7383 7.93758 17.4363 8.39796 17.3489 8.52496C17.1105 8.86628 16.0456 10.7237 15.5528 11.6682C15.3144 12.1286 15.076 12.5731 15.0283 12.6604C14.9727 12.7477 14.6866 13.351 14.3926 14.0098C14.0906 14.6607 13.8045 15.2878 13.7489 15.3989C13.6932 15.51 13.6297 15.7005 13.5979 15.8275C13.5661 15.9466 13.4787 16.2006 13.3912 16.3832C13.0734 17.0737 12.7555 17.9469 12.3581 19.2089C12.1277 19.9312 11.8972 20.6615 11.8336 20.8361C11.7303 21.1616 11.3965 22.4713 11.0786 23.8127C10.7846 25.0589 10.5223 26.6544 10.3714 28.1387C10.3237 28.5753 10.2442 29.1468 10.1965 29.4087C10.1011 29.9564 9.96605 34.2189 10.0455 34.3141C10.0773 34.3459 12.676 34.3617 15.823 34.3538L21.537 34.33L21.5926 33.0997C21.6642 31.3931 21.7675 30.4327 22.1251 27.9799C22.2999 26.7576 23.0708 23.7254 23.5079 22.5427C23.6112 22.257 23.7224 21.9712 23.7463 21.9077C24.3503 20.2329 24.4059 20.1059 24.8986 19.0026C25.3675 17.9548 26.0589 16.6372 26.7264 15.518C27.3066 14.5337 28.5145 12.7081 28.7291 12.4858C28.7927 12.4144 28.9596 12.208 29.0867 12.0254C29.7225 11.1285 30.7556 9.86641 31.304 9.31872C32.2973 8.31065 32.3927 8.18365 32.3132 8.04077C32.1861 7.81058 24.3264 1.24381e-05 24.2152 1.24381e-05C24.1675 1.24381e-05 23.8655 0.261952 23.5556 0.571517Z" fill="#999999"></path> <path d="M9.96424 35.2481C9.98222 37.7585 10.3938 41.3802 10.9622 44.0581C11.0692 44.569 11.1817 45.1079 11.2099 45.2595C11.2831 45.6694 11.8456 47.7352 12.1662 48.7512C12.3237 49.2451 12.4699 49.7279 12.498 49.8233C12.5205 49.9243 12.7454 50.553 13.0041 51.2265C13.2515 51.9 13.4933 52.5454 13.5326 52.6633C13.572 52.7812 13.6619 52.9608 13.7294 53.073C13.7912 53.1796 13.9093 53.4209 13.9767 53.6117C14.241 54.3245 14.6345 55.1663 15.2472 56.339C15.5957 57.0124 15.9498 57.6913 16.0285 57.8597C16.1859 58.1627 16.8772 59.3241 17.6022 60.4967C18.2766 61.5851 19.2207 62.8977 20.1647 64.053C20.4401 64.3952 20.7885 64.8551 20.9402 65.0739C21.2605 65.5283 24.1823 68.6348 24.3058 68.6458C24.3507 68.6457 26.1976 66.8174 28.415 64.5842L32.4342 60.5228L31.6027 59.6144C30.4452 58.3583 29.8383 57.6067 28.3548 55.6211C27.613 54.6338 26.0112 51.9464 25.4828 50.8016C25.3535 50.5266 25.2298 50.246 25.2017 50.1843C24.4428 48.5737 24.3922 48.4446 23.9593 47.3165C23.5488 46.2445 23.1045 44.8244 22.7838 43.5613C22.4969 42.4554 22.0579 40.3108 22.0522 40.0019C22.0465 39.9064 22.0183 39.6425 21.9789 39.4236C21.7931 38.34 21.6295 36.7172 21.6291 35.9422C21.6173 34.5269 21.5947 34.3697 21.4375 34.325C21.1847 34.2525 10.1042 34.2988 10.0256 34.3775C9.99195 34.4113 9.96405 34.8101 9.96424 35.2481Z" fill="#D8D8D8"></path> <path d="M58.5058 12.8055C58.155 13.2054 57.8122 13.8372 57.4615 14.7089L57.1665 15.4687L57.1745 17.8279C57.1825 19.1235 57.2303 20.6031 57.2781 21.1069C57.318 21.6108 57.3897 22.5864 57.4296 23.2662C57.4774 23.946 57.5492 24.9537 57.605 25.5055C57.6608 26.1293 57.6767 27.305 57.6528 28.6246C57.6129 30.632 57.5492 31.3117 57.2941 32.3834C57.2463 32.5833 57.1665 32.9592 57.1107 33.2231C56.9274 34.1749 56.5288 35.5024 55.915 37.1819C55.7795 37.5578 55.628 37.9657 55.5881 38.1016C55.5004 38.3496 54.4721 40.4449 54.1931 40.9408C54.0496 41.1887 53.9938 41.2207 53.7228 41.2127C52.7422 41.2047 51.5784 40.7248 51.1718 40.165C50.7334 39.5652 50.558 38.7494 50.7334 38.0936C50.821 37.7577 51.2435 37.054 51.4588 36.886C51.7697 36.6301 52.4313 36.3822 52.8299 36.3662C53.2763 36.3502 53.4677 36.2702 53.4119 36.1182C53.372 36.0143 53.2524 34.9746 53.1328 33.743C53.093 33.3271 53.0212 32.7673 52.9814 32.5034C52.814 31.5037 52.5828 29.6323 52.4154 27.9448C52.3038 26.8331 52.1125 25.4576 52.0168 25.1457C51.7856 24.3379 51.3472 22.9703 51.2993 22.9063C51.2675 22.8584 51.2117 22.7384 51.1798 22.6264C51.1479 22.5145 50.9725 22.1546 50.7812 21.8267C50.5978 21.4988 50.3507 21.0589 50.2311 20.851C49.7369 19.9633 48.6368 18.6517 47.6244 17.7639C46.6359 16.8842 45.4082 15.9965 45.1771 15.9885C45.0974 15.9885 45.0814 19.3075 45.0974 32.4394L45.1213 48.8983L48.8839 48.9223C53.1488 48.9463 52.7103 48.8663 52.8937 49.658C53.1169 50.6657 53.3162 51.2256 53.8344 52.2572C54.6873 53.9847 56.1063 55.7202 57.4934 56.7358C57.7485 56.9198 58.1152 57.2717 58.3145 57.5196C58.5138 57.7755 58.6971 57.9755 58.721 57.9755C58.7449 57.9755 58.9203 57.7915 59.1116 57.5676C59.295 57.3437 59.7813 56.8958 60.1798 56.5759C62.3721 54.8164 64.0461 52.2013 64.5802 49.706C64.644 49.4021 64.7317 49.1062 64.7795 49.0422C64.8513 48.9623 65.5926 48.9383 68.5501 48.9383C71.3084 48.9383 72.257 48.9143 72.3287 48.8423C72.4563 48.7143 72.4722 16.1085 72.3447 16.0285C72.2411 15.9645 71.8504 16.1964 70.9177 16.9002C69.9532 17.62 68.7893 18.7396 68.1675 19.5394C67.6972 20.1472 66.7725 21.5628 66.7645 21.6907C66.7645 21.7227 66.6848 21.8827 66.5811 22.0506C66.35 22.4345 66.1108 23.0343 65.8079 24.026C65.6724 24.4659 65.5209 24.9457 65.4731 25.0897C65.3615 25.4496 65.2658 26.1054 65.1701 27.0251C65.1303 27.4409 65.0585 28.0568 65.0187 28.3846C64.9708 28.7125 64.8592 29.6643 64.7716 30.504C64.6839 31.3357 64.5723 32.1995 64.5324 32.4234C64.4925 32.6393 64.4367 33.0552 64.4128 33.3431C64.3809 33.631 64.3172 34.1828 64.2534 34.5827C64.1418 35.3265 64.0461 36.2942 64.078 36.3102C64.086 36.3102 64.3251 36.3342 64.6041 36.3502C65.489 36.4142 66.1666 36.878 66.6369 37.7417C66.8522 38.1416 66.8442 39.1653 66.621 39.6611C66.4058 40.117 65.8717 40.6528 65.4093 40.8448C64.8592 41.0847 63.6157 41.3166 63.4801 41.1967C63.2091 40.9727 61.7662 37.8857 61.4872 36.942C61.4473 36.79 61.3756 36.6221 61.3437 36.5821C61.3118 36.5341 61.256 36.3742 61.2241 36.2222C61.1923 36.0703 61.1364 35.8943 61.0966 35.8223C60.8654 35.3985 60.2277 32.8473 60.0682 31.6636C60.0284 31.3757 59.9566 30.9998 59.9088 30.8239C59.7334 30.1761 59.9327 23.3062 60.1878 21.2669C60.2117 21.0669 60.2675 19.9713 60.3074 18.8276C60.3871 16.5563 60.3393 15.6686 60.0603 14.8528C59.8291 14.1651 59.3348 13.2054 59.016 12.8375L58.7449 12.5256L58.5058 12.8055ZM47.9193 21.2429C48.4774 22.0026 48.852 22.6504 49.1948 23.4342C49.8405 24.9377 50.0637 25.8734 50.263 27.9048C50.3029 28.3207 50.3746 28.8805 50.4145 29.1444C50.5261 29.8082 50.7254 31.4637 50.821 32.4634C50.8609 32.9272 50.9327 33.567 50.9725 33.8789C51.0203 34.1988 51.0363 34.5187 51.0124 34.5827C50.9885 34.6467 50.7971 34.7987 50.5978 34.9266C49.8246 35.3985 49.1151 36.3102 48.8281 37.1819L48.7085 37.5418H47.9911H47.2736L47.2577 29.2244C47.2417 24.6498 47.2497 20.859 47.2736 20.803C47.3454 20.5951 47.5367 20.723 47.9193 21.2429ZM70.1525 20.787C70.2083 20.875 70.2162 37.5098 70.1604 37.5658C70.0807 37.6378 68.885 37.5738 68.7813 37.4858C68.7255 37.4378 68.6777 37.3419 68.6777 37.2619C68.6777 37.006 68.1834 36.1422 67.7928 35.7104C67.5776 35.4704 67.195 35.1426 66.9558 34.9826C66.7167 34.8227 66.4934 34.6387 66.4775 34.5827C66.4376 34.4868 66.5891 32.9112 66.7645 31.5437C66.8043 31.2318 66.8681 30.6559 66.9159 30.2641C66.9638 29.8642 67.0435 29.3444 67.0834 29.1044C67.1232 28.8565 67.179 28.3687 67.2109 28.0248C67.4022 25.2816 68.1117 23.2662 69.5785 21.2429C69.9691 20.707 70.0568 20.6351 70.1525 20.787ZM59.0877 36.854C59.1515 37.1019 59.2392 37.3579 59.2711 37.4218C59.303 37.4858 59.4704 37.9017 59.6378 38.3416C59.9327 39.0933 60.2596 39.7811 60.977 41.1567C61.1444 41.4766 61.264 41.7885 61.2401 41.8445C61.2162 41.9005 61.0488 41.9964 60.8734 42.0524C60.3712 42.2044 59.6697 42.6442 59.2312 43.0921C59.016 43.316 58.8007 43.5 58.7529 43.5C58.7051 43.5 58.442 43.284 58.163 43.0201C57.7246 42.5962 56.9991 42.1564 56.3853 41.9484C56.1143 41.8605 56.1701 41.7245 57.039 40.157C57.1187 40.013 57.4615 39.2453 57.7485 38.5815C57.8441 38.3576 57.9478 38.1256 57.9876 38.0616C58.0195 37.9977 58.1471 37.6138 58.2746 37.2219C58.6333 36.0783 58.8326 35.9823 59.0877 36.854ZM48.5013 39.8211C48.581 39.8611 48.8122 40.229 49.0115 40.6368C49.2905 41.1887 49.5057 41.5086 49.8804 41.8765C50.4543 42.4363 51.4508 42.9881 52.0646 43.0921C52.5589 43.1641 52.9336 43.348 52.9256 43.5C52.9176 43.5639 52.8538 43.9398 52.7821 44.3397C52.7103 44.7316 52.6227 45.4114 52.5987 45.8432C52.5669 46.3551 52.5111 46.651 52.4393 46.707C52.3197 46.8109 47.4729 46.8349 47.3135 46.739C47.1939 46.659 47.2019 39.9651 47.3294 39.8371C47.441 39.7251 48.302 39.7091 48.5013 39.8211ZM70.1525 39.8211C70.2242 39.9411 70.2003 46.643 70.1285 46.715C70.0169 46.8269 65.202 46.8269 65.0665 46.715C64.9868 46.651 64.931 46.3631 64.8991 45.8352C64.8672 45.4114 64.7716 44.6836 64.6839 44.2277C64.5005 43.3 64.4925 43.324 65.0506 43.1801C65.7361 42.9961 66.4217 42.7482 66.7007 42.5642C66.8681 42.4683 67.0355 42.3803 67.0754 42.3803C67.1152 42.3803 67.3624 42.1404 67.6254 41.8525C68.1117 41.3326 68.5103 40.7008 68.6777 40.173C68.7255 40.021 68.8292 39.8691 68.9009 39.8211C69.0763 39.7171 70.0887 39.7171 70.1525 39.8211ZM55.7316 43.9638C56.5288 44.3237 57.039 44.8036 57.3738 45.4993C57.5412 45.8352 57.6289 46.1391 57.6369 46.3791V46.739L56.2338 46.7629C55.0939 46.7789 54.8149 46.7629 54.7352 46.667C54.5757 46.475 54.8547 44.2997 55.1019 43.8758C55.1577 43.7799 55.4128 43.8119 55.7316 43.9638ZM62.3641 43.9158C62.6192 44.2437 62.9381 46.459 62.7547 46.683C62.6989 46.7549 62.3322 46.7789 61.272 46.7629L59.8689 46.739L59.845 46.475C59.8131 46.1791 60.0045 45.6033 60.2755 45.1794C60.5465 44.7476 61.0169 44.3317 61.543 44.0678C62.0691 43.8039 62.2445 43.7719 62.3641 43.9158ZM57.6608 51.2975C57.6688 52.5691 57.6608 53.6568 57.6369 53.7128C57.5253 54.0087 56.9274 53.3369 56.1541 52.0653C55.4845 50.9456 54.9105 49.4821 55.0062 49.1142C55.0461 48.9383 55.054 48.9383 56.3454 48.9543L57.6369 48.9783L57.6608 51.2975ZM62.4438 49.0742C62.4996 49.1702 62.4757 49.3621 62.3721 49.658C62.2923 49.898 62.2286 50.1379 62.2286 50.1939C62.2206 50.3138 61.7503 51.3135 61.4473 51.8574C60.8495 52.929 60.0523 53.9127 59.9008 53.7608C59.8211 53.6808 59.7892 49.1462 59.8769 49.0102C59.9008 48.9703 60.4748 48.9383 61.1444 48.9383C62.2365 48.9383 62.38 48.9543 62.4438 49.0742Z" fill="#999999"></path> <path d="M6.89022 79.5479C6.07523 79.5479 5.4406 79.3408 4.98634 78.9266C4.53208 78.5057 4.30495 77.8845 4.30495 77.0628V73.4955C4.30495 73.3619 4.28825 73.2751 4.25484 73.235C4.22144 73.1882 4.14128 73.1481 4.01435 73.1147L3.60352 73.0145V72.2329H6.289V73.0145L5.81804 73.1147C5.69779 73.1481 5.61763 73.1882 5.57754 73.235C5.54414 73.2751 5.52744 73.3619 5.52744 73.4955V76.9426C5.52744 77.4837 5.67441 77.8845 5.96834 78.145C6.26227 78.4055 6.65641 78.5358 7.15075 78.5358C7.47141 78.5358 7.72526 78.4857 7.91231 78.3855C8.09936 78.2853 8.2363 78.1183 8.32315 77.8845C8.41667 77.644 8.46343 77.3133 8.46343 76.8924V73.4955C8.46343 73.3619 8.44339 73.2751 8.40331 73.235C8.36991 73.1882 8.29309 73.1481 8.17284 73.1147L7.70188 73.0145V72.2329H10.3172V73.0145L9.90638 73.1147C9.77945 73.1481 9.69929 73.1882 9.66589 73.235C9.63249 73.2751 9.61579 73.3619 9.61579 73.4955V77.0528C9.61579 77.5738 9.49888 78.0248 9.26507 78.4055C9.03126 78.7796 8.70726 79.0635 8.29309 79.2573C7.88559 79.451 7.41797 79.5479 6.89022 79.5479Z" fill="#999999"></path> <path d="M15.6463 78.6059C15.84 78.6059 15.987 78.5826 16.0872 78.5358L15.9369 79.3875C15.6897 79.4944 15.4592 79.5479 15.2455 79.5479C14.7578 79.5479 14.347 79.3174 14.013 78.8565L12.5099 76.7522V78.3655C12.5099 78.4657 12.5233 78.5358 12.55 78.5759C12.5834 78.616 12.6435 78.6427 12.7303 78.656L13.1512 78.7262V79.4477H10.7162V78.7262L11.1271 78.656C11.2006 78.6427 11.254 78.6126 11.2874 78.5659C11.3275 78.5191 11.3475 78.4523 11.3475 78.3655V72.7039C11.3475 72.5302 11.274 72.4333 11.1271 72.4133L10.7162 72.3532V71.6317H12.5099V76.4916L13.8627 75.1188C14.0697 74.9117 14.2601 74.7715 14.4338 74.698C14.6075 74.6245 14.8213 74.5877 15.0751 74.5877H15.5461V75.3794H15.3056C15.152 75.3794 15.0183 75.4027 14.9048 75.4495C14.7912 75.4963 14.6777 75.5697 14.5641 75.67L14.2635 75.9605C13.8359 76.368 13.6188 76.5751 13.6121 76.5818L14.7745 78.0648C14.9282 78.2519 15.0718 78.3888 15.2054 78.4757C15.3457 78.5625 15.4926 78.6059 15.6463 78.6059Z" fill="#999999"></path> <path d="M19.2825 74.4875C19.4628 74.4875 19.6265 74.5143 19.7735 74.5677C19.9204 74.6145 20.0373 74.6679 20.1242 74.728L20.044 76.1008H19.2925L19.1923 75.4996C19.1121 75.4528 19.0052 75.4295 18.8716 75.4295C18.6712 75.4295 18.4842 75.523 18.3105 75.71C18.1368 75.8971 18.0199 76.1276 17.9598 76.4014V78.3655C17.9598 78.5391 18.0332 78.636 18.1802 78.656L18.7814 78.7262V79.4477H16.1661V78.7262L16.5769 78.656C16.6571 78.6427 16.7139 78.616 16.7473 78.5759C16.7807 78.5291 16.7974 78.459 16.7974 78.3655V75.67C16.7974 75.5764 16.7807 75.5096 16.7473 75.4695C16.7139 75.4228 16.6571 75.3927 16.5769 75.3794L16.1661 75.3092V74.5877H17.7293L17.8495 75.4495C17.9965 75.1756 18.2003 74.9485 18.4608 74.7681C18.728 74.5811 19.0019 74.4875 19.2825 74.4875Z" fill="#999999"></path> <path d="M25.0313 78.7262V79.4477H23.408L23.3178 78.8164C23.064 79.0635 22.8068 79.2473 22.5462 79.3675C22.2924 79.4877 22.0152 79.5479 21.7145 79.5479C21.2937 79.5479 20.9597 79.431 20.7125 79.1972C20.472 78.9567 20.3518 78.626 20.3518 78.2051C20.3518 77.7976 20.482 77.4636 20.7426 77.2031C21.0031 76.9359 21.3705 76.7755 21.8448 76.7221L23.2577 76.5618V75.9906C23.2577 75.5297 22.9604 75.2992 22.3659 75.2992C22.0653 75.2992 21.8014 75.356 21.5743 75.4695L21.444 76.1309H20.6925L20.6023 74.9284C20.8762 74.8082 21.1868 74.7047 21.5342 74.6178C21.8815 74.531 22.2156 74.4875 22.5362 74.4875C23.0773 74.4875 23.5216 74.6111 23.8689 74.8583C24.223 75.1055 24.4 75.4629 24.4 75.9305V78.3655C24.4 78.4523 24.4167 78.5191 24.4501 78.5659C24.4902 78.6126 24.547 78.6427 24.6205 78.656L25.0313 78.7262ZM22.0753 78.6761C22.2556 78.6761 22.4527 78.6193 22.6665 78.5057C22.8869 78.3922 23.084 78.2485 23.2577 78.0749V77.2632L22.1354 77.4536C21.9417 77.487 21.7914 77.5605 21.6845 77.674C21.5776 77.7809 21.5241 77.9279 21.5241 78.1149C21.5241 78.2953 21.5743 78.4356 21.6745 78.5358C21.7747 78.6293 21.9083 78.6761 22.0753 78.6761Z" fill="#999999"></path> <path d="M26.5488 73.6558C26.3083 73.6558 26.1346 73.5991 26.0277 73.4855C25.9208 73.3719 25.8674 73.1949 25.8674 72.9544C25.8674 72.4801 26.1146 72.243 26.6089 72.243C26.8494 72.243 27.0231 72.3031 27.13 72.4233C27.2368 72.5369 27.2903 72.7139 27.2903 72.9544C27.2903 73.1949 27.2268 73.3719 27.0999 73.4855C26.9797 73.5991 26.7959 73.6558 26.5488 73.6558ZM25.5067 78.7262L25.9175 78.656C25.9977 78.6427 26.0544 78.616 26.0878 78.5759C26.1212 78.5291 26.1379 78.459 26.1379 78.3655V75.6599C26.1379 75.5664 26.1212 75.4963 26.0878 75.4495C26.0544 75.4027 25.9977 75.376 25.9175 75.3693L25.5067 75.3092V74.5877H27.3003V78.3655C27.3003 78.4523 27.317 78.5191 27.3504 78.5659C27.3905 78.6126 27.4473 78.6427 27.5208 78.656L27.9416 78.7262V79.4477H25.5067V78.7262Z" fill="#999999"></path> <path d="M33.9321 78.7262V79.4477H32.1385V76.2612C32.1385 75.9939 32.065 75.7902 31.918 75.6499C31.771 75.5096 31.5539 75.4395 31.2667 75.4395C31.0529 75.4395 30.8525 75.4896 30.6655 75.5898C30.4784 75.6833 30.3214 75.8169 30.1945 75.9906V78.3655C30.1945 78.5391 30.268 78.636 30.4149 78.656L30.8659 78.7262V79.4477H28.4008V78.7262L28.8117 78.656C28.8918 78.6427 28.9486 78.616 28.982 78.5759C29.0154 78.5291 29.0321 78.459 29.0321 78.3655V75.67C29.0321 75.5831 29.0121 75.5163 28.972 75.4695C28.9386 75.4228 28.8852 75.3927 28.8117 75.3794L28.4008 75.3092V74.5877H29.964L30.0442 75.2691C30.5319 74.7481 31.083 74.4875 31.6976 74.4875C32.2186 74.4875 32.6161 74.6278 32.89 74.9084C33.1639 75.1823 33.3008 75.5397 33.3008 75.9806V78.3655C33.3008 78.4523 33.3175 78.5191 33.3509 78.5659C33.391 78.6126 33.4478 78.6427 33.5213 78.656L33.9321 78.7262Z" fill="#999999"></path> <path d="M35.449 73.6558C35.2085 73.6558 35.0348 73.5991 34.9279 73.4855C34.821 73.3719 34.7676 73.1949 34.7676 72.9544C34.7676 72.4801 35.0148 72.243 35.5091 72.243C35.7496 72.243 35.9233 72.3031 36.0302 72.4233C36.137 72.5369 36.1905 72.7139 36.1905 72.9544C36.1905 73.1949 36.127 73.3719 36.0001 73.4855C35.8799 73.5991 35.6961 73.6558 35.449 73.6558ZM34.4068 78.7262L34.8177 78.656C34.8978 78.6427 34.9546 78.616 34.988 78.5759C35.0214 78.5291 35.0381 78.459 35.0381 78.3655V75.6599C35.0381 75.5664 35.0214 75.4963 34.988 75.4495C34.9546 75.4027 34.8978 75.376 34.8177 75.3693L34.4068 75.3092V74.5877H36.2005V78.3655C36.2005 78.4523 36.2172 78.5191 36.2506 78.5659C36.2907 78.6126 36.3475 78.6427 36.421 78.656L36.8418 78.7262V79.4477H34.4068V78.7262Z" fill="#999999"></path> <path d="M41.9706 78.7262V79.4477H40.3472L40.2571 78.8164C40.0032 79.0635 39.746 79.2473 39.4855 79.3675C39.2316 79.4877 38.9544 79.5479 38.6538 79.5479C38.2329 79.5479 37.8989 79.431 37.6517 79.1972C37.4113 78.9567 37.291 78.626 37.291 78.2051C37.291 77.7976 37.4213 77.4636 37.6818 77.2031C37.9423 76.9359 38.3098 76.7755 38.7841 76.7221L40.1969 76.5618V75.9906C40.1969 75.5297 39.8997 75.2992 39.3051 75.2992C39.0045 75.2992 38.7406 75.356 38.5135 75.4695L38.3832 76.1309H37.6317L37.5415 74.9284C37.8154 74.8082 38.126 74.7047 38.4734 74.6178C38.8208 74.531 39.1548 74.4875 39.4755 74.4875C40.0166 74.4875 40.4608 74.6111 40.8082 74.8583C41.1622 75.1055 41.3393 75.4629 41.3393 75.9305V78.3655C41.3393 78.4523 41.356 78.5191 41.3894 78.5659C41.4295 78.6126 41.4862 78.6427 41.5597 78.656L41.9706 78.7262ZM39.0145 78.6761C39.1949 78.6761 39.392 78.6193 39.6057 78.5057C39.8262 78.3922 40.0233 78.2485 40.1969 78.0749V77.2632L39.0747 77.4536C38.8809 77.487 38.7306 77.5605 38.6237 77.674C38.5168 77.7809 38.4634 77.9279 38.4634 78.1149C38.4634 78.2953 38.5135 78.4356 38.6137 78.5358C38.7139 78.6293 38.8475 78.6761 39.0145 78.6761Z" fill="#999999"></path> <path d="M47.9772 78.7262V79.4477H46.1835V76.2612C46.1835 75.9939 46.1101 75.7902 45.9631 75.6499C45.8161 75.5096 45.599 75.4395 45.3118 75.4395C45.098 75.4395 44.8976 75.4896 44.7105 75.5898C44.5235 75.6833 44.3665 75.8169 44.2396 75.9906V78.3655C44.2396 78.5391 44.313 78.636 44.46 78.656L44.9109 78.7262V79.4477H42.4459V78.7262L42.8567 78.656C42.9369 78.6427 42.9937 78.616 43.0271 78.5759C43.0605 78.5291 43.0772 78.459 43.0772 78.3655V75.67C43.0772 75.5831 43.0572 75.5163 43.0171 75.4695C42.9837 75.4228 42.9302 75.3927 42.8567 75.3794L42.4459 75.3092V74.5877H44.0091L44.0893 75.2691C44.5769 74.7481 45.128 74.4875 45.7426 74.4875C46.2637 74.4875 46.6612 74.6278 46.9351 74.9084C47.209 75.1823 47.3459 75.5397 47.3459 75.9806V78.3655C47.3459 78.4523 47.3626 78.5191 47.396 78.5659C47.4361 78.6126 47.4929 78.6427 47.5664 78.656L47.9772 78.7262Z" fill="#999999"></path> <path d="M53.8343 79.5479C52.859 79.5479 52.1074 79.2406 51.5797 78.626C51.052 78.0114 50.7881 77.1563 50.7881 76.0608C50.7881 75.2658 50.925 74.5744 51.1989 73.9865C51.4795 73.392 51.8803 72.9344 52.4014 72.6137C52.9224 72.2931 53.5337 72.1327 54.2351 72.1327C54.6894 72.1327 55.1036 72.1929 55.4777 72.3131C55.8518 72.4267 56.1691 72.5603 56.4296 72.7139L56.2693 74.5577H55.3975L55.1971 73.4254C54.8096 73.2383 54.3821 73.1448 53.9145 73.1448C53.2665 73.1448 52.8055 73.3452 52.5316 73.746C52.2644 74.1468 52.1308 74.7514 52.1308 75.5597C52.1308 77.5237 52.8256 78.5057 54.2151 78.5057C54.5758 78.5057 54.8998 78.4623 55.1871 78.3755C55.481 78.2886 55.8083 78.1784 56.1691 78.0448L56.4296 78.9066C55.5344 79.3341 54.6693 79.5479 53.8343 79.5479Z" fill="#999999"></path> <path d="M59.1852 79.5479C58.4237 79.5479 57.8525 79.3308 57.4717 78.8965C57.091 78.4623 56.9006 77.8878 56.9006 77.173C56.9006 76.6653 57.0041 76.2077 57.2112 75.8002C57.4183 75.3927 57.7189 75.0721 58.113 74.8383C58.5139 74.6044 58.9882 74.4875 59.5359 74.4875C60.2908 74.4875 60.8586 74.7047 61.2394 75.1389C61.6202 75.5731 61.8106 76.1476 61.8106 76.8624C61.8106 77.3701 61.707 77.8277 61.4999 78.2352C61.2929 78.6427 60.9922 78.9633 60.5981 79.1972C60.204 79.431 59.733 79.5479 59.1852 79.5479ZM59.5059 78.6761C59.9067 78.6761 60.1873 78.5458 60.3476 78.2853C60.5146 78.0248 60.5981 77.6173 60.5981 77.0628C60.5981 76.5083 60.4812 76.0875 60.2474 75.8002C60.0136 75.5063 59.6695 75.3593 59.2153 75.3593C58.8145 75.3593 58.5306 75.4929 58.3635 75.7601C58.1965 76.0207 58.113 76.4282 58.113 76.9826C58.113 77.5371 58.2299 77.958 58.4638 78.2452C58.7042 78.5325 59.0516 78.6761 59.5059 78.6761Z" fill="#999999"></path> <path d="M67.8717 78.7262V79.4477H66.078V76.2612C66.078 75.9939 66.0046 75.7902 65.8576 75.6499C65.7106 75.5096 65.4935 75.4395 65.2063 75.4395C64.9925 75.4395 64.7921 75.4896 64.605 75.5898C64.418 75.6833 64.261 75.8169 64.1341 75.9906V78.3655C64.1341 78.5391 64.2076 78.636 64.3545 78.656L64.8054 78.7262V79.4477H62.3404V78.7262L62.7513 78.656C62.8314 78.6427 62.8882 78.616 62.9216 78.5759C62.955 78.5291 62.9717 78.459 62.9717 78.3655V75.67C62.9717 75.5831 62.9517 75.5163 62.9116 75.4695C62.8782 75.4228 62.8247 75.3927 62.7513 75.3794L62.3404 75.3092V74.5877H63.9036L63.9838 75.2691C64.4714 74.7481 65.0226 74.4875 65.6371 74.4875C66.1582 74.4875 66.5557 74.6278 66.8296 74.9084C67.1035 75.1823 67.2404 75.5397 67.2404 75.9806V78.3655C67.2404 78.4523 67.2571 78.5191 67.2905 78.5659C67.3306 78.6126 67.3874 78.6427 67.4609 78.656L67.8717 78.7262Z" fill="#999999"></path> <path d="M68.3765 77.9346H69.118L69.2282 78.5759C69.4687 78.7095 69.766 78.7763 70.12 78.7763C70.3539 78.7763 70.5442 78.7295 70.6912 78.636C70.8449 78.5425 70.9217 78.4055 70.9217 78.2252C70.9217 78.0916 70.8749 77.978 70.7814 77.8845C70.6879 77.7909 70.5376 77.7041 70.3305 77.6239L69.589 77.3333C69.1547 77.1597 68.8374 76.9693 68.637 76.7622C68.4433 76.5484 68.3464 76.2712 68.3464 75.9305C68.3464 75.6232 68.4333 75.3593 68.607 75.1389C68.7873 74.9184 69.0144 74.7548 69.2883 74.6479C69.5689 74.541 69.8562 74.4875 70.1501 74.4875C70.7046 74.4875 71.2891 74.5944 71.9037 74.8082L71.8035 76.0407H71.082L70.9618 75.4094C70.9284 75.4027 70.8315 75.376 70.6712 75.3293C70.5175 75.2825 70.3305 75.2591 70.11 75.2591C69.9096 75.2591 69.7493 75.3025 69.629 75.3894C69.5088 75.4762 69.4487 75.5998 69.4487 75.7601C69.4487 75.9138 69.5021 76.0441 69.609 76.1509C69.7226 76.2578 69.9163 76.3647 70.1902 76.4716L70.9718 76.7622C71.7066 77.0294 72.074 77.4402 72.074 77.9947C72.074 78.3154 71.9805 78.5926 71.7935 78.8264C71.6064 79.0602 71.3626 79.2406 71.062 79.3675C70.7614 79.4877 70.444 79.5479 70.11 79.5479C69.7359 79.5479 69.4052 79.5178 69.118 79.4577C68.8374 79.4042 68.5535 79.3174 68.2663 79.1972L68.3765 77.9346Z" fill="#999999"></path> <path d="M77.9422 78.7262V79.4477H76.379L76.2988 78.7663C76.1118 78.9867 75.8713 79.1738 75.5773 79.3274C75.2834 79.4744 74.9728 79.5479 74.6454 79.5479C74.1511 79.5479 73.7603 79.4176 73.4731 79.1571C73.1858 78.8965 73.0422 78.5325 73.0422 78.0648V75.67C73.0422 75.5831 73.0221 75.5163 72.9821 75.4695C72.9487 75.4228 72.8952 75.3927 72.8217 75.3794L72.4109 75.3092V74.5877H74.2045V77.8444C74.2045 78.0916 74.268 78.2786 74.3949 78.4055C74.5285 78.5325 74.7223 78.5959 74.9761 78.5959C75.2033 78.5959 75.417 78.5458 75.6174 78.4456C75.8245 78.3387 76.0015 78.1918 76.1485 78.0047V75.67C76.1485 75.4963 76.075 75.3994 75.9281 75.3794L75.4872 75.3092V74.5877H77.3109V78.3655C77.3109 78.4523 77.3276 78.5191 77.361 78.5659C77.4011 78.6126 77.4579 78.6427 77.5313 78.656L77.9422 78.7262Z" fill="#999999"></path> <path d="M78.341 78.7262L78.7518 78.656C78.8253 78.6427 78.8787 78.6126 78.9121 78.5659C78.9522 78.5191 78.9722 78.4523 78.9722 78.3655V72.7039C78.9722 72.5302 78.8988 72.4333 78.7518 72.4133L78.341 72.3532V71.6317H80.1346V78.3655C80.1346 78.459 80.1513 78.5291 80.1847 78.5759C80.2181 78.616 80.2749 78.6427 80.3551 78.656L80.7659 78.7262V79.4477H78.341V78.7262Z" fill="#999999"></path> <path d="M85.9063 78.7262V79.4477H84.283L84.1928 78.8164C83.939 79.0635 83.6818 79.2473 83.4212 79.3675C83.1674 79.4877 82.8902 79.5479 82.5896 79.5479C82.1687 79.5479 81.8347 79.431 81.5875 79.1972C81.347 78.9567 81.2268 78.626 81.2268 78.2051C81.2268 77.7976 81.357 77.4636 81.6176 77.2031C81.8781 76.9359 82.2455 76.7755 82.7198 76.7221L84.1327 76.5618V75.9906C84.1327 75.5297 83.8354 75.2992 83.2409 75.2992C82.9403 75.2992 82.6764 75.356 82.4493 75.4695L82.319 76.1309H81.5675L81.4773 74.9284C81.7512 74.8082 82.0618 74.7047 82.4092 74.6178C82.7566 74.531 83.0906 74.4875 83.4112 74.4875C83.9523 74.4875 84.3966 74.6111 84.7439 74.8583C85.098 75.1055 85.275 75.4629 85.275 75.9305V78.3655C85.275 78.4523 85.2917 78.5191 85.3251 78.5659C85.3652 78.6126 85.422 78.6427 85.4955 78.656L85.9063 78.7262ZM82.9503 78.6761C83.1307 78.6761 83.3277 78.6193 83.5415 78.5057C83.7619 78.3922 83.959 78.2485 84.1327 78.0749V77.2632L83.0104 77.4536C82.8167 77.487 82.6664 77.5605 82.5595 77.674C82.4526 77.7809 82.3992 77.9279 82.3992 78.1149C82.3992 78.2953 82.4493 78.4356 82.5495 78.5358C82.6497 78.6293 82.7833 78.6761 82.9503 78.6761Z" fill="#999999"></path> <path d="M88.6563 78.7062C88.8701 78.7062 89.1106 78.6761 89.3778 78.616L89.2676 79.3374C89.154 79.3976 88.9937 79.4477 88.7866 79.4877C88.5862 79.5278 88.3657 79.5479 88.1252 79.5479C87.6242 79.5479 87.2701 79.4143 87.0631 79.147C86.8626 78.8798 86.7624 78.4723 86.7624 77.9246V75.3693H86.1612V74.688L86.7624 74.6078V73.8062L87.9248 73.5456V74.5777L89.1573 74.4675V75.3693H87.9248V77.8544C87.9248 78.1617 87.9849 78.3822 88.1052 78.5158C88.2254 78.6427 88.4091 78.7062 88.6563 78.7062Z" fill="#999999"></path> <path d="M92.2104 78.6761C92.6179 78.6761 93.159 78.5792 93.8337 78.3855L94.014 79.0869C93.2458 79.3942 92.5143 79.5479 91.8196 79.5479C91.1448 79.5479 90.6204 79.3341 90.2463 78.9066C89.8789 78.479 89.6952 77.9045 89.6952 77.183C89.6952 76.3547 89.909 75.7 90.3365 75.219C90.7641 74.7314 91.3586 74.4875 92.1202 74.4875C92.8283 74.4875 93.326 74.698 93.6132 75.1188C93.9005 75.533 94.0441 76.191 94.0441 77.0929L90.9378 77.3133C90.9845 78.2218 91.4087 78.6761 92.2104 78.6761ZM91.9699 75.3593C91.7294 75.3593 91.5356 75.3961 91.3887 75.4695C91.2484 75.543 91.1415 75.6666 91.068 75.8403C90.9945 76.0073 90.9444 76.2511 90.9177 76.5718L92.9018 76.3914C92.8884 75.7034 92.5778 75.3593 91.9699 75.3593Z" fill="#999999"></path> <path d="M20.9391 90.9998C20.4514 90.9998 20.0072 90.953 19.6064 90.8595C19.2122 90.7593 18.9016 90.6524 18.6745 90.5389L18.7947 88.8354H19.7667L19.897 89.7873C20.2844 89.9744 20.7253 90.0679 21.2197 90.0679C21.527 90.0679 21.7975 89.9777 22.0313 89.7974C22.2651 89.6103 22.382 89.3631 22.382 89.0558C22.382 88.8154 22.3186 88.625 22.1916 88.4847C22.0647 88.3444 21.8242 88.1974 21.4702 88.0438L20.3579 87.5728C19.8435 87.359 19.4527 87.1019 19.1855 86.8012C18.925 86.5006 18.7947 86.1198 18.7947 85.6589C18.7947 85.2781 18.8949 84.9308 19.0953 84.6168C19.3024 84.3028 19.593 84.0556 19.9671 83.8753C20.3412 83.6882 20.7754 83.5947 21.2698 83.5947C21.9645 83.5947 22.6693 83.6982 23.3841 83.9053L23.2438 85.5086H22.3019L22.1516 84.6869C21.8844 84.56 21.557 84.4965 21.1696 84.4965C20.8088 84.4965 20.5316 84.5767 20.3379 84.737C20.1508 84.8907 20.0573 85.1111 20.0573 85.3984C20.0573 85.6723 20.1341 85.8927 20.2878 86.0597C20.4414 86.2201 20.7086 86.3804 21.0894 86.5407L22.0514 86.9515C22.5858 87.1787 22.9799 87.4325 23.2338 87.7131C23.4943 87.9937 23.6246 88.3544 23.6246 88.7953C23.6246 89.2228 23.511 89.6036 23.2839 89.9376C23.0567 90.2717 22.7394 90.5322 22.3319 90.7192C21.9244 90.9063 21.4602 90.9998 20.9391 90.9998Z" fill="#999999"></path> <path d="M28.86 90.1781V90.8996H27.2367L27.1465 90.2683C26.8927 90.5155 26.6355 90.6992 26.3749 90.8194C26.1211 90.9397 25.8439 90.9998 25.5433 90.9998C25.1224 90.9998 24.7884 90.8829 24.5412 90.6491C24.3007 90.4086 24.1805 90.0779 24.1805 89.6571C24.1805 89.2496 24.3107 88.9156 24.5713 88.655C24.8318 88.3878 25.1992 88.2275 25.6735 88.174L27.0864 88.0137V87.4425C27.0864 86.9816 26.7891 86.7511 26.1946 86.7511C25.894 86.7511 25.6301 86.8079 25.403 86.9215L25.2727 87.5828H24.5212L24.431 86.3804C24.7049 86.2601 25.0155 86.1566 25.3629 86.0697C25.7103 85.9829 26.0443 85.9395 26.3649 85.9395C26.906 85.9395 27.3503 86.0631 27.6976 86.3102C28.0517 86.5574 28.2287 86.9148 28.2287 87.3824V89.8174C28.2287 89.9042 28.2454 89.971 28.2788 90.0178C28.3189 90.0646 28.3757 90.0946 28.4492 90.108L28.86 90.1781ZM25.904 90.128C26.0844 90.128 26.2814 90.0712 26.4952 89.9577C26.7156 89.8441 26.9127 89.7005 27.0864 89.5268V88.7151L25.9641 88.9055C25.7704 88.9389 25.6201 89.0124 25.5132 89.126C25.4063 89.2329 25.3529 89.3798 25.3529 89.5669C25.3529 89.7473 25.403 89.8875 25.5032 89.9877C25.6034 90.0813 25.737 90.128 25.904 90.128Z" fill="#999999"></path> <path d="M34.8667 90.1781V90.8996H33.073V87.7131C33.073 87.4459 32.9995 87.2421 32.8525 87.1019C32.7056 86.9616 32.4885 86.8914 32.2012 86.8914C31.9874 86.8914 31.787 86.9415 31.6 87.0417C31.4129 87.1353 31.256 87.2689 31.129 87.4425V89.8174C31.129 89.9911 31.2025 90.0879 31.3495 90.108L31.8004 90.1781V90.8996H29.3354V90.1781L29.7462 90.108C29.8264 90.0946 29.8831 90.0679 29.9166 90.0278C29.95 89.9811 29.9667 89.9109 29.9667 89.8174V87.1219C29.9667 87.0351 29.9466 86.9682 29.9065 86.9215C29.8731 86.8747 29.8197 86.8447 29.7462 86.8313L29.3354 86.7612V86.0397H30.8986L30.9787 86.7211C31.4664 86.2 32.0175 85.9395 32.6321 85.9395C33.1532 85.9395 33.5506 86.0798 33.8245 86.3603C34.0984 86.6342 34.2354 86.9916 34.2354 87.4325V89.8174C34.2354 89.9042 34.2521 89.971 34.2855 90.0178C34.3255 90.0646 34.3823 90.0946 34.4558 90.108L34.8667 90.1781Z" fill="#999999"></path> <path d="M42.9082 83.6849L42.8381 85.5988H42.0164L41.9463 84.9274C41.9396 84.8139 41.9062 84.737 41.8461 84.6969C41.7926 84.6569 41.6991 84.6368 41.5655 84.6368H39.7418V86.7511H41.6757V87.7231H39.7418V89.647C39.7418 89.7807 39.7618 89.8742 39.8019 89.9276C39.842 89.9744 39.9221 90.0078 40.0424 90.0278L40.7137 90.118V90.8996H37.8178V90.118L38.2287 90.0178C38.3489 89.9844 38.4257 89.9443 38.4591 89.8976C38.4992 89.8508 38.5193 89.764 38.5193 89.637V84.8974C38.5193 84.7771 38.4992 84.6936 38.4591 84.6468C38.4191 84.6001 38.3422 84.5633 38.2287 84.5366L37.8178 84.4665V83.6849H42.9082Z" fill="#999999"></path> <path d="M45.9586 85.9395C46.139 85.9395 46.3026 85.9662 46.4496 86.0196C46.5966 86.0664 46.7135 86.1199 46.8003 86.18L46.7201 87.5528H45.9686L45.8684 86.9515C45.7882 86.9048 45.6814 86.8814 45.5477 86.8814C45.3473 86.8814 45.1603 86.9749 44.9866 87.162C44.8129 87.349 44.696 87.5795 44.6359 87.8534V89.8174C44.6359 89.9911 44.7094 90.0879 44.8563 90.108L45.4576 90.1781V90.8996H42.8422V90.1781L43.2531 90.108C43.3332 90.0946 43.39 90.0679 43.4234 90.0278C43.4568 89.9811 43.4735 89.9109 43.4735 89.8174V87.1219C43.4735 87.0284 43.4568 86.9616 43.4234 86.9215C43.39 86.8747 43.3332 86.8447 43.2531 86.8313L42.8422 86.7612V86.0397H44.4054L44.5257 86.9014C44.6726 86.6276 44.8764 86.4004 45.1369 86.2201C45.4041 86.033 45.678 85.9395 45.9586 85.9395Z" fill="#999999"></path> <path d="M51.7074 90.1781V90.8996H50.0841L49.9939 90.2683C49.7401 90.5155 49.4829 90.6992 49.2224 90.8194C48.9685 90.9397 48.6913 90.9998 48.3907 90.9998C47.9698 90.9998 47.6358 90.8829 47.3886 90.6491C47.1481 90.4086 47.0279 90.0779 47.0279 89.6571C47.0279 89.2496 47.1581 88.9156 47.4187 88.655C47.6792 88.3878 48.0466 88.2275 48.5209 88.174L49.9338 88.0137V87.4425C49.9338 86.9816 49.6365 86.7511 49.042 86.7511C48.7414 86.7511 48.4775 86.8079 48.2504 86.9215L48.1201 87.5828H47.3686L47.2784 86.3804C47.5523 86.2601 47.8629 86.1566 48.2103 86.0697C48.5577 85.9829 48.8917 85.9395 49.2123 85.9395C49.7534 85.9395 50.1977 86.0631 50.5451 86.3102C50.8991 86.5574 51.0761 86.9148 51.0761 87.3824V89.8174C51.0761 89.9042 51.0928 89.971 51.1262 90.0178C51.1663 90.0646 51.2231 90.0946 51.2966 90.108L51.7074 90.1781ZM48.7514 90.128C48.9318 90.128 49.1288 90.0712 49.3426 89.9577C49.563 89.8441 49.7601 89.7005 49.9338 89.5268V88.7151L48.8115 88.9055C48.6178 88.9389 48.4675 89.0124 48.3606 89.126C48.2537 89.2329 48.2003 89.3798 48.2003 89.5669C48.2003 89.7473 48.2504 89.8875 48.3506 89.9877C48.4508 90.0813 48.5844 90.128 48.7514 90.128Z" fill="#999999"></path> <path d="M57.7141 90.1781V90.8996H55.9204V87.7131C55.9204 87.4459 55.8469 87.2421 55.6999 87.1019C55.553 86.9616 55.3359 86.8914 55.0486 86.8914C54.8348 86.8914 54.6344 86.9415 54.4474 87.0417C54.2603 87.1353 54.1034 87.2689 53.9764 87.4425V89.8174C53.9764 89.9911 54.0499 90.0879 54.1969 90.108L54.6478 90.1781V90.8996H52.1828V90.1781L52.5936 90.108C52.6738 90.0946 52.7306 90.0679 52.764 90.0278C52.7974 89.9811 52.8141 89.9109 52.8141 89.8174V87.1219C52.8141 87.0351 52.794 86.9682 52.7539 86.9215C52.7205 86.8747 52.6671 86.8447 52.5936 86.8313L52.1828 86.7612V86.0397H53.746L53.8261 86.7211C54.3138 86.2 54.8649 85.9395 55.4795 85.9395C56.0006 85.9395 56.398 86.0798 56.6719 86.3603C56.9458 86.6342 57.0828 86.9916 57.0828 87.4325V89.8174C57.0828 89.9042 57.0995 89.971 57.1329 90.0178C57.173 90.0646 57.2297 90.0946 57.3032 90.108L57.7141 90.1781Z" fill="#999999"></path> <path d="M60.3031 90.9998C59.6017 90.9998 59.0606 90.8061 58.6798 90.4186C58.3057 90.0245 58.1186 89.4533 58.1186 88.7051C58.1186 88.1573 58.2188 87.6764 58.4192 87.2622C58.6263 86.8413 58.9136 86.5173 59.281 86.2902C59.6484 86.0564 60.0693 85.9395 60.5436 85.9395C60.8576 85.9395 61.1648 85.9829 61.4655 86.0697C61.7728 86.1499 62.0166 86.2468 62.197 86.3603L62.0968 87.7031H61.3352L61.1849 86.9816C60.9912 86.8614 60.7039 86.8012 60.3231 86.8012C59.9691 86.8012 59.7152 86.9348 59.5616 87.2021C59.4146 87.4626 59.3411 87.8768 59.3411 88.4446C59.3411 88.9991 59.4514 89.4199 59.6718 89.7072C59.8923 89.9877 60.2062 90.128 60.6137 90.128C60.8409 90.128 61.068 90.1046 61.2951 90.0579C61.5222 90.0044 61.7961 89.931 62.1168 89.8374L62.2671 90.5489C61.8663 90.7092 61.5289 90.8261 61.255 90.8996C60.9811 90.9664 60.6638 90.9998 60.3031 90.9998Z" fill="#999999"></path> <path d="M63.7006 85.1078C63.4601 85.1078 63.2864 85.051 63.1795 84.9374C63.0726 84.8239 63.0192 84.6468 63.0192 84.4064C63.0192 83.9321 63.2664 83.6949 63.7607 83.6949C64.0012 83.6949 64.1749 83.755 64.2818 83.8753C64.3886 83.9888 64.4421 84.1659 64.4421 84.4064C64.4421 84.6468 64.3786 84.8239 64.2517 84.9374C64.1315 85.051 63.9477 85.1078 63.7006 85.1078ZM62.6584 90.1781L63.0693 90.108C63.1494 90.0946 63.2062 90.0679 63.2396 90.0278C63.273 89.9811 63.2897 89.9109 63.2897 89.8174V87.1119C63.2897 87.0184 63.273 86.9482 63.2396 86.9014C63.2062 86.8547 63.1494 86.828 63.0693 86.8213L62.6584 86.7612V86.0397H64.4521V89.8174C64.4521 89.9042 64.4688 89.971 64.5022 90.0178C64.5423 90.0646 64.5991 90.0946 64.6726 90.108L65.0934 90.1781V90.8996H62.6584V90.1781Z" fill="#999999"></path> <path d="M65.5827 89.3865H66.3242L66.4344 90.0278C66.6749 90.1614 66.9722 90.2282 67.3263 90.2282C67.5601 90.2282 67.7504 90.1815 67.8974 90.0879C68.0511 89.9944 68.1279 89.8575 68.1279 89.6771C68.1279 89.5435 68.0811 89.4299 67.9876 89.3364C67.8941 89.2429 67.7438 89.156 67.5367 89.0759L66.7952 88.7853C66.361 88.6116 66.0436 88.4212 65.8432 88.2141C65.6495 88.0004 65.5526 87.7231 65.5526 87.3824C65.5526 87.0751 65.6395 86.8113 65.8132 86.5908C65.9935 86.3704 66.2207 86.2067 66.4946 86.0998C66.7751 85.9929 67.0624 85.9395 67.3563 85.9395C67.9108 85.9395 68.4953 86.0464 69.1099 86.2601L69.0097 87.4927H68.2882L68.168 86.8614C68.1346 86.8547 68.0377 86.828 67.8774 86.7812C67.7237 86.7344 67.5367 86.7111 67.3162 86.7111C67.1158 86.7111 66.9555 86.7545 66.8353 86.8413C66.715 86.9282 66.6549 87.0518 66.6549 87.2121C66.6549 87.3657 66.7083 87.496 66.8152 87.6029C66.9288 87.7098 67.1225 87.8166 67.3964 87.9235L68.178 88.2141C68.9128 88.4813 69.2802 88.8922 69.2802 89.4466C69.2802 89.7673 69.1867 90.0445 68.9997 90.2783C68.8126 90.5121 68.5688 90.6925 68.2682 90.8194C67.9676 90.9397 67.6502 90.9998 67.3162 90.9998C66.9421 90.9998 66.6115 90.9697 66.3242 90.9096C66.0436 90.8562 65.7597 90.7693 65.4725 90.6491L65.5827 89.3865Z" fill="#999999"></path> <path d="M71.9018 90.9998C71.2003 90.9998 70.6592 90.8061 70.2785 90.4186C69.9044 90.0245 69.7173 89.4533 69.7173 88.7051C69.7173 88.1573 69.8175 87.6764 70.0179 87.2622C70.225 86.8413 70.5123 86.5173 70.8797 86.2902C71.2471 86.0564 71.668 85.9395 72.1423 85.9395C72.4562 85.9395 72.7635 85.9829 73.0641 86.0697C73.3714 86.1499 73.6153 86.2468 73.7956 86.3603L73.6954 87.7031H72.9339L72.7836 86.9816C72.5898 86.8614 72.3026 86.8012 71.9218 86.8012C71.5677 86.8012 71.3139 86.9348 71.1603 87.2021C71.0133 87.4626 70.9398 87.8768 70.9398 88.4446C70.9398 88.9991 71.05 89.4199 71.2705 89.7072C71.4909 89.9877 71.8049 90.128 72.2124 90.128C72.4395 90.128 72.6667 90.1046 72.8938 90.0579C73.1209 90.0044 73.3948 89.931 73.7155 89.8374L73.8658 90.5489C73.465 90.7092 73.1276 90.8261 72.8537 90.8996C72.5798 90.9664 72.2625 90.9998 71.9018 90.9998Z" fill="#999999"></path> <path d="M76.4817 90.9998C75.7201 90.9998 75.1489 90.7827 74.7682 90.3485C74.3874 89.9143 74.197 89.3398 74.197 88.625C74.197 88.1173 74.3005 87.6597 74.5076 87.2522C74.7147 86.8447 75.0153 86.524 75.4095 86.2902C75.8103 86.0564 76.2846 85.9395 76.8324 85.9395C77.5872 85.9395 78.1551 86.1566 78.5358 86.5908C78.9166 87.025 79.107 87.5995 79.107 88.3143C79.107 88.822 79.0035 89.2796 78.7964 89.6871C78.5893 90.0946 78.2887 90.4153 77.8945 90.6491C77.5004 90.8829 77.0294 90.9998 76.4817 90.9998ZM76.8023 90.128C77.2031 90.128 77.4837 89.9978 77.644 89.7372C77.811 89.4767 77.8945 89.0692 77.8945 88.5147C77.8945 87.9603 77.7776 87.5394 77.5438 87.2522C77.31 86.9582 76.966 86.8113 76.5117 86.8113C76.1109 86.8113 75.827 86.9449 75.66 87.2121C75.493 87.4726 75.4095 87.8801 75.4095 88.4346C75.4095 88.989 75.5264 89.4099 75.7602 89.6971C76.0007 89.9844 76.3481 90.128 76.8023 90.128Z" fill="#999999"></path> </svg> 