<?xml version="1.0" encoding="UTF-8"?> <svg xmlns="http://www.w3.org/2000/svg" width="70" height="70" viewBox="0 0 70 70" fill="none"> <g filter="url(#filter0_d)"> <circle cx="34.7999" cy="21.7999" r="16.7999" fill="#0F2A3B" fill-opacity="0.59"></circle> </g> <path d="M34.7999 5C44.0788 5 51.6 12.5222 51.6 21.8001C51.6 31.0779 44.0788 38.6 34.7999 38.6C25.521 38.6 18 31.0778 18 21.8001C18 12.5223 25.5212 5 34.7999 5Z" fill="white"></path> <path d="M27.4661 28.0833H30.6119V17.598H27.4661V28.0833ZM39.7217 17.2348C38.195 17.2348 36.8289 17.7923 35.8599 19.023V17.5635H32.7025V28.0834H35.8599V22.3945C35.8599 21.1922 36.9613 20.0194 38.341 20.0194C39.7207 20.0194 40.0609 21.1922 40.0609 22.3651V28.0824H43.2067V22.131C43.2066 17.997 41.2495 17.2348 39.7217 17.2348ZM29.0243 16.5501C29.8937 16.5501 30.5993 15.8445 30.5993 14.9751C30.5993 14.1057 29.8937 13.4001 29.0243 13.4001C28.1549 13.4001 27.4492 14.1058 27.4492 14.9752C27.4492 15.8446 28.1549 16.5501 29.0243 16.5501Z" fill="#687782"></path> <defs> <filter id="filter0_d" x="0" y="0" width="69.5999" height="69.5999" filterUnits="userSpaceOnUse" color-interpolation-filters="sRGB"> <feFlood flood-opacity="0" result="BackgroundImageFix"></feFlood> <feColorMatrix in="SourceAlpha" type="matrix" values="0 0 0 0 0 0 0 0 0 0 0 0 0 0 0 0 0 0 127 0" result="hardAlpha"></feColorMatrix> <feOffset dy="13"></feOffset> <feGaussianBlur stdDeviation="9"></feGaussianBlur> <feColorMatrix type="matrix" values="0 0 0 0 0.0658854 0 0 0 0 0.0730469 0 0 0 0 0.1375 0 0 0 0.08 0"></feColorMatrix> <feBlend mode="normal" in2="BackgroundImageFix" result="effect1_dropShadow"></feBlend> <feBlend mode="normal" in="SourceGraphic" in2="effect1_dropShadow" result="shape"></feBlend> </filter> </defs> </svg> 